<svg width="20" height="26" viewBox="0 0 20 26" fill="none" xmlns="http://www.w3.org/2000/svg">
<g clip-path="url(#clip0_1252_281)">
<path fill-rule="evenodd" clip-rule="evenodd" d="M17.5001 8.66666H16.25V6.19048C16.25 2.77334 13.45 0 10 0C6.55002 0 3.75001 2.77334 3.75001 6.19048V8.66666H2.50001C1.125 8.66666 0 9.78095 0 11.1429V23.5238C0 24.8857 1.125 26 2.50001 26H17.5001C18.875 26 20 24.8857 20 23.5238V11.1429C20 9.78095 18.875 8.66666 17.5001 8.66666ZM13.875 8.66666H6.12501V6.19048C6.12501 4.07334 7.86252 2.35238 10 2.35238C12.1375 2.35238 13.875 4.07334 13.875 6.19048V8.66666ZM10 19.8095C8.62502 19.8095 7.50002 18.6952 7.50002 17.3334C7.50002 15.9714 8.62502 14.8571 10 14.8571C11.375 14.8571 12.5 15.9714 12.5 17.3334C12.5 18.6952 11.375 19.8095 10 19.8095Z" fill="white"/>
</g>
<defs>
<clipPath id="clip0_1252_281">
<rect width="20" height="26" fill="white"/>
</clipPath>
</defs>
</svg>
