<?xml version="1.0" encoding="UTF-8"?>
<svg id="a" data-name="Layer 1" xmlns="http://www.w3.org/2000/svg" viewBox="0 0 128 128">
  <path d="m105.61,78.65c2.13-4.67,3.92-9.44,5.32-14.32.07-.24.11-.48.18-.71,1.4-4.99,2.47-10.07,3.19-15.26.02-.13.02-.26.04-.39.72-5.31,1.12-10.71,1.2-16.21h0c-.08-2.68.02-5.34-.3-8.01-.06-.52-.16-.85-.38-1.06-.22-.21-.55-.29-1.06-.32-3.04-.16-6.1-.31-9.1-.75-3.75-.55-7.42-1.31-10.99-2.28-1.16-.32-2.24-.8-3.38-1.17-2.37-.76-4.75-1.48-7.02-2.45-1.33-.57-2.56-1.36-3.86-2.01-1.98-1-4-1.92-5.89-3.12-1.31-.83-2.52-1.89-3.79-2.81-1.87-1.36-3.78-2.62-5.55-4.21-.16.07-.08.03-.23.1-.26,0-.52.14-.85.45-1.98,1.88-4.17,3.52-6.44,5.03-11.8,7.83-24.8,12.02-38.89,12.94-2.87.19-5.26,2.42-5.33,5.29-.24,10.5.64,20.89,3.07,31.11,6.68,28.24,22.3,49.96,47.32,64.82.34.2.73,0,1.13,0v.38c.34,0,.69-.13,1.09-.37,0,0,.02,0,.02,0,0,0,.01-.01.02-.01,0,0,.02-.02.03-.02,11.04-6.55,20.53-14.78,28.35-24.81.98-1.21,2.01-2.38,2.91-3.66.15-.21.27-.44.42-.65.1-.15.22-.27.33-.42.17-.25.27-.53.44-.78,2.91-4.35,5.46-8.81,7.61-13.39.15-.31.26-.63.4-.95Z" fill="none" stroke="#231f20" stroke-linecap="round" stroke-linejoin="round" stroke-width="2"/>
  <path d="m105.61,78.65c2.13-4.67,3.92-9.44,5.32-14.32.07-.24.11-.48.18-.71,1.4-4.99,2.47-10.07,3.19-15.26.02-.13.02-.26.04-.39.72-5.31,1.12-10.71,1.2-16.21h0c-.08-2.68.02-5.34-.3-8.01-.06-.52-.16-.85-.38-1.06-.22-.21-.55-.29-1.06-.32-3.04-.16-6.1-.31-9.1-.75-3.75-.55-7.42-1.31-10.99-2.28-1.16-.32-2.24-.8-3.38-1.17-2.37-.76-4.75-1.48-7.02-2.45-1.33-.57-2.56-1.36-3.86-2.01-1.98-1-4-1.92-5.89-3.12-1.31-.83-2.52-1.89-3.79-2.81-1.87-1.36-3.78-2.62-5.55-4.21-.16.07-.08.03-.23.1-.26,0-.52.14-.85.45-1.98,1.88-4.17,3.52-6.44,5.03-11.8,7.83-24.8,12.02-38.89,12.94-2.87.19-5.26,2.42-5.33,5.29-.24,10.5.64,20.89,3.07,31.11,6.68,28.24,22.3,49.96,47.32,64.82.34.2.73,0,1.13,0v.38c.34,0,.69-.13,1.09-.37,0,0,.02,0,.02,0,0,0,.01-.01.02-.01,0,0,.02-.02.03-.02,11.04-6.55,20.53-14.78,28.35-24.81.98-1.21,2.01-2.38,2.91-3.66.15-.21.27-.44.42-.65.1-.15.22-.27.33-.42.17-.25.27-.53.44-.78,2.91-4.35,5.46-8.81,7.61-13.39.15-.31.26-.63.4-.95Z" fill="#fbf49b"/>
  <path d="m105.61,78.65c2.13-4.67,3.92-9.44,5.32-14.32.07-.24.11-.48.18-.71,1.4-4.99,2.47-10.07,3.19-15.26.02-.13.02-.26.04-.39.72-5.31,1.12-10.71,1.2-16.21h0c-.08-2.68.02-5.34-.3-8.01-.06-.52-.16-.85-.38-1.06-.22-.21-.55-.29-1.06-.32-3.04-.16-6.1-.31-9.1-.75-3.75-.55-7.42-1.31-10.99-2.28-1.16-.32-2.24-.8-3.38-1.17-2.37-.76-4.75-1.48-7.02-2.45-1.33-.57-2.56-1.36-3.86-2.01-1.98-1-4-1.92-5.89-3.12-1.31-.83-2.52-1.89-3.79-2.81-1.87-1.36-3.78-2.62-5.55-4.21-.16.07-.08.03-.23.1-.26,0-.52.14-.85.45-1.98,1.88-4.17,3.52-6.44,5.03-11.8,7.83-24.8,12.02-38.89,12.94-2.87.19-5.26,2.42-5.33,5.29-.24,10.5.64,20.89,3.07,31.11,6.68,28.24,22.3,49.96,47.32,64.82.34.2.73,0,1.13,0v.38c.34,0,.69-.13,1.09-.37,0,0,.02,0,.02,0,0,0,.01-.01.02-.01,0,0,.02-.02.03-.02,11.04-6.55,20.53-14.78,28.35-24.81.98-1.21,2.01-2.38,2.91-3.66.15-.21.27-.44.42-.65.1-.15.22-.27.33-.42.17-.25.27-.53.44-.78,2.91-4.35,5.46-8.81,7.61-13.39.15-.31.26-.63.4-.95Z" fill="none" stroke="#231f20" stroke-miterlimit="10" stroke-width="5"/>
</svg>