<svg id="a" xmlns="http://www.w3.org/2000/svg" viewBox="0 0 128 128"><defs><style>.cls-1{fill:#512717;}.cls-2{fill:#7ba2ff;}.cls-3{fill:#231f20;}.cls-4{fill:#3e6aba;}.cls-5{fill:#ff7ba4;}.cls-6{opacity:0.2;}.cls-7{fill:#650000;}.cls-8{opacity:0.4;}.cls-9{fill:#09cbff;}.cls-10{opacity:0.3;}.cls-11{opacity:0.5;}.cls-12{fill:#fff;}</style></defs><polygon class="cls-1" points="62.15 76.06 62.03 76.08 62.03 76.05 62.15 76.06"/><polygon class="cls-1" points="62.26 76.05 62.26 76.08 62.15 76.06 62.26 76.05"/><ellipse class="cls-2" cx="65.05" cy="82.66" rx="9.16" ry="8.54" transform="translate(-1.24 0.99) rotate(-0.86)"/><path class="cls-3" d="M65.19,92c-5.5.08-10-4-10.12-9.15s4.34-9.37,9.84-9.45,10,4,10.12,9.15S70.69,91.88,65.19,92Zm-.26-17.07a8.07,8.07,0,0,0-8.22,7.9c.06,4.28,3.86,7.72,8.46,7.65s8.29-3.62,8.22-7.9S69.53,74.82,64.93,74.89Z"/><ellipse class="cls-4" cx="65.05" cy="82.66" rx="5.4" ry="5.03" transform="translate(-1.24 0.99) rotate(-0.86)"/><path class="cls-3" d="M65.13,88.28a5.63,5.63,0,1,1,6-5.71A5.84,5.84,0,0,1,65.13,88.28ZM65,78.22a4.45,4.45,0,1,0,4.83,4.37A4.62,4.62,0,0,0,65,78.22Z"/><path class="cls-5" d="M68.66,85.49c10.39,10,28.37,11.43,38.63.24-.87,14.9-26.74,20.87-42.76,3.29a2.43,2.43,0,0,1-.22-3.11l.11-.14A2.93,2.93,0,0,1,68.66,85.49Z"/><g class="cls-6"><path class="cls-7" d="M65.41,85.35a2.83,2.83,0,0,1-.32-.45,2.5,2.5,0,0,0,.36,2.91c15.8,17.68,41.3,11.68,42.15-3.3q-.3.33-.6.63C103.08,97.78,80.08,101.76,65.41,85.35Z"/></g><path class="cls-3" d="M88.38,100.55A30.68,30.68,0,0,1,80,99.49a33.69,33.69,0,0,1-16.08-10,3.16,3.16,0,0,1-.26-4l.12-.15A3.79,3.79,0,0,1,69.25,85a28.77,28.77,0,0,0,20.46,7.82,23.71,23.71,0,0,0,17-7.54.85.85,0,0,1,.92-.22.78.78,0,0,1,.52.75C107.74,92,103.21,97.08,96,99.36A26.85,26.85,0,0,1,88.38,100.55ZM66.65,85.48h-.1a2.06,2.06,0,0,0-1.48.75l-.09.11a1.72,1.72,0,0,0,.17,2.19c9.91,10.86,22.53,11.85,30.32,9.39,5.63-1.78,9.46-5.4,10.64-9.92a25.7,25.7,0,0,1-16.35,6.31A30.59,30.59,0,0,1,68.07,86h0A2,2,0,0,0,66.65,85.48Z"/><path class="cls-5" d="M90.32,76.33c-.21,0-.43,0-.65,0a21,21,0,0,1-12.76-4.66,20.55,20.55,0,0,0-13.54-4.42l-2,0A20.52,20.52,0,0,0,48,72.11a21.09,21.09,0,0,1-12.62,5c-4.65.2-8.36-1-11-3.72C20.2,69.2,19,61.6,20.62,50.19A12.85,12.85,0,0,1,33.19,39.12l57.5-.86a12.83,12.83,0,0,1,12.9,10.68c2,11.35,1,19-3,23.34C98.12,74.91,94.68,76.27,90.32,76.33Zm-27-13.91h0A26.06,26.06,0,0,1,80.25,68a15.78,15.78,0,0,0,9.51,3.53c3.1,0,5.35-.73,6.88-2.37,2.92-3.16,3.55-9.69,1.85-19.41a7.82,7.82,0,0,0-7.73-6.65L33.27,44a7.81,7.81,0,0,0-7.52,6.87c-1.41,9.77-.59,16.28,2.43,19.35,1.57,1.59,3.85,2.3,7,2.16a15.7,15.7,0,0,0,9.4-3.81,26.06,26.06,0,0,1,16.74-6.07Z"/><g class="cls-8"><path class="cls-9" d="M96.64,69.14c-1.53,1.64-3.78,2.42-6.88,2.37a15,15,0,0,1-6.05-1.4A17.84,17.84,0,0,1,82,69.19,15.5,15.5,0,0,1,80.25,68l-.54-.41A26,26,0,0,0,75,64.78a27.23,27.23,0,0,0-11.7-2.36l-2.06,0a26,26,0,0,0-16.74,6.07,15.67,15.67,0,0,1-9.4,3.81c-3.1.14-5.38-.57-7-2.16-3-3.07-3.84-9.58-2.43-19.35A7.82,7.82,0,0,1,33.27,44l57.49-.87a7.34,7.34,0,0,1,2,.26,6.84,6.84,0,0,1,1.79.74,8.11,8.11,0,0,1,3.89,5.64C100.19,59.45,99.56,66,96.64,69.14Z"/></g><g class="cls-10"><path class="cls-7" d="M25.79,53.56a7.82,7.82,0,0,1,7.52-6.87l57.49-.86a7.34,7.34,0,0,1,2,.25,7.59,7.59,0,0,1,1.79.74,8.08,8.08,0,0,1,3.89,5.65,62.49,62.49,0,0,1,.88,7.44,53.24,53.24,0,0,0-.92-10.19,8.11,8.11,0,0,0-3.89-5.64,6.84,6.84,0,0,0-1.79-.74,7.34,7.34,0,0,0-2-.26L33.27,44a7.82,7.82,0,0,0-7.52,6.87A53,53,0,0,0,25.13,61,59.81,59.81,0,0,1,25.79,53.56Z"/></g><g class="cls-11"><path class="cls-12" d="M29.72,71.33l11.34-27.5,6.06-.09-12,28.57a7.91,7.91,0,0,1-3.51-.17A7.57,7.57,0,0,1,29.72,71.33Z"/></g><g class="cls-11"><polygon class="cls-12" points="40.22 72.22 38.39 71.56 50.2 43.35 52.03 44.01 40.22 72.22"/></g><path class="cls-3" d="M90.34,77.25h-.69a22,22,0,0,1-13.37-4.88,19.6,19.6,0,0,0-12.9-4.21l-2,0a19.57,19.57,0,0,0-12.74,4.6,22.16,22.16,0,0,1-13.22,5.28c-5,.21-8.94-1.14-11.77-4-4.37-4.44-5.68-12.29-4-24A13.81,13.81,0,0,1,33.18,38.21l57.5-.87a13.81,13.81,0,0,1,13.88,11.45c2,11.64,1,19.52-3.27,24.09C98.67,75.71,95,77.18,90.34,77.25Zm-27-10.92A21.58,21.58,0,0,1,77.54,71a20.06,20.06,0,0,0,12.15,4.45h.62c4.06-.06,7.26-1.32,9.5-3.73,3.83-4.14,4.75-11.53,2.82-22.6A11.92,11.92,0,0,0,90.7,39.17L33.21,40A11.9,11.9,0,0,0,21.59,50.31c-1.6,11.12-.46,18.48,3.5,22.5,2.42,2.46,5.86,3.62,10.23,3.43a20.09,20.09,0,0,0,12-4.81,21.57,21.57,0,0,1,14-5.07Zm26.93,6.1h-.55a16.84,16.84,0,0,1-10.13-3.75,25,25,0,0,0-16.27-5.34l0-.92,0,.92-2,0a25,25,0,0,0-16.1,5.83,16.76,16.76,0,0,1-10,4c-3.41.15-5.93-.66-7.71-2.46-3.23-3.28-4.13-10-2.69-20.09A8.78,8.78,0,0,1,33.25,43l57.5-.86a8.78,8.78,0,0,1,8.71,7.41c1.74,10,1.05,16.78-2.08,20.15C95.75,71.5,93.42,72.38,90.29,72.43Zm-27-10.92h0a27,27,0,0,1,17.55,5.77,14.76,14.76,0,0,0,8.9,3.32c2.79,0,4.79-.63,6.11-2.06,2.69-2.9,3.26-9.36,1.63-18.66A6.87,6.87,0,0,0,90.78,44l-57.5.86a6.87,6.87,0,0,0-6.56,6.08c-1.35,9.35-.59,15.79,2.19,18.61,1.36,1.38,3.38,2,6.17,1.87a14.78,14.78,0,0,0,8.79-3.58,27,27,0,0,1,17.37-6.3Z"/></svg>