<svg id="a" xmlns="http://www.w3.org/2000/svg" viewBox="0 0 128 128"><defs><style>.cls-1{fill:#fff;}.cls-1,.cls-6,.cls-7{opacity:0.5;}.cls-2{fill:#006258;}.cls-3{opacity:0.1;}.cls-4{fill:#ff9700;}.cls-5,.cls-7{fill:#d03b27;}</style></defs><ellipse class="cls-1" cx="75.1" cy="16.98" rx="2.69" ry="1.87"/><path class="cls-2" d="M58.65,58.62s9-15.73,3.4-28.56C56.77,18,68.27,10.84,70.92,25.22c2.74-17.3,18.14-9.19,9.43,3.45C91.54,20.6,95,32.34,84.47,37c-17.53,7.78-14.79,26.9-14.79,26.9Z"/><g class="cls-3"><path d="M78.47,30.59c-3.64,5.94-8.65,5.92-8.41-1.66-1.48,5.59-5.36,5.88-7.16,3.47,3.69,12.32-4.25,26.22-4.25,26.22l11,5.3S66.94,44.8,84.47,37a10.79,10.79,0,0,0,5.88-5.43C86.84,35.7,77.42,37.46,78.47,30.59Z"/></g><path class="cls-4" d="M85.75,55c-.37-10-27.9-19.13-37-12.55s-12.3,67.41-3.45,70.85S86.5,75,85.75,55Z"/><path class="cls-5" d="M84.86,55.06a6.41,6.41,0,0,0-.69-2.47,11.12,11.12,0,0,0-1.61-2.24,20.21,20.21,0,0,0-4.5-3.58,39.12,39.12,0,0,0-10.84-4.39,36.21,36.21,0,0,0-11.55-1.1,14.33,14.33,0,0,0-5.35,1.44,8,8,0,0,0-1.1.7,4.84,4.84,0,0,0-.83.9,11.94,11.94,0,0,0-1.34,2.39,51.65,51.65,0,0,0-3,11.23c-.68,3.87-1.14,7.8-1.49,11.73A181.1,181.1,0,0,0,42,93.3a78.6,78.6,0,0,0,1.26,11.58A20.81,20.81,0,0,0,44.89,110,3.33,3.33,0,0,0,46,111.4a2.23,2.23,0,0,0,1.4-.09,15.06,15.06,0,0,0,4.52-2.55A47.2,47.2,0,0,0,56.22,105a104.74,104.74,0,0,0,7.94-8.6A133.32,133.32,0,0,0,77.53,77a78.08,78.08,0,0,0,5-10.66A32.81,32.81,0,0,0,84.86,55.06ZM86.65,55a34.77,34.77,0,0,1-2.06,12.07,85.76,85.76,0,0,1-4.7,11.18A125.61,125.61,0,0,1,67,98.69a89.19,89.19,0,0,1-8,9.18A46.19,46.19,0,0,1,54.3,112a19,19,0,0,1-5.85,3.24A6,6,0,0,1,44,115a7,7,0,0,1-2.75-3.13,24.75,24.75,0,0,1-1.89-6.23,81.63,81.63,0,0,1-1.18-12.18,165.81,165.81,0,0,1,1.2-24.11c.48-4,1.11-8,1.95-11.92A54.48,54.48,0,0,1,45,45.76,14.71,14.71,0,0,1,46.69,43a6.93,6.93,0,0,1,1.24-1.24,9.93,9.93,0,0,1,1.44-.88,16.48,16.48,0,0,1,6.15-1.5,37.79,37.79,0,0,1,12.1,1.48A47.3,47.3,0,0,1,78.83,45.5a23.5,23.5,0,0,1,4.91,3.73,12.26,12.26,0,0,1,1.94,2.55A8.12,8.12,0,0,1,86.65,55Z"/><g class="cls-6"><path class="cls-5" d="M56,61.71A121.35,121.35,0,0,0,85.75,59.8l-.33-1.54c-.24.05-23.6,5-42.72-.28l-.41,1.51A70.61,70.61,0,0,0,56,61.71Z"/></g><path class="cls-7" d="M66.49,74.14a75.22,75.22,0,0,0,14.61-.35l-.22-1.55c-.25,0-25.74,3.44-38.78-8.31l-1.05,1.16C48.05,71.39,58.17,73.55,66.49,74.14Z"/><path class="cls-7" d="M71.8,86.89c1.07.07,1.74.09,1.89.09l0-1.57c-.23,0-23.36-.54-32.33-14.34l-1.31.85C48.05,84.19,65.9,86.47,71.8,86.89Z"/><path class="cls-7" d="M52.54,95.87a49.52,49.52,0,0,0,16.63-1.94l-.48-1.49c-.17,0-17.37,5.39-28.2-2l-.88,1.3A26.14,26.14,0,0,0,52.54,95.87Z"/><path class="cls-7" d="M56.42,108.25l.18-1.55c-.11,0-10.8-1.32-15.52-8.86l-1.33.83C44.88,106.85,56,108.2,56.42,108.25Z"/><path class="cls-1" d="M69.1,49.31c0,2.74-19.3,2.54-19.27-.19s4.36-4.9,9.68-4.85S69.12,46.58,69.1,49.31Z"/><ellipse class="cls-1" cx="78.21" cy="18.7" rx="2.69" ry="1.87" transform="translate(-0.2 0.87) rotate(-0.63)"/><ellipse class="cls-1" cx="86.66" cy="28.9" rx="2.42" ry="1.87" transform="translate(-0.26 0.79) rotate(-0.52)"/><ellipse class="cls-1" cx="65.22" cy="20.75" rx="2.42" ry="1.87" transform="translate(-1.51 5.54) rotate(-4.81)"/></svg>