<svg id="a" xmlns="http://www.w3.org/2000/svg" xmlns:xlink="http://www.w3.org/1999/xlink" viewBox="0 0 128 128"><defs><style>.cls-1,.cls-15,.cls-9{fill:#fff;}.cls-2{fill:#232020;}.cls-3,.cls-8{fill:#231f20;}.cls-4{fill:#ff8080;}.cls-11,.cls-5{fill:#ffb0cb;}.cls-6{fill:#ff5fa0;}.cls-7{fill:none;stroke:#231f20;stroke-linecap:round;stroke-linejoin:round;stroke-width:2.94px;}.cls-11,.cls-8,.cls-9{fill-rule:evenodd;}.cls-10{opacity:0.35;}.cls-12{fill:#ff78a7;}.cls-13{opacity:0.2;}.cls-14{fill:#52525b;}.cls-15,.cls-20,.cls-21{opacity:0.5;}.cls-16{fill:#006258;}.cls-17{opacity:0.1;}.cls-18{fill:#ff9700;}.cls-19,.cls-21{fill:#d03b27;}.cls-22{fill:url(#New_Gradient_Swatch_2);}.cls-23{fill:#45a7ff;}.cls-24{fill:#1a1a1a;}</style><linearGradient id="New_Gradient_Swatch_2" x1="620.18" y1="611.24" x2="622.42" y2="628.57" gradientTransform="matrix(-0.99, -0.16, -0.16, 0.99, 778.55, -412.83)" gradientUnits="userSpaceOnUse"><stop offset="0" stop-color="#b2edff"/><stop offset="1" stop-color="#1b90fa"/></linearGradient></defs><path class="cls-1" d="M95.36,48.65a4.48,4.48,0,0,0-1.8.5,1.6,1.6,0,0,0-.84,1.56,2,2,0,0,0,.94,1.17A8,8,0,0,0,98,53a6.5,6.5,0,0,0,3.34-.74,1.56,1.56,0,0,0,.59-.55,1.33,1.33,0,0,0-.1-1.32,3.93,3.93,0,0,0-1-1c4.88,1.72,14.24,1.22,16.58-4.47a8.5,8.5,0,0,0-1.65-8.37,14.15,14.15,0,0,0-7.38-4.26,24.48,24.48,0,0,0-6.26-.8c-3.62,0-7.39.93-10.09,3.49a8.25,8.25,0,0,0-2.16,3.22,7.74,7.74,0,0,0,.64,6.08A10.81,10.81,0,0,0,95.36,48.65Z"/><path class="cls-2" d="M89.79,43.37A9.29,9.29,0,0,0,92,46.59a11,11,0,0,0,2.61,1.93,3.81,3.81,0,0,0-1.36.48,1.77,1.77,0,0,0-.87,1.51,1.91,1.91,0,0,0,.89,1.37,5.94,5.94,0,0,0,1.6.83,10.18,10.18,0,0,0,3.68.5,7.62,7.62,0,0,0,1.84-.25,4.21,4.21,0,0,0,1.6-.79,1.31,1.31,0,0,0,.3-1.55,2.18,2.18,0,0,0-.46-.7l.06,0a19.65,19.65,0,0,0,5.46.55,16.72,16.72,0,0,0,5.59-1.08,8.87,8.87,0,0,0,4.18-3.13,6.8,6.8,0,0,0,1.1-2.88,8.18,8.18,0,0,0-.33-3.61,9.62,9.62,0,0,0-1.75-3.24,11.76,11.76,0,0,0-2.94-2.5,20.07,20.07,0,0,0-7.83-2.55,21.05,21.05,0,0,0-8.14.4,12.14,12.14,0,0,0-6.38,4,7.32,7.32,0,0,0-1.56,3.58A7.87,7.87,0,0,0,89.79,43.37Zm.72-5.7a8.66,8.66,0,0,1,2.29-2.91,13.22,13.22,0,0,1,6.62-2.82,22.24,22.24,0,0,1,8.17.39,15.52,15.52,0,0,1,6.7,3.08,9.69,9.69,0,0,1,2.28,2.81,9,9,0,0,1,1,3.37,7,7,0,0,1-.52,3.38,6.63,6.63,0,0,1-1.4,2,10,10,0,0,1-4.45,2.43,15.38,15.38,0,0,1-2.69.51c-.46,0-.92.08-1.38.1h-1.32c-.45,0-.9,0-1.35-.09l-.65-.08-.34-.05-.15,0h-.09c-.4-.07-.8-.16-1.2-.26l-.57-.15-.28-.09-.12,0H101a.42.42,0,0,0-.42,0c-.11.1,0,.22.07.3a2.49,2.49,0,0,1,1,1.3,1,1,0,0,1-.09.76,1.62,1.62,0,0,1-.63.53,6.17,6.17,0,0,1-3.08.64,8.25,8.25,0,0,1-3.07-.54c-.76-.31-2-.92-1.76-1.94s1.47-1.3,2.4-1.43a.29.29,0,0,0,.2-.09.13.13,0,0,0,0-.13h0v0a.4.4,0,0,0-.23-.17A9.71,9.71,0,0,1,94,47.62,10.63,10.63,0,0,1,91.31,45,8,8,0,0,1,90,41.44,7,7,0,0,1,90.51,37.67Z"/><path class="cls-1" d="M90.35,52.22a3.65,3.65,0,0,1,2.1.62,1.07,1.07,0,0,1,.56.85c0,.38-.38.65-.72.81a4.29,4.29,0,0,1-3.67,0,1.14,1.14,0,0,1-.67-.69C87.71,52.54,89.51,52.23,90.35,52.22Z"/><path class="cls-2" d="M90.51,51.91a3.74,3.74,0,0,1,1.55.32c.42.19,1,.49,1.1,1A1.2,1.2,0,0,1,93,54a1.74,1.74,0,0,1-.53.64,3.45,3.45,0,0,1-1.38.51,4.54,4.54,0,0,1-1.56,0,3.34,3.34,0,0,1-1.4-.58.91.91,0,0,1-.29-1,2.79,2.79,0,0,1,.37-.73,1.23,1.23,0,0,1,.33-.35,2.6,2.6,0,0,1,1-.42,4.9,4.9,0,0,1,1-.13,1.92,1.92,0,0,1-.12.33,2.39,2.39,0,0,1-.13.21s0,.08-.07.08a4,4,0,0,0-1.63.32,1.93,1.93,0,0,0-.36.22.75.75,0,0,0-.14.12l0,.05,0,0s.06-.1.08-.13a.87.87,0,0,0,.06-.13s0,0,0,0,0,.05,0,.08a.74.74,0,0,0,0,.21.79.79,0,0,0,.22.51,2.65,2.65,0,0,0,1.16.58,4.33,4.33,0,0,0,2.72-.12,2.55,2.55,0,0,0,.59-.31l.19-.18c-.24.25-.17.41-.14.25s0,0,0-.06a.55.55,0,0,0,0-.18c-.11-.48-.68-.79-1.09-1a3.77,3.77,0,0,0-1.55-.31,2,2,0,0,1,.13-.33l.12-.21S90.49,51.91,90.51,51.91Z"/><path class="cls-1" d="M71.25,52.86c5.78-.8,11.27-.22,15.18,1.63,12.48,5.91,16,20.85,18.61,27,1.6,3.73,4.25,8,3.46,8.84-1,1-7.08,1-10.81-1C85.21,83,80.3,63.92,69.35,61.78"/><path class="cls-3" d="M71.25,52.86a22,22,0,0,1,10.41-.54c5.9,1,11,4.7,14.64,9.3,4.37,5.55,6.66,12.24,9,18.72.81,2.1,1.89,4.11,2.88,6.21,1.74,3.69,1.79,5-2.77,5.13a19.27,19.27,0,0,1-7-1.22c-4.36-1.84-7.8-5.35-10.77-8.93s-5.48-7.45-8.25-11.06a28.64,28.64,0,0,0-7.13-7,25.33,25.33,0,0,0-3-1.67,7.53,7.53,0,0,1,3.49.7,18,18,0,0,1,5.54,4.4c6.75,7.46,11,18,20.56,22.34a18.25,18.25,0,0,0,6.5,1.11,6.13,6.13,0,0,0,2.54-.44h0a0,0,0,0,0,0,0s0,0,0,0a.55.55,0,0,0,0-.19,2.1,2.1,0,0,0-.06-.33,14.78,14.78,0,0,0-.92-2.27c-1-2.05-2.09-4.09-3-6.28s-1.6-4.3-2.45-6.44C99.11,68.18,95.78,62,90.41,57.79a22.16,22.16,0,0,0-5.77-3.29C80.34,53,75.8,53,71.25,52.86Z"/><path class="cls-4" d="M104.19,88.36c-1.69.37-7.35-2.54-10.48-5.54-6.55-6.29-8.57-15.26-18.66-21.66-1.8-1.14-4-1.63-4.17-2.71-.13-.77,1.71-1.51,2.72-1.74,6.1-1.39,13.75.95,18.9,11.31C100.57,84.26,104.64,88.26,104.19,88.36Z"/><path class="cls-5" d="M104.19,88.35c-1.69.38-7.35-2.53-10.48-5.53C87.65,77,85.47,68.88,77.17,62.63c-.66-.5-1.37-1-2.12-1.47-1.8-1.14-4-1.63-4.17-2.71-.13-.77,1.72-1.51,2.73-1.74C79.7,55.32,87.35,57.66,92.5,68,100.57,84.26,104.64,88.26,104.19,88.35Z"/><path class="cls-6" d="M104.19,88.35C101.38,87,90.48,67.2,86.76,63.13s-9.93-4.79-10.91-4c-.76.6.23,2.17,1.32,3.51-.66-.5-1.37-1-2.12-1.47-1.8-1.14-4-1.63-4.17-2.71-.13-.77,1.72-1.51,2.73-1.74C79.7,55.32,87.35,57.66,92.5,68,100.57,84.26,104.64,88.26,104.19,88.35Z"/><path class="cls-3" d="M70.33,58.89a1.33,1.33,0,0,1-.1-.34c-.27-1.66,3.09-2.44,3.23-2.48a15,15,0,0,1,10.25,1.31c3.77,1.94,6.92,5.42,9.37,10.35,5.75,11.56,9.52,17,10.94,19,.8,1.16,1,1.4.81,1.82a.69.69,0,0,1-.5.42h0c-2.14.48-8-2.8-11.07-5.7a45.82,45.82,0,0,1-6.47-8.43c-3-4.59-6.07-9.33-12.09-13.15a18.55,18.55,0,0,0-1.87-1C71.67,60.19,70.66,59.71,70.33,58.89Zm1.2-.5c.12.35,1,.78,1.85,1.16a18.79,18.79,0,0,1,2,1.06c6.26,4,9.42,8.83,12.49,13.54a44.16,44.16,0,0,0,6.27,8.2A24.54,24.54,0,0,0,103,87.62L103,87.5c-1.44-2.07-5.24-7.54-11-19.19-6.09-12.24-14.74-11.75-18.17-11A4.67,4.67,0,0,0,71.53,58.39Zm32.66,30Z"/><path class="cls-1" d="M54.7,52.36c-5.79-.8-11.27-.22-15.19,1.63C27,59.9,23.55,74.84,20.91,81c-1.61,3.73-4.26,8-3.46,8.84,1,1,7.07,1,10.8-1C40.74,82.5,45.64,63.42,56.59,61.28"/><path class="cls-3" d="M54.7,52.36a22,22,0,0,0-10.42-.54c-5.89,1-11,4.7-14.63,9.3-4.37,5.55-6.66,12.24-9,18.72-.81,2.1-1.89,4.11-2.88,6.21-1.74,3.69-1.79,5,2.76,5.13a19.28,19.28,0,0,0,7-1.22c4.36-1.84,7.8-5.35,10.76-8.93S43.74,73.58,46.51,70a28.6,28.6,0,0,1,7.12-7,26.18,26.18,0,0,1,3-1.67,7.52,7.52,0,0,0-3.48.7,18,18,0,0,0-5.54,4.4c-6.76,7.46-11,18-20.57,22.34a18.18,18.18,0,0,1-6.5,1.11A6.11,6.11,0,0,1,18,89.39h0s0,0,0,0,0,0,0,0a1.09,1.09,0,0,1,0-.19c0-.1,0-.22.07-.33A13.84,13.84,0,0,1,19,86.65c1-2.05,2.09-4.09,3-6.28s1.6-4.3,2.44-6.44c2.46-6.25,5.78-12.45,11.16-16.64A22,22,0,0,1,41.31,54c4.3-1.54,8.84-1.46,13.39-1.64Z"/><path class="cls-4" d="M21.75,87.85c1.7.38,7.36-2.53,10.48-5.53C38.79,76,40.81,67.06,50.89,60.66c1.81-1.14,4-1.63,4.18-2.71.13-.77-1.72-1.51-2.73-1.74-6.1-1.39-13.74.95-18.89,11.31C25.37,83.76,21.31,87.76,21.75,87.85Z"/><path class="cls-5" d="M21.75,87.85c1.7.38,7.36-2.53,10.48-5.53,6.07-5.82,8.25-13.94,16.54-20.19.67-.5,1.37-1,2.12-1.47,1.81-1.14,4-1.63,4.18-2.71.13-.77-1.72-1.51-2.73-1.74-6.1-1.39-13.74.95-18.89,11.31C25.37,83.76,21.31,87.76,21.75,87.85Z"/><path class="cls-6" d="M21.75,87.85c2.81-1.38,13.72-21.15,17.44-25.22s9.92-4.79,10.91-4c.76.6-.24,2.17-1.33,3.51.67-.5,1.37-1,2.12-1.47,1.81-1.14,4-1.63,4.18-2.71.13-.77-1.72-1.51-2.73-1.74-6.1-1.39-13.74.95-18.89,11.31C25.37,83.76,21.31,87.76,21.75,87.85Z"/><path class="cls-3" d="M53.12,60.23a17.68,17.68,0,0,0-1.88,1c-6,3.82-9.1,8.56-12.09,13.15a45.39,45.39,0,0,1-6.47,8.43c-3,2.9-8.92,6.18-11.07,5.7h0a.69.69,0,0,1-.49-.42c-.17-.42,0-.66.81-1.82,1.42-2,5.18-7.46,10.93-19,2.45-4.93,5.61-8.41,9.38-10.35a15,15,0,0,1,10.25-1.31c.14,0,3.5.82,3.22,2.48a1.59,1.59,0,0,1-.09.33C55.29,59.21,54.27,59.69,53.12,60.23Zm-.92-3.38c-3.44-.79-12.08-1.28-18.17,11A143.83,143.83,0,0,1,23,87l-.09.12a24.54,24.54,0,0,0,8.87-5.27,44.65,44.65,0,0,0,6.28-8.2c3.06-4.71,6.23-9.57,12.48-13.54a19.78,19.78,0,0,1,2-1.06c.81-.38,1.73-.81,1.85-1.16A4.62,4.62,0,0,0,52.2,56.85Zm-30.45,31h0Z"/><path class="cls-7" d="M85.24,60.44c1.33,1.43,5.87,7.92,6.86,11,2.08,5.37,4.38,17.88,9.57,17.1A8.1,8.1,0,0,1,98,94s1.34,2.08,1.46,6.53c0,0-2.12-1.91-6.73,1.51-11.83,11.45-46.32,11.32-59.69-1.52,0,0-2-1.32-5.18,1.16,0,0-2.11-4.23.64-6.7,0,0-3.84-3.15-4.57-5.65C35.15,93.3,28.84,74,41.89,59.77c0,0,6.69-6.25,12.93-7.23-4.78.75,12.35-2.16,18.55.19C73.37,52.73,81.94,56,85.24,60.44Z"/><path class="cls-1" d="M85.24,60.44c1.33,1.43,5.87,7.92,6.86,11,2.08,5.37,4.38,17.88,9.57,17.1A8.1,8.1,0,0,1,98,94s1.34,2.08,1.46,6.53c0,0-2.12-1.91-6.73,1.51-11.83,11.45-46.32,11.32-59.69-1.52,0,0-2-1.32-5.18,1.16,0,0-2.11-4.23.64-6.7,0,0-3.84-3.15-4.57-5.65C35.15,93.3,28.84,74,41.89,59.77c0,0,6.69-6.25,12.93-7.23-4.78.75,12.35-2.16,18.55.19C73.37,52.73,81.94,56,85.24,60.44Z"/><path class="cls-8" d="M80.79,75.83C87,75.29,88,87.45,81.87,88S74.62,76.39,80.79,75.83Z"/><path class="cls-9" d="M79.57,78.48c2-.18,2.38,4.36.4,4.54S77.6,78.65,79.57,78.48Z"/><g class="cls-10"><path class="cls-9" d="M84.33,81.7c1.09.38,0,4.11-1.17,3.66s0-4.11,1.17-3.66Z"/></g><path class="cls-8" d="M54.37,74.89c6.17-.54,7.25,11.62,1.09,12.18S48.21,75.45,54.37,74.89Z"/><path class="cls-9" d="M53.15,77.54c2-.18,2.38,4.36.41,4.53S51.18,77.71,53.15,77.54Z"/><g class="cls-10"><path class="cls-9" d="M57.92,80.76c1.08.38,0,4.11-1.18,3.66s0-4.12,1.18-3.66Z"/></g><path class="cls-8" d="M61,92.23c1.75,3.93,4.87,5.81,8.89,3.15,3.33,2.46,6.73.88,7.55-2.61a.33.33,0,0,0-.64-.18c-.56,1.31-2.68,3.21-4.72,2.08-1.59-.63-1.72-1.7-2.78-1-1.63,1.27-3.65,1.93-5.74.2a14.1,14.1,0,0,1-2.06-1.94.29.29,0,0,0-.5.31Z"/><path class="cls-3" d="M70.2,95.24a.92.92,0,0,1-1.09-1.11,12.63,12.63,0,0,0,.27-2.47.92.92,0,0,1,1.83,0C71,93.93,71.16,94.94,70.2,95.24Z"/><path class="cls-8" d="M64.88,94.76c-.47-.31-1,.18-.87.69l-.13,0c1.15,8.7,10.26,7.68,10.86.35a.77.77,0,0,0-.27-.68.78.78,0,0,0-.7-.18c-.91.38-3.2-1-3.38-1.23-1-.58-1,.48-2.69,1.06a3.55,3.55,0,0,1-2.79,0l0-.09Zm.69,1.6a6.34,6.34,0,0,0,4.34-1.14A7.1,7.1,0,0,0,73,96.57c-1.12,4.73-6.17,4.56-7.4-.21Z"/><path class="cls-8" d="M64.63,95.4c1.93,1.23,5.33-.92,5.29-1.1,0,0,2.19,1.86,4,1.45-.07,5.28-7.84,8.28-9.31-.35Z"/><path class="cls-11" d="M85.83,89.78c5.85-.27,6.13,4.66.29,5.07S80,90.18,85.83,89.78Z"/><path class="cls-11" d="M49.72,89.69c5.84.33,5.62,5.27-.23,5.08S43.86,89.5,49.72,89.69Z"/><path class="cls-11" d="M67.05,95.68a6.47,6.47,0,0,0,2.87-1.38,7.54,7.54,0,0,0,2.67,1.41c-.64,3.68-4.88,3.64-5.54,0Z"/><path class="cls-3" d="M70.53,99.33c-2.07.44-3.91-1.12-4.38-3.47a.94.94,0,0,1,.15-.69.87.87,0,0,1,.59-.39,5.66,5.66,0,0,0,2.42-1.16c1.18-.8,1.48.75,3.5,1.2a.91.91,0,0,1,.68,1.06A4.15,4.15,0,0,1,70.53,99.33Zm-2.32-3a1.68,1.68,0,0,0,3.25,0,8.23,8.23,0,0,1-1.54-.85A7.09,7.09,0,0,1,68.21,96.31Z"/><path class="cls-12" d="M67.8,89.19c.52-1,4.48-.61,5.35.1s-1.26,2.61-2.88,2.54c-1.37-.07-2.89-1.89-2.47-2.64Z"/><path class="cls-3" d="M71.06,92.42c-1.85.56-4.6-1.72-3.85-3.56h0c1.11-1.58,5.2-.91,6.36-.09C75,90.24,72.74,92,71.06,92.42ZM68.4,89.51a2.63,2.63,0,0,0,1.9,1.65,3.06,3.06,0,0,0,2.37-1.39C71.91,89.27,69,89.08,68.4,89.51Zm0,0Zm0-.07"/><g class="cls-13"><path class="cls-14" d="M101.58,88.12h-.09a39.16,39.16,0,0,1-6,3.56.94.94,0,0,0-.29,1.47c2.26,2.51,2.61,3.6,2.61,3.6-6.57-1.26-12.4,7.56-29.37,8.59S39.86,100,36.81,97.16s-7.88,0-7.88,0c.24-1.24.82-2.36,2.17-2.45,2.14-.16,1.82-1.12,1.82-1.12-2.46-.34-5.57-2.47-7.89-4.34a8.18,8.18,0,0,1-1.17-.3c.72,2.5,4.56,5.66,4.56,5.66a4.46,4.46,0,0,0-1,5.17c3.16-2.48,5.18-1.16,5.18-1.16,13.4,12.85,47.9,12.94,59.69,1.51,4.61-3.41,6.73-1.5,6.73-1.5a20.49,20.49,0,0,0-.27-2.89c.07.27.14.55.21.87a10,10,0,0,0-1-3A8.16,8.16,0,0,0,101.58,88.12Z"/></g><ellipse class="cls-15" cx="103.96" cy="32.89" rx="0.43" ry="0.3"/><path class="cls-16" d="M101.34,39.54s1.43-2.51.54-4.56,1-3.07,1.42-.77c.43-2.76,2.89-1.47,1.5.55,1.79-1.29,2.34.59.66,1.33a4.17,4.17,0,0,0-2.36,4.3Z"/><g class="cls-17"><path d="M104.5,35.07c-.58,1-1.38.94-1.34-.27-.24.89-.86.94-1.15.56a6.18,6.18,0,0,1-.67,4.18l1.76.85a4.17,4.17,0,0,1,2.36-4.3,1.71,1.71,0,0,0,.94-.86C105.84,35.88,104.33,36.16,104.5,35.07Z"/></g><path class="cls-18" d="M105.66,39c-.06-1.6-4.45-3.06-5.91-2s-2,10.77-.55,11.32S105.78,42.15,105.66,39Z"/><path class="cls-19" d="M105.52,39a1.15,1.15,0,0,0-.11-.39,1.5,1.5,0,0,0-.26-.36,3.29,3.29,0,0,0-.71-.57,6.48,6.48,0,0,0-1.73-.7,5.82,5.82,0,0,0-1.85-.18A2.38,2.38,0,0,0,100,37l-.18.11a.64.64,0,0,0-.13.15,2,2,0,0,0-.22.38A8.29,8.29,0,0,0,99,39.43c-.11.62-.18,1.25-.24,1.88a29.66,29.66,0,0,0-.08,3.77,12.61,12.61,0,0,0,.2,1.85,3.28,3.28,0,0,0,.26.82.54.54,0,0,0,.17.22.36.36,0,0,0,.22,0,2.36,2.36,0,0,0,.72-.4,7.92,7.92,0,0,0,.7-.6,18.38,18.38,0,0,0,1.27-1.37,21.84,21.84,0,0,0,2.13-3.1,11.36,11.36,0,0,0,.79-1.7A5.24,5.24,0,0,0,105.52,39Zm.29,0a5.67,5.67,0,0,1-.33,1.93,15.71,15.71,0,0,1-.75,1.79,20.12,20.12,0,0,1-2.06,3.26,16.11,16.11,0,0,1-1.28,1.46,7.87,7.87,0,0,1-.75.66,3.08,3.08,0,0,1-.93.52,1,1,0,0,1-.71,0,1.07,1.07,0,0,1-.44-.5,4.45,4.45,0,0,1-.3-1,13,13,0,0,1-.18-1.95,24.77,24.77,0,0,1,.19-3.85,17.89,17.89,0,0,1,.31-1.9,8.35,8.35,0,0,1,.58-1.86,2.27,2.27,0,0,1,.27-.44.89.89,0,0,1,.19-.2,2,2,0,0,1,.23-.14,2.71,2.71,0,0,1,1-.24,6,6,0,0,1,1.93.24,7.35,7.35,0,0,1,1.79.74,3.72,3.72,0,0,1,.78.59,1.77,1.77,0,0,1,.31.41A1.45,1.45,0,0,1,105.81,39Z"/><g class="cls-20"><path class="cls-19" d="M100.91,40a18.93,18.93,0,0,0,4.75-.3l0-.25a17,17,0,0,1-6.82,0l-.07.24A11.62,11.62,0,0,0,100.91,40Z"/></g><path class="cls-21" d="M102.59,42a11.14,11.14,0,0,0,2.33-.06l0-.24s-4.11.54-6.2-1.33l-.16.18A6.76,6.76,0,0,0,102.59,42Z"/><path class="cls-21" d="M103.44,44.05l.3,0v-.25s-3.73-.09-5.16-2.29l-.21.14C99.64,43.62,102.49,44,103.44,44.05Z"/><path class="cls-21" d="M100.36,45.49a8.25,8.25,0,0,0,2.66-.31l-.08-.24s-2.77.86-4.5-.31l-.14.21A4.2,4.2,0,0,0,100.36,45.49Z"/><path class="cls-21" d="M101,47.47l0-.25a3.7,3.7,0,0,1-2.48-1.42l-.21.14A4,4,0,0,0,101,47.47Z"/><path class="cls-15" d="M103,38.06c0,.43-3.08.4-3.07,0s.7-.79,1.54-.78S103,37.62,103,38.06Z"/><ellipse class="cls-15" cx="104.46" cy="33.17" rx="0.43" ry="0.3" transform="translate(-0.36 1.16) rotate(-0.63)"/><ellipse class="cls-15" cx="105.81" cy="34.8" rx="0.39" ry="0.3" transform="translate(-0.31 0.96) rotate(-0.52)"/><ellipse class="cls-15" cx="102.39" cy="33.5" rx="0.39" ry="0.3" transform="translate(-2.45 8.71) rotate(-4.81)"/><path class="cls-22" d="M73,100.41a1.38,1.38,0,0,0-1.31-1.47,1.24,1.24,0,0,0-.47,0,2.12,2.12,0,0,0-3.52.1,1.39,1.39,0,0,0-2.41.88l-.07,1.16a.78.78,0,0,0,.73.82.77.77,0,0,0,.81-.73.78.78,0,0,1,1.55.09l-.18,3.08a.77.77,0,0,0,.73.82.76.76,0,0,0,.81-.73l.09-1.54a.78.78,0,0,1,.82-.73.77.77,0,0,1,.72.82c0,.43.31.62.74.64a.77.77,0,0,0,.82-.73Zm-.14,2.53"/><path class="cls-23" d="M67.59,99.89a.77.77,0,0,0-.82.72.77.77,0,0,1-.82.73.76.76,0,0,1-.72-.81l0,.6a.78.78,0,0,0,.73.82.77.77,0,0,0,.81-.73.78.78,0,0,1,1.55.09l0-.61a.76.76,0,0,0-.72-.81Zm3,1.72a.76.76,0,0,0-.81.72l0,.61a.78.78,0,0,1,1.55.09c0,.43.3.62.73.64a.77.77,0,0,0,.82-.73l0-.6a.77.77,0,0,1-.81.73c-.43,0-.76-.22-.74-.65a.77.77,0,0,0-.73-.81Zm-.9,2.27a.77.77,0,0,1-.82.72.76.76,0,0,1-.72-.81l0,.6a.77.77,0,0,0,.73.82.76.76,0,0,0,.81-.73l0-.6Zm0,0"/><path class="cls-24" d="M69.59,98a2.27,2.27,0,0,0-1.94.92,1.52,1.52,0,0,0-.91-.36A1.54,1.54,0,0,0,65.12,100l-.07,1.16a.91.91,0,1,0,1.82.11.64.64,0,1,1,1.27.07L68,104.39a.91.91,0,0,0,1.82.1l.09-1.54a.63.63,0,0,1,.67-.6.64.64,0,0,1,.6.67.66.66,0,0,0,.25.59,1.06,1.06,0,0,0,.61.2.92.92,0,0,0,1-.86l.14-2.53a1.54,1.54,0,0,0-1.45-1.62,1.39,1.39,0,0,0-.41,0A2.26,2.26,0,0,0,69.59,98Zm0,.28a2,2,0,0,1,1.51.83l0,.08.1,0a1.47,1.47,0,0,1,.42-.05,1.27,1.27,0,0,1,1.19,1.34l-.15,2.53a.63.63,0,0,1-.67.59.81.81,0,0,1-.46-.14.38.38,0,0,1-.15-.35.91.91,0,0,0-1.82-.11l-.08,1.55a.64.64,0,0,1-1.27-.08l.18-3.08a.91.91,0,0,0-1.82-.11.64.64,0,1,1-1.27-.07L65.4,100a1.26,1.26,0,0,1,1.33-1.19,1.27,1.27,0,0,1,.84.39l.12.13.09-.15a2,2,0,0,1,1.79-.92Zm0,0"/><path class="cls-1" d="M71.85,99.84a.25.25,0,0,1,.27-.23.24.24,0,0,1,.23.26.21.21,0,0,1-.08.17.25.25,0,0,1-.18.06.21.21,0,0,1-.17-.08.24.24,0,0,1-.07-.18Zm0,0"/><path class="cls-1" d="M69.51,98.79a.27.27,0,0,1,.19-.15.63.63,0,0,1,.33,0,.58.58,0,0,1,.29.18.26.26,0,0,1,.06.23c0,.15-.28.2-.52.12s-.4-.26-.35-.41Zm0,0"/><path class="cls-3" d="M80.14,71.8a11.1,11.1,0,0,0,1.61,2.78A10.6,10.6,0,0,0,84,76.74a24.65,24.65,0,0,0,2.69,1.41c.43.28.91.46,1.38.74a11.64,11.64,0,0,1,1.46.83l0,.17A6.1,6.1,0,0,1,86,79.78a7.09,7.09,0,0,1-2.92-2,10.29,10.29,0,0,1-3.11-6Z"/><path class="cls-3" d="M56.27,70.46a10.35,10.35,0,0,1-3.1,6,7.15,7.15,0,0,1-2.92,2,6.22,6.22,0,0,1-3.5.11.08.08,0,0,1-.06-.11.07.07,0,0,1,0-.06h0a11.72,11.72,0,0,1,1.47-.83c.46-.29.94-.46,1.37-.74a24.65,24.65,0,0,0,2.69-1.41,10.37,10.37,0,0,0,2.23-2.16,10.52,10.52,0,0,0,1.61-2.78h0a.09.09,0,0,1,.12,0A.07.07,0,0,1,56.27,70.46Z"/></svg>