<svg id="a" xmlns="http://www.w3.org/2000/svg" viewBox="0 0 128 128"><defs><style>.cls-1{fill:#f2f2f2;}.cls-2{fill:#e2e2e2;}.cls-3,.cls-6{fill:#fff;}.cls-4{fill:none;stroke:#231f20;stroke-linecap:round;stroke-linejoin:round;stroke-width:2.99px;}.cls-10,.cls-5{fill:#231f20;}.cls-5,.cls-6,.cls-8{fill-rule:evenodd;}.cls-7{opacity:0.35;}.cls-14,.cls-8{fill:#ffb0cb;}.cls-9{fill:#ff78a7;}.cls-11{opacity:0.2;}.cls-12{fill:#52525b;}.cls-13{fill:#ff8080;}.cls-15{fill:#ff5fa0;}</style></defs><path class="cls-1" d="M94.28,56.75l1.58-1.68a2.06,2.06,0,0,1-2.42-1.71c-.41-2.08,2.45-3,3.42-2.4,0,0-1.25-3.62,1.52-4.56s4.68,1.59,4.56,2.76c0,0,2.61-.46,3.81,1.39s-1.82,3.36-1.82,3.36,1.75,2,.23,3.83-4.71,1.25-6.06,0L97,59.91A4,4,0,0,1,94.28,56.75Z"/><path class="cls-2" d="M102.94,49.16c.12-1.17-1.79-3.71-4.56-2.76S96.86,51,96.86,51c-1-.6-3.83.32-3.42,2.4a2.06,2.06,0,0,0,2.42,1.71l-1.58,1.68A4,4,0,0,0,97,59.91l.57-.57c-.74-.54-1.67-1.38-1.66-2.15a6.26,6.26,0,0,1,1-2.73c-1,.38-2.81-.92-1.94-2s2.91-.32,2.91-.32-1.36-4,.78-4.7S102.94,49.16,102.94,49.16Z"/><path class="cls-3" d="M98.53,52.67s-.8-3.63.54-4.4,3.7,1.74,3.7,1.74,2.52-.57,3.28.82-2.14,2.82-2.14,2.82,1.81,2.42.23,3.83-4.83-1-4.83-1-1.17,1.65-2,1.41.47-4.07.47-4.07-2.19.46-2.17-.7S98.53,52.67,98.53,52.67Z"/><path class="cls-4" d="M86.25,59.53c1.36,1.45,6,8.06,7,11.22C95.36,76.21,97.7,89,103,88.16a8.32,8.32,0,0,1-3.72,5.59s1.36,2.11,1.48,6.64c0,0-2.15-2-6.85,1.53-12.05,11.66-47.16,11.53-60.78-1.54,0,0-2.06-1.35-5.27,1.18,0,0-2.15-4.3.65-6.82,0,0-3.91-3.21-4.65-5.76,11.4,4,5-15.66,18.26-30.13,0,0,6.82-6.37,13.16-7.37-4.85.77,12.58-2.19,18.9.2C74.17,51.68,82.89,55,86.25,59.53Z"/><path class="cls-3" d="M86.25,59.53c1.36,1.45,6,8.06,7,11.22C95.36,76.21,97.7,89,103,88.16a8.32,8.32,0,0,1-3.72,5.59s1.36,2.11,1.48,6.64c0,0-2.15-2-6.85,1.53-12.05,11.66-47.16,11.53-60.78-1.54,0,0-2.06-1.35-5.27,1.18,0,0-2.15-4.3.65-6.82,0,0-3.91-3.21-4.65-5.76,11.4,4,5-15.66,18.26-30.13,0,0,6.82-6.37,13.16-7.37-4.85.77,12.58-2.19,18.9.2C74.17,51.68,82.89,55,86.25,59.53Z"/><path class="cls-5" d="M81.72,75.2C88,74.65,89.1,87,82.82,87.6S75.44,75.77,81.72,75.2Z"/><path class="cls-6" d="M80.48,77.9c2-.19,2.42,4.44.41,4.62S78.47,78.07,80.48,77.9Z"/><g class="cls-7"><path class="cls-6" d="M85.33,81.18c1.1.38,0,4.19-1.2,3.72s0-4.19,1.2-3.72Z"/></g><path class="cls-5" d="M52.41,74.38c6.28-.54,7.38,11.83,1.1,12.4S46.13,75,52.41,74.38Z"/><path class="cls-6" d="M51.17,77.08c2-.18,2.42,4.44.41,4.62S49.16,77.25,51.17,77.08Z"/><g class="cls-7"><path class="cls-6" d="M56,80.36c1.1.38,0,4.19-1.2,3.73s0-4.19,1.2-3.73Z"/></g><path class="cls-8" d="M86.85,89.4c6-.27,6.24,4.75.3,5.16S80.9,89.81,86.85,89.4Z"/><path class="cls-8" d="M50.08,89.32c6,.33,5.73,5.36-.23,5.16S44.12,89.12,50.08,89.32Z"/><path class="cls-9" d="M68.49,88.8c.54-1,4.56-.62,5.45.11S72.66,91.57,71,91.49c-1.39-.07-2.94-1.93-2.52-2.69Z"/><path class="cls-10" d="M71.82,92.09c-1.89.57-4.69-1.75-3.93-3.62h0c1.14-1.61,5.29-.93,6.48-.09C75.79,89.87,73.53,91.68,71.82,92.09Zm-2.72-3A2.71,2.71,0,0,0,71,90.81a3.11,3.11,0,0,0,2.41-1.42C72.68,88.88,69.67,88.69,69.1,89.13Zm0,0Zm0-.06"/><g class="cls-11"><path class="cls-12" d="M102.89,87.71h-.09a40.34,40.34,0,0,1-6.16,3.63,1,1,0,0,0-.29,1.5C98.65,95.4,99,96.51,99,96.51c-6.69-1.29-12.63,7.7-29.9,8.75S40,99.79,36.94,96.91s-8,0-8,0c.24-1.26.83-2.41,2.21-2.5,2.18-.16,1.84-1.14,1.84-1.14-2.5-.34-5.66-2.51-8-4.42a8.47,8.47,0,0,1-1.2-.3c.74,2.55,4.65,5.76,4.65,5.76a4.52,4.52,0,0,0-1,5.26c3.22-2.52,5.27-1.18,5.27-1.18,13.64,13.09,48.78,13.18,60.78,1.54,4.7-3.47,6.86-1.53,6.86-1.53a19.46,19.46,0,0,0-.29-2.93c.08.26.15.56.22.88a9.91,9.91,0,0,0-1.07-3A8.3,8.3,0,0,0,102.89,87.71Z"/></g><path class="cls-3" d="M73.29,62.4c3.25-10.52-9.79-21.29-13.82-26.25C52.79,27.94,54,20.69,56,19.93c2.17-.82,3.62,2,10.42,5.61,4,2.15,20,8.52,20.68,24.67.36,8.59-2.63,14-5.18,15.92"/><path class="cls-10" d="M81.9,66.91a.74.74,0,0,0,.46-.16c2.76-2.09,5.86-7.69,5.49-16.57a24.19,24.19,0,0,0-8.1-17A46.65,46.65,0,0,0,68.1,25.54l-1.34-.68A49.92,49.92,0,0,1,60.64,21c-2.06-1.48-3.3-2.38-4.94-1.76a3.4,3.4,0,0,0-1.79,2.46c-.83,3.08,0,8.85,5,15,.75.92,1.77,2,3,3.27C67.09,45.51,75.07,54,72.54,62.17a.79.79,0,0,0,.52,1,.77.77,0,0,0,1-.51c2.8-9.05-5.55-17.92-11.08-23.79-1.16-1.24-2.17-2.31-2.88-3.18C55.46,30,54.68,24.79,55.42,22.07c.26-1,.64-1.34.83-1.41.82-.31,1.53.16,3.47,1.57a51.65,51.65,0,0,0,6.3,4l1.39.7C72.88,29.65,85.7,36,86.29,50.24,86.66,59.1,83.4,64,81.42,65.51a.77.77,0,0,0-.15,1.09A.74.74,0,0,0,81.9,66.91Z"/><path class="cls-13" d="M58.3,24.14c0,.25.07.5.1.74.57,3.85,1.68,7.27,10.45,14.24a24.9,24.9,0,0,1,9.66,18.41c.36,3.37,3.3,4.61,4.11,2.77,2.19-5,2.23-13.54.06-17.66-4.48-8.47-13.87-10.95-20-15.16C60.15,25.69,58.3,24.14,58.3,24.14Z"/><path class="cls-14" d="M58.3,24.14c0,.25.07.5.1.74.09.6.19,1.19.34,1.79,0,0,0,0,0,.07s0,.19.08.29v0c.83,3.1,2.91,6.41,10,12.06a24.89,24.89,0,0,1,9.67,18.41c.36,3.37,3.3,4.61,4.11,2.77A25,25,0,0,0,84.27,50a.11.11,0,0,1,0-.05v0a17.81,17.81,0,0,0-1.58-7.26c-4.48-8.47-13.87-10.95-20-15.16C60.15,25.69,58.3,24.14,58.3,24.14Z"/><path class="cls-15" d="M58.84,27.06c.83,3.1,2.91,6.41,10,12.06a24.89,24.89,0,0,1,9.67,18.41c.36,3.37,3.3,4.61,4.11,2.77A25,25,0,0,0,84.27,50c0,.72-.13,4.52-2.43,3.83-2.68-.81-2.38-7.92-7.79-13.26C69.4,36,60.66,33.71,58.84,27.06Z"/><path class="cls-10" d="M81,61.81c-1.38-.22-2.92-1.73-3.19-4.21l0-.34a24.12,24.12,0,0,0-9.38-17.6c-9-7.12-10.11-10.72-10.69-14.67,0-.25-.08-.5-.11-.76a.68.68,0,0,1,.35-.69.7.7,0,0,1,.77.08s1.86,1.55,4.38,3.3a57,57,0,0,0,5.82,3.35C74.12,33,80,36.1,83.28,42.32c2.28,4.31,2.26,13,0,18.25a2,2,0,0,1-1.83,1.27ZM69.27,38.59a25.38,25.38,0,0,1,9.89,18.53l0,.33c.19,1.78,1.19,2.87,2,3A.65.65,0,0,0,82,60c2.12-4.83,2.16-13.12.08-17.06C79,37.12,73.55,34.25,68.3,31.48a57.36,57.36,0,0,1-6-3.44c-1.24-.86-2.31-1.66-3.09-2.27C59.88,29.07,61.49,32.4,69.27,38.59Z"/><path class="cls-3" d="M45.49,62.4c3.25-10.52-9.79-21.29-13.83-26.25C25,27.94,26.17,20.69,28.17,19.93c2.17-.82,3.61,2,10.42,5.61,4,2.15,20,8.52,20.68,24.67.35,8.59-2.63,14-5.18,15.92"/><path class="cls-10" d="M54.1,66.91a.74.74,0,0,0,.46-.16c2.76-2.09,5.86-7.69,5.49-16.57a24.16,24.16,0,0,0-8.11-17A46.62,46.62,0,0,0,40.3,25.54L39,24.86A49.92,49.92,0,0,1,32.84,21c-2.06-1.48-3.3-2.38-5-1.76a3.42,3.42,0,0,0-1.78,2.46c-.83,3.08,0,8.85,4.95,15,.75.92,1.77,2,2.95,3.27C39.29,45.51,47.27,54,44.74,62.17a.78.78,0,0,0,1.49.46c2.8-9.05-5.55-17.92-11.08-23.79C34,37.6,33,36.53,32.27,35.66,27.66,30,26.88,24.79,27.62,22.07c.26-1,.64-1.34.82-1.41.82-.31,1.54.16,3.48,1.57a51.65,51.65,0,0,0,6.3,4c.37.2.84.43,1.38.7C45.08,29.65,57.9,36,58.49,50.24,58.86,59.1,55.6,64,53.61,65.51a.78.78,0,0,0-.15,1.09A.77.77,0,0,0,54.1,66.91Z"/><path class="cls-13" d="M30.49,24.14c0,.25.07.5.11.74.57,3.85,1.68,7.27,10.44,14.24a24.93,24.93,0,0,1,9.67,18.41c.36,3.37,3.29,4.61,4.1,2.77,2.19-5,2.24-13.54.07-17.66C50.4,34.17,41,31.69,34.93,27.48,32.35,25.69,30.49,24.14,30.49,24.14Z"/><path class="cls-14" d="M30.49,24.14c0,.25.07.5.11.74.09.6.19,1.19.33,1.79a.14.14,0,0,1,0,.07c0,.09.05.19.08.29v0c.84,3.1,2.91,6.41,10,12.06a25,25,0,0,1,9.67,18.41c.36,3.37,3.29,4.61,4.1,2.77A24.88,24.88,0,0,0,56.46,50V49.9a17.8,17.8,0,0,0-1.59-7.26C50.4,34.17,41,31.69,34.93,27.48,32.35,25.69,30.49,24.14,30.49,24.14Z"/><path class="cls-15" d="M31,27.06c.84,3.1,2.91,6.41,10,12.06a25,25,0,0,1,9.67,18.41c.36,3.37,3.29,4.61,4.1,2.77A24.88,24.88,0,0,0,56.46,50c0,.72-.12,4.52-2.42,3.83-2.69-.81-2.39-7.92-7.79-13.26C41.6,36,32.85,33.71,31,27.06Z"/><path class="cls-10" d="M53.22,61.81c-1.39-.22-2.93-1.73-3.19-4.21l0-.34a24.06,24.06,0,0,0-9.37-17.6C31.67,32.54,30.51,28.94,29.92,25c0-.25-.07-.5-.1-.76a.69.69,0,0,1,.34-.69.7.7,0,0,1,.77.08s1.87,1.55,4.39,3.3a57.85,57.85,0,0,0,5.81,3.35C46.32,33,52.19,36.1,55.48,42.32c2.28,4.31,2.26,13,0,18.25a2,2,0,0,1-1.83,1.27ZM41.47,38.59a25.38,25.38,0,0,1,9.89,18.53l0,.33c.19,1.78,1.19,2.87,2,3a.67.67,0,0,0,.77-.44c2.12-4.83,2.16-13.12.08-17.06-3.09-5.84-8.52-8.71-13.78-11.48a58.24,58.24,0,0,1-6-3.44c-1.24-.86-2.31-1.66-3.1-2.27C32.08,29.07,33.69,32.4,41.47,38.59Z"/><path class="cls-10" d="M75.08,95.59c-2.8-2.62-7.72,1.22-9.34,3.63-.25.37.31.8.61.48C68,97.91,72,94,74.6,96.07c.33.27.81-.18.48-.48Z"/><path class="cls-10" d="M50.76,85.91a4.71,4.71,0,0,0-1.89.74.8.8,0,0,0-.36.53.6.6,0,0,0,.33.52c.59.36,1.34,0,2-.27a5.89,5.89,0,0,1,4.89-.11,2.23,2.23,0,0,0,1,.35c.67,0,.75-.57.33-.9A5.69,5.69,0,0,0,55,86,10.06,10.06,0,0,0,50.76,85.91Z"/><path class="cls-10" d="M85.81,86.61a4.57,4.57,0,0,1,1.89.74.78.78,0,0,1,.36.53.61.61,0,0,1-.33.52c-.59.36-1.34,0-2-.28A5.86,5.86,0,0,0,80.88,88a2.33,2.33,0,0,1-1,.36c-.67,0-.75-.57-.33-.9a5.69,5.69,0,0,1,2-.74A9.89,9.89,0,0,1,85.81,86.61Z"/><path class="cls-10" d="M58.78,78.51a4,4,0,0,1-2.26-.74A16.14,16.14,0,0,1,54,75.9a7.6,7.6,0,0,1-2.64-4,1.06,1.06,0,0,1,0-.61.5.5,0,0,1,.5-.33.76.76,0,0,1,.36.2c.74.63,1.3,1.44,2,2.13A13.9,13.9,0,0,0,58.66,76c.54.23,1.59.55,1.65,1.23S59.42,78.47,58.78,78.51Z"/><path class="cls-10" d="M77.5,78.51a4,4,0,0,0,2.26-.74A16.14,16.14,0,0,0,82.3,75.9a7.6,7.6,0,0,0,2.64-4,1.06,1.06,0,0,0,0-.61.49.49,0,0,0-.5-.33.69.69,0,0,0-.35.2c-.75.63-1.31,1.44-2,2.13A13.9,13.9,0,0,1,77.62,76c-.54.23-1.59.55-1.65,1.23S76.86,78.47,77.5,78.51Z"/><path class="cls-10" d="M34.21,59.1c-.68-.55-1.36-1.11-2.05-1.65a7.56,7.56,0,0,0-1.88-1.31.46.46,0,0,0-.52.67,8.17,8.17,0,0,0,1.84,1.62l2,1.51c.48.36,1.12-.45.65-.84Z"/><path class="cls-10" d="M31.37,63.48c-.77-.2-1.54-.43-2.28-.7A5.46,5.46,0,0,0,27,62.11c-.26,0-.52.32-.33.58a3.69,3.69,0,0,0,1.83,1,23.79,23.79,0,0,0,2.56.82.56.56,0,0,0,.3-1.07Z"/><path class="cls-10" d="M30.24,67.94a4.59,4.59,0,0,0-2.12.14.46.46,0,0,0,0,.78,4.33,4.33,0,0,0,2.12.14.53.53,0,0,0,0-1.06Z"/></svg>