<svg id="a" xmlns="http://www.w3.org/2000/svg" viewBox="0 0 128 128"><defs><style>.cls-1,.cls-8{fill:#fff;}.cls-2,.cls-7{fill:#231f20;}.cls-3{fill:#ff8080;}.cls-10,.cls-4{fill:#ffb0cb;}.cls-5{fill:#ff5fa0;}.cls-6{fill:none;stroke:#231f20;stroke-linecap:round;stroke-linejoin:round;stroke-width:3.01px;}.cls-10,.cls-7,.cls-8{fill-rule:evenodd;}.cls-9{opacity:0.35;}.cls-11{fill:#ff78a7;}.cls-12{opacity:0.2;}.cls-13{fill:#52525b;}.cls-14{fill:#9cd6e7;}.cls-15{fill:#fffafc;}</style></defs><path class="cls-1" d="M73.85,53.86c5.92-.82,11.54-.22,15.55,1.68,12.78,6,16.35,21.34,19.06,27.65,1.64,3.83,4.35,8.19,3.54,9.06-1,1.07-7.25,1-11.07-1C88.15,84.73,83.12,65.2,71.91,63"/><path class="cls-2" d="M73.85,53.86a22.49,22.49,0,0,1,10.66-.55c6,1,11.32,4.81,15,9.53,4.48,5.68,6.82,12.53,9.27,19.17.83,2.14,1.94,4.21,3,6.36,1.78,3.78,1.84,5.15-2.83,5.26a20,20,0,0,1-7.18-1.26c-4.46-1.88-8-5.48-11-9.14S85.07,75.6,82.24,71.9a29.16,29.16,0,0,0-7.3-7.19,25.11,25.11,0,0,0-3-1.71,7.77,7.77,0,0,1,3.57.71,18.63,18.63,0,0,1,5.67,4.51c6.92,7.65,11.23,18.48,21.06,22.88a18.67,18.67,0,0,0,6.66,1.14,6.25,6.25,0,0,0,2.6-.45h0l0,0,0,0a.6.6,0,0,0,0-.2,3,3,0,0,0-.07-.34,14.84,14.84,0,0,0-.94-2.32c-1-2.1-2.14-4.18-3-6.42s-1.64-4.42-2.51-6.6c-2.51-6.41-5.91-12.75-11.42-17a22.78,22.78,0,0,0-5.91-3.37c-4.4-1.57-9-1.49-13.71-1.68Z"/><path class="cls-3" d="M107.59,90.22c-1.74.38-7.53-2.6-10.73-5.67-6.72-6.45-8.78-15.63-19.12-22.18-1.84-1.18-4.09-1.67-4.27-2.79-.13-.78,1.76-1.54,2.79-1.77,6.25-1.43,14.08,1,19.35,11.58C103.88,86,108,90.12,107.59,90.22Z"/><path class="cls-4" d="M107.59,90.22c-1.74.38-7.53-2.6-10.73-5.67-6.22-6-8.45-14.28-16.94-20.68-.68-.52-1.41-1-2.18-1.5-1.85-1.18-4.09-1.67-4.27-2.79-.13-.78,1.76-1.54,2.79-1.77,6.25-1.42,14.08,1,19.35,11.58C103.88,86,108,90.12,107.59,90.22Z"/><path class="cls-5" d="M107.59,90.22c-2.88-1.42-14-21.67-17.86-25.84s-10.16-4.9-11.17-4.1c-.78.61.24,2.22,1.36,3.59-.68-.52-1.41-1-2.18-1.5-1.85-1.18-4.09-1.67-4.27-2.79-.13-.78,1.76-1.54,2.79-1.77,6.25-1.42,14.08,1,19.35,11.58C103.88,86,108,90.12,107.59,90.22Z"/><path class="cls-2" d="M72.9,60a1.69,1.69,0,0,1-.09-.34c-.29-1.7,3.16-2.5,3.3-2.54a15.31,15.31,0,0,1,10.5,1.34c3.86,2,7.09,5.55,9.6,10.6,5.89,11.84,9.75,17.39,11.2,19.48.83,1.19,1,1.44.83,1.87a.68.68,0,0,1-.51.43h0c-2.2.49-8.25-2.87-11.34-5.84a46.76,46.76,0,0,1-6.62-8.63c-3.06-4.7-6.22-9.56-12.38-13.47a17.56,17.56,0,0,0-1.92-1C74.28,61.37,73.25,60.88,72.9,60Zm1.24-.51c.12.37,1.07.81,1.9,1.2A19.61,19.61,0,0,1,78.1,61.8c6.41,4.06,9.65,9,12.79,13.87a45.15,45.15,0,0,0,6.43,8.4,25,25,0,0,0,9.08,5.39l-.09-.12A148.93,148.93,0,0,1,95,69.69c-6.24-12.54-15.09-12-18.61-11.23A4.89,4.89,0,0,0,74.14,59.52Zm33.45,30.7Z"/><path class="cls-1" d="M56.9,53.35C51,52.53,45.35,53.13,41.34,55,28.57,61.07,25,76.37,22.29,82.68c-1.65,3.83-4.36,8.19-3.55,9.06,1,1.06,7.25,1,11.07-1,12.79-6.54,17.81-26.08,29-28.27"/><path class="cls-2" d="M56.9,53.35a22.54,22.54,0,0,0-10.67-.55c-6,1-11.32,4.81-15,9.52C26.76,68,24.42,74.85,22,81.5,21.14,83.64,20,85.7,19,87.86c-1.78,3.77-1.83,5.14,2.83,5.25A19.75,19.75,0,0,0,29,91.86c4.47-1.89,8-5.48,11-9.15s5.62-7.62,8.46-11.32a29.5,29.5,0,0,1,7.29-7.2,27.55,27.55,0,0,1,3-1.7,7.74,7.74,0,0,0-3.57.71,18.67,18.67,0,0,0-5.68,4.51c-6.92,7.64-11.23,18.48-21.06,22.88a18.4,18.4,0,0,1-6.66,1.13,6.07,6.07,0,0,1-2.59-.44l0,0h0l0,0s0,0,0,0a1.18,1.18,0,0,1,0-.2c0-.1,0-.22.07-.34a14.84,14.84,0,0,1,.94-2.32c1-2.1,2.14-4.18,3-6.43s1.64-4.41,2.51-6.6c2.51-6.4,5.92-12.75,11.42-17A22.5,22.5,0,0,1,43.18,55c4.41-1.57,9.06-1.49,13.72-1.68Z"/><path class="cls-3" d="M23.16,89.71c1.73.38,7.52-2.6,10.73-5.67C40.6,77.59,42.67,68.4,53,61.85c1.85-1.17,4.09-1.67,4.28-2.78.13-.78-1.76-1.54-2.8-1.78-6.24-1.42-14.08,1-19.35,11.59C26.86,85.51,22.7,89.6,23.16,89.71Z"/><path class="cls-4" d="M23.15,89.7c1.74.39,7.53-2.59,10.74-5.66,6.21-6,8.44-14.28,16.94-20.68.68-.52,1.4-1,2.17-1.51,1.85-1.17,4.09-1.67,4.28-2.78.13-.78-1.76-1.54-2.8-1.78-6.24-1.42-14.08,1-19.35,11.59C26.86,85.51,22.7,89.6,23.15,89.7Z"/><path class="cls-5" d="M23.15,89.7C26,88.28,37.2,68,41,63.87s10.17-4.9,11.18-4.1c.77.61-.24,2.22-1.36,3.59.68-.52,1.4-1,2.17-1.51,1.85-1.17,4.09-1.67,4.28-2.78.13-.78-1.76-1.54-2.8-1.78-6.24-1.42-14.08,1-19.35,11.59C26.86,85.51,22.7,89.6,23.15,89.7Z"/><path class="cls-2" d="M55.28,61.41a18.52,18.52,0,0,0-1.92,1C47.2,66.32,44,71.19,41,75.89a46.33,46.33,0,0,1-6.62,8.63c-3.09,3-9.14,6.33-11.34,5.84h0a.73.73,0,0,1-.51-.44c-.16-.42,0-.67.83-1.86,1.46-2.09,5.31-7.64,11.2-19.48C37,63.53,40.27,60,44.14,58a15.28,15.28,0,0,1,10.49-1.34c.15,0,3.59.84,3.31,2.54a1.91,1.91,0,0,1-.1.34C57.5,60.37,56.46,60.86,55.28,61.41Zm-1-3.47c-3.51-.8-12.37-1.3-18.6,11.23C29.8,81.1,25.9,86.71,24.43,88.82l-.09.13a24.94,24.94,0,0,0,9.08-5.4,45.41,45.41,0,0,0,6.43-8.39c3.14-4.82,6.39-9.81,12.79-13.87a17.21,17.21,0,0,1,2.07-1.08c.83-.39,1.77-.83,1.9-1.2A5.09,5.09,0,0,0,54.33,57.94ZM23.15,89.71Z"/><path class="cls-6" d="M88.17,61.63c1.37,1.46,6,8.11,7,11.28,2.14,5.5,4.49,18.31,9.81,17.51A8.33,8.33,0,0,1,101.27,96s1.37,2.13,1.5,6.69c0,0-2.18-2-6.9,1.54-12.12,11.73-47.44,11.6-61.14-1.55,0,0-2.06-1.36-5.3,1.18,0,0-2.16-4.32.65-6.86,0,0-3.93-3.22-4.67-5.79,11.46,4,5-15.76,18.37-30.31,0,0,6.85-6.4,13.24-7.41-4.89.77,12.65-2.2,19,.2C76,53.73,84.8,57,88.17,61.63Z"/><path class="cls-1" d="M88.17,61.63c1.37,1.46,6,8.11,7,11.28,2.14,5.5,4.49,18.31,9.81,17.51A8.33,8.33,0,0,1,101.27,96s1.37,2.13,1.5,6.69c0,0-2.18-2-6.9,1.54-12.12,11.73-47.44,11.6-61.14-1.55,0,0-2.06-1.36-5.3,1.18,0,0-2.16-4.32.65-6.86,0,0-3.93-3.22-4.67-5.79,11.46,4,5-15.76,18.37-30.31,0,0,6.85-6.4,13.24-7.41-4.89.77,12.65-2.2,19,.2C76,53.73,84.8,57,88.17,61.63Z"/><path class="cls-7" d="M83.62,77.39c6.31-.55,7.42,11.9,1.11,12.47S77.3,78,83.62,77.39Z"/><path class="cls-8" d="M82.37,80.1c2-.18,2.43,4.47.41,4.65S80.35,80.28,82.37,80.1Z"/><g class="cls-9"><path class="cls-8" d="M87.25,83.4c1.11.39,0,4.21-1.21,3.75s0-4.21,1.21-3.75Z"/></g><path class="cls-7" d="M56.56,76.43c6.32-.55,7.43,11.89,1.11,12.47S50.25,77,56.56,76.43Z"/><path class="cls-8" d="M55.31,79.14c2-.19,2.44,4.47.42,4.64S53.29,79.31,55.31,79.14Z"/><g class="cls-9"><path class="cls-8" d="M60.19,82.44c1.11.38,0,4.21-1.2,3.75s0-4.22,1.2-3.75Z"/></g><path class="cls-7" d="M63.39,94.18c1.79,4,5,6,9.11,3.23,3.41,2.53,6.89.9,7.74-2.67a.34.34,0,0,0-.66-.19c-.58,1.34-2.75,3.3-4.84,2.13-1.63-.64-1.76-1.74-2.84-1-1.68,1.3-3.75,2-5.89.2a15.08,15.08,0,0,1-2.11-2,.3.3,0,0,0-.51.31Z"/><path class="cls-2" d="M72.78,97.27a1,1,0,0,1-1.12-1.14,14.25,14.25,0,0,0,.27-2.53.94.94,0,0,1,1.88.05C73.62,95.93,73.75,97,72.78,97.27Z"/><path class="cls-10" d="M88.78,91.68c6-.28,6.28,4.77.3,5.19C83.08,97.14,82.79,92.09,88.78,91.68Z"/><path class="cls-10" d="M51.79,91.59c6,.33,5.77,5.39-.23,5.19S45.8,91.39,51.79,91.59Z"/><path class="cls-10" d="M69.55,97.72a6.75,6.75,0,0,0,2.94-1.41,7.77,7.77,0,0,0,2.74,1.44c-.67,3.77-5,3.73-5.68,0Z"/><path class="cls-11" d="M70.31,91.07c.54-1,4.59-.62,5.48.11s-1.28,2.67-3,2.59c-1.39-.06-3-1.93-2.53-2.7Z"/><path class="cls-2" d="M73.66,94.38c-1.9.57-4.72-1.77-4-3.64h0c1.14-1.62,5.32-.93,6.52-.1C77.65,92.14,75.38,94,73.66,94.38Zm-2.73-3a2.68,2.68,0,0,0,1.95,1.69,3.11,3.11,0,0,0,2.42-1.42C74.52,91.15,71.5,91,70.93,91.4Zm0,0Zm0-.07"/><g class="cls-12"><path class="cls-13" d="M104.91,90h-.09a41.17,41.17,0,0,1-6.2,3.65,1,1,0,0,0-.29,1.5c2.32,2.57,2.67,3.68,2.67,3.68-6.73-1.29-12.7,7.75-30.08,8.8s-29.22-5.49-32.34-8.39-8.07,0-8.07,0c.24-1.27.84-2.43,2.22-2.52,2.19-.15,1.86-1.14,1.86-1.14-2.52-.35-5.7-2.53-8.08-4.45a9,9,0,0,1-1.2-.3C26.05,93.37,30,96.6,30,96.6a4.54,4.54,0,0,0-1,5.29c3.24-2.54,5.31-1.18,5.31-1.18C48,113.88,83.34,114,95.42,102.26c4.72-3.5,6.9-1.54,6.9-1.54a21.33,21.33,0,0,0-.29-3c.08.27.15.57.22.89a10.06,10.06,0,0,0-1.08-3.05A8.35,8.35,0,0,0,104.91,90Z"/></g><path class="cls-2" d="M82.05,74.65A11.38,11.38,0,0,0,84.38,77a10.88,10.88,0,0,0,2.79,1.53,25.36,25.36,0,0,0,3,.68c.5.16,1,.2,1.56.36a12.11,12.11,0,0,1,1.67.43l0,.18A6.35,6.35,0,0,1,90,81a7.31,7.31,0,0,1-3.41-1.16,10.57,10.57,0,0,1-4.67-5.08Z"/><path class="cls-2" d="M78.45,84.9a11.14,11.14,0,0,0,2.33,2.32,10.91,10.91,0,0,0,2.79,1.54,25.31,25.31,0,0,0,3,.67c.5.16,1,.21,1.56.36a13.73,13.73,0,0,1,1.67.43l0,.18a6.44,6.44,0,0,1-3.49.83A7.35,7.35,0,0,1,83,90.07a10.45,10.45,0,0,1-2.79-2.18A10.69,10.69,0,0,1,78.29,85Z"/><path class="cls-2" d="M62.42,84.83a10.57,10.57,0,0,1-4.67,5.08,7.31,7.31,0,0,1-3.41,1.16,6.4,6.4,0,0,1-3.48-.82l0-.18a12.11,12.11,0,0,1,1.67-.43c.54-.16,1.06-.2,1.56-.36a24.52,24.52,0,0,0,3-.68,10.46,10.46,0,0,0,2.79-1.54,11.09,11.09,0,0,0,2.33-2.31Z"/><path class="cls-2" d="M59.26,73a10.57,10.57,0,0,1-4.41,5.31,7.3,7.3,0,0,1-3.35,1.32A6.4,6.4,0,0,1,48,79a.1.1,0,0,1,0-.14.1.1,0,0,1,.05,0h0a12.42,12.42,0,0,1,1.65-.52c.52-.18,1-.25,1.53-.43a25.26,25.26,0,0,0,3-.83,10.82,10.82,0,0,0,2.71-1.68A11.41,11.41,0,0,0,59.1,73h0a.1.1,0,0,1,.13,0A.11.11,0,0,1,59.26,73Z"/><path class="cls-14" d="M81.57,59s-3.33,8.51.1,9.1S84.68,63,81.57,59Z"/><path class="cls-15" d="M81.5,60.7s-1.14,2.9,0,3.1S82.56,62.07,81.5,60.7Z"/><path class="cls-14" d="M86.65,63.2s-2.13,5.43.06,5.8S88.64,65.76,86.65,63.2Z"/><path class="cls-15" d="M86.6,64.31s-.72,1.85,0,2S87.28,65.19,86.6,64.31Z"/><path class="cls-14" d="M84,69.69s-2.13,5.43.06,5.8S86,72.25,84,69.69Z"/><path class="cls-15" d="M84,70.81s-.72,1.85,0,2S84.64,71.68,84,70.81Z"/></svg>