<svg id="a" xmlns="http://www.w3.org/2000/svg" viewBox="0 0 128 128"><defs><style>.cls-1,.cls-13{fill:#ffb0cb;}.cls-2{fill:#7ba2ff;}.cls-3{opacity:0.5;}.cls-11,.cls-4,.cls-8{fill:#fff;}.cls-10,.cls-5{fill:#231f20;}.cls-6{opacity:0.2;}.cls-7{fill:#650000;}.cls-23,.cls-8{opacity:0.3;}.cls-9{fill:none;stroke:#231f20;stroke-linecap:round;stroke-linejoin:round;stroke-width:2.94px;}.cls-10,.cls-11,.cls-13{fill-rule:evenodd;}.cls-12{opacity:0.35;}.cls-14{fill:#ff78a7;}.cls-15{fill:#52525b;}.cls-16{fill:#ff8080;}.cls-17{fill:#ff5fa0;}.cls-18{fill:#512717;}.cls-19{fill:#3e6aba;}.cls-20{fill:#ff7ba4;}.cls-21{opacity:0.4;}.cls-22{fill:#09cbff;}</style></defs><path class="cls-1" d="M27.65,49.12A83.82,83.82,0,0,0,20,53.22a7.22,7.22,0,0,0-2.79,9.18L32.61,95.87,63.85,81.54,50.42,52.29A12.15,12.15,0,0,0,35.1,46C32.54,46.93,30.05,48,27.65,49.12Z"/><path class="cls-2" d="M57.2,67.14C46.8,65,33.15,71.82,24.65,78.53L18.18,64.42C23,55.93,40.1,48.81,51,53.62Z"/><g class="cls-3"><path class="cls-4" d="M32.7,47.07c-1.78.67-3.51,1.38-5.21,2.13l.16-.08C30.05,48,32.54,46.93,35.1,46a12.15,12.15,0,0,1,15.32,6.32L63.85,81.54l-2.4,1.1L48,53.39A12.17,12.17,0,0,0,32.7,47.07Z"/></g><path class="cls-5" d="M19.53,52.38A89.53,89.53,0,0,1,34.75,45a13.19,13.19,0,0,1,16.57,6.84L64.75,81.13a1,1,0,0,1-.49,1.31L33,96.78a1,1,0,0,1-1.32-.49L16.35,62.81A8.2,8.2,0,0,1,19.53,52.38Zm43,28.67-13-28.35a11.21,11.21,0,0,0-14.07-5.8,87.9,87.9,0,0,0-14.89,7.17A6.23,6.23,0,0,0,18.15,62l15,32.58Z"/><g class="cls-6"><path class="cls-7" d="M28.32,50.58a64.13,64.13,0,0,0-6.58,3.61,6.74,6.74,0,0,0-2.14,8.58L34.42,95.05,41.11,92c-.54-1.68-1.15-3.35-1.83-5L39,86c-3.82-7.69-7.4-15.49-11-23.29-1.13-2.49-2.31-5.19-1.91-7.8A8.45,8.45,0,0,1,28.32,50.58Z"/></g><circle class="cls-8" cx="109.7" cy="75.14" r="3.01"/><path class="cls-4" d="M109.7,71.79a3.35,3.35,0,1,0,3.35,3.35A3.35,3.35,0,0,0,109.7,71.79Zm0,6a2.67,2.67,0,1,1,2.68-2.67A2.68,2.68,0,0,1,109.7,77.81Z"/><path class="cls-4" d="M108.2,75.72a.47.47,0,0,1-.48-.48,2.17,2.17,0,0,1,2.16-2.17.48.48,0,0,1,.48.48.47.47,0,0,1-.48.48,1.21,1.21,0,0,0-1.2,1.21A.48.48,0,0,1,108.2,75.72Z"/><circle class="cls-8" cx="101.97" cy="70.77" r="1.79"/><path class="cls-4" d="M102,68.81a2,2,0,1,0,2,2A2,2,0,0,0,102,68.81Zm0,3.58a1.62,1.62,0,1,1,1.62-1.62A1.62,1.62,0,0,1,102,72.39Z"/><path class="cls-4" d="M101.07,71.12a.29.29,0,0,1-.28-.29,1.29,1.29,0,0,1,1.29-1.29.29.29,0,0,1,.28.29.28.28,0,0,1-.28.28.72.72,0,0,0-.72.72A.29.29,0,0,1,101.07,71.12Z"/><circle class="cls-8" cx="108.36" cy="67.15" r="2.41"/><path class="cls-4" d="M108.36,64.5A2.65,2.65,0,1,0,111,67.15,2.65,2.65,0,0,0,108.36,64.5Zm0,4.82a2.17,2.17,0,1,1,2.17-2.17A2.17,2.17,0,0,1,108.36,69.32Z"/><path class="cls-4" d="M107.15,67.61a.38.38,0,0,1-.38-.38,1.73,1.73,0,0,1,1.74-1.73.38.38,0,0,1,0,.76,1,1,0,0,0-1,1A.38.38,0,0,1,107.15,67.61Z"/><circle class="cls-8" cx="38.05" cy="40.29" r="3.01"/><path class="cls-4" d="M38.05,37a3.35,3.35,0,1,0,3.34,3.34A3.35,3.35,0,0,0,38.05,37Zm0,6a2.68,2.68,0,1,1,2.67-2.68A2.68,2.68,0,0,1,38.05,43Z"/><path class="cls-4" d="M36.54,40.87a.47.47,0,0,1-.48-.47,2.17,2.17,0,0,1,2.17-2.17.47.47,0,0,1,.47.48.48.48,0,0,1-.47.48A1.21,1.21,0,0,0,37,40.4.48.48,0,0,1,36.54,40.87Z"/><circle class="cls-8" cx="30.31" cy="35.93" r="1.79"/><path class="cls-4" d="M30.31,34a2,2,0,1,0,2,2A2,2,0,0,0,30.31,34Zm0,3.58a1.62,1.62,0,1,1,1.62-1.62A1.63,1.63,0,0,1,30.31,37.55Z"/><path class="cls-4" d="M29.42,36.27a.29.29,0,0,1-.29-.28,1.29,1.29,0,0,1,1.29-1.29.29.29,0,0,1,0,.57.72.72,0,0,0-.72.72A.29.29,0,0,1,29.42,36.27Z"/><circle class="cls-8" cx="36.7" cy="32.31" r="2.41"/><path class="cls-4" d="M36.7,29.65a2.66,2.66,0,1,0,2.66,2.66A2.66,2.66,0,0,0,36.7,29.65Zm0,4.83a2.17,2.17,0,1,1,2.17-2.17A2.18,2.18,0,0,1,36.7,34.48Z"/><path class="cls-4" d="M35.5,32.77a.39.39,0,0,1-.39-.38,1.74,1.74,0,0,1,1.74-1.74.39.39,0,0,1,0,.77,1,1,0,0,0-1,1A.38.38,0,0,1,35.5,32.77Z"/><path class="cls-9" d="M85.85,62.52c1.34,1.43,5.88,7.92,6.87,11,2.08,5.37,4.38,17.88,9.57,17.1a8.15,8.15,0,0,1-3.65,5.48s1.34,2.08,1.46,6.53c0,0-2.12-1.91-6.73,1.51-11.83,11.45-46.32,11.32-59.69-1.52,0,0-2-1.32-5.18,1.16,0,0-2.11-4.23.64-6.7,0,0-3.84-3.15-4.57-5.65,11.19,3.93,4.88-15.39,17.93-29.59,0,0,6.7-6.26,12.93-7.24-4.77.75,12.35-2.16,18.56.19C74,54.81,82.56,58.05,85.85,62.52Z"/><path class="cls-4" d="M85.85,62.52c1.34,1.43,5.88,7.92,6.87,11,2.08,5.37,4.38,17.88,9.57,17.1a8.15,8.15,0,0,1-3.65,5.48s1.34,2.08,1.46,6.53c0,0-2.12-1.91-6.73,1.51-11.83,11.45-46.32,11.32-59.69-1.52,0,0-2-1.32-5.18,1.16,0,0-2.11-4.23.64-6.7,0,0-3.84-3.15-4.57-5.65,11.19,3.93,4.88-15.39,17.93-29.59,0,0,6.7-6.26,12.93-7.24-4.77.75,12.35-2.16,18.56.19C74,54.81,82.56,58.05,85.85,62.52Z"/><path class="cls-10" d="M82.78,78.06C89,77.52,90,89.68,83.87,90.24S76.62,78.62,82.78,78.06Z"/><path class="cls-11" d="M81.57,80.71c2-.18,2.37,4.36.4,4.53S79.59,80.88,81.57,80.71Z"/><g class="cls-12"><path class="cls-11" d="M86.33,83.93c1.08.38,0,4.11-1.18,3.66s0-4.11,1.18-3.66Z"/></g><path class="cls-10" d="M52.6,78.68c6.17-.54,7.25,11.61,1.08,12.17S46.44,79.24,52.6,78.68Z"/><path class="cls-11" d="M51.38,81.32c2-.18,2.38,4.37.41,4.54S49.41,81.5,51.38,81.32Z"/><g class="cls-12"><path class="cls-11" d="M56.15,84.55c1.08.37,0,4.11-1.18,3.66s0-4.12,1.18-3.66Z"/></g><path class="cls-10" d="M61.66,94.31c1.74,3.93,4.87,5.82,8.89,3.15,3.33,2.46,6.73.88,7.55-2.61a.33.33,0,0,0-.64-.18c-.56,1.31-2.68,3.21-4.72,2.08-1.59-.63-1.73-1.7-2.78-1-1.63,1.27-3.66,1.93-5.74.2A14.1,14.1,0,0,1,62.16,94a.29.29,0,0,0-.5.31Z"/><path class="cls-5" d="M70.82,97.32a.92.92,0,0,1-1.09-1.11A13.21,13.21,0,0,0,70,93.74a.92.92,0,0,1,.94-.89.9.9,0,0,1,.89.93C71.65,96,71.77,97,70.82,97.32Z"/><path class="cls-10" d="M65.24,97.48c1.93,1.23,5.33-.92,5.3-1.1,0,0,2.19,1.86,4,1.45-.08,5.28-7.84,8.28-9.32-.35Z"/><path class="cls-13" d="M86.44,91.86c5.85-.27,6.14,4.67.29,5.07S80.6,92.26,86.44,91.86Z"/><path class="cls-13" d="M50.33,91.77c5.85.33,5.63,5.27-.22,5.08S44.48,91.58,50.33,91.77Z"/><path class="cls-13" d="M67.67,97.76a6.54,6.54,0,0,0,2.87-1.38,7.54,7.54,0,0,0,2.67,1.41c-.64,3.68-4.88,3.64-5.54,0Z"/><path class="cls-14" d="M68.41,91.27c.53-1,4.48-.61,5.35.1S72.51,94,70.88,93.91C69.52,93.84,68,92,68.41,91.27Z"/><path class="cls-5" d="M71.68,94.5c-1.85.56-4.6-1.72-3.85-3.56h0c1.11-1.58,5.19-.91,6.36-.09C75.58,92.32,73.36,94.09,71.68,94.5ZM69,91.59a2.63,2.63,0,0,0,1.9,1.65,3,3,0,0,0,2.36-1.39C72.52,91.35,69.57,91.16,69,91.59Zm0,0Zm0-.07"/><g class="cls-6"><path class="cls-15" d="M102.19,90.2h-.08a38.73,38.73,0,0,1-6.06,3.56.94.94,0,0,0-.28,1.48c2.26,2.5,2.6,3.59,2.6,3.59C91.81,97.58,86,106.4,69,107.43s-28.54-5.37-31.58-8.19-7.88,0-7.88,0c.23-1.24.82-2.36,2.17-2.45,2.14-.15,1.81-1.12,1.81-1.12-2.46-.34-5.56-2.47-7.88-4.34a8.61,8.61,0,0,1-1.18-.3C25.2,93.52,29,96.67,29,96.67a4.44,4.44,0,0,0-1,5.17c3.16-2.48,5.18-1.16,5.18-1.16,13.39,12.86,47.9,12.94,59.69,1.51,4.61-3.41,6.73-1.5,6.73-1.5a20.37,20.37,0,0,0-.28-2.89c.08.27.15.56.22.87a9.78,9.78,0,0,0-1.06-3A8.12,8.12,0,0,0,102.19,90.2Z"/></g><path class="cls-4" d="M56.81,59.76C53.62,49.44,66.43,38.86,70.39,34c6.55-8.07,5.4-15.19,3.43-15.93-2.13-.8-3.55,1.93-10.23,5.51-3.93,2.11-19.65,8.36-20.31,24.22-.35,8.44,2.58,13.74,5.09,15.64"/><path class="cls-5" d="M48.35,64.2A.8.8,0,0,1,47.9,64c-2.71-2.05-5.75-7.55-5.39-16.28a23.76,23.76,0,0,1,8-16.72,46.37,46.37,0,0,1,11.44-7.48l1.32-.66a50.06,50.06,0,0,0,6-3.83c2-1.46,3.23-2.34,4.85-1.73a3.33,3.33,0,0,1,1.75,2.42c.82,3,0,8.69-4.86,14.71-.73.9-1.74,2-2.9,3.21-5.18,5.5-13,13.82-10.54,21.86a.77.77,0,0,1-.5,1,.78.78,0,0,1-1-.51C53.33,51.1,61.54,42.39,67,36.62c1.15-1.21,2.13-2.26,2.83-3.11,4.53-5.58,5.29-10.68,4.57-13.35-.25-.95-.63-1.31-.81-1.38-.81-.31-1.51.16-3.42,1.53A50.52,50.52,0,0,1,64,24.25l-1.36.69c-5.38,2.66-18,8.91-18.55,22.89-.36,8.69,2.84,13.51,4.79,15A.77.77,0,0,1,49,63.89.78.78,0,0,1,48.35,64.2Z"/><path class="cls-16" d="M71.54,22.19c0,.25-.07.49-.11.73-.56,3.78-1.65,7.14-10.25,14A24.45,24.45,0,0,0,51.68,55c-.35,3.31-3.23,4.53-4,2.72-2.15-4.9-2.2-13.29-.06-17.34C52,32,61.21,29.61,67.18,25.47,69.71,23.72,71.54,22.19,71.54,22.19Z"/><path class="cls-1" d="M71.54,22.19c0,.25-.07.49-.11.73-.09.59-.19,1.17-.33,1.76,0,0,0,0,0,.06L71,25v0c-.82,3-2.86,6.3-9.83,11.85A24.47,24.47,0,0,0,51.68,55c-.35,3.31-3.23,4.53-4,2.72A24.68,24.68,0,0,1,46,47.58v-.09a17.57,17.57,0,0,1,1.56-7.13C52,32,61.21,29.6,67.18,25.47,69.71,23.72,71.54,22.19,71.54,22.19Z"/><path class="cls-17" d="M71,25.06c-.82,3-2.86,6.3-9.83,11.85A24.47,24.47,0,0,0,51.68,55c-.35,3.31-3.23,4.53-4,2.72A24.68,24.68,0,0,1,46,47.58c0,.71.12,4.44,2.38,3.76,2.64-.79,2.35-7.78,7.65-13C60.63,33.8,69.22,31.59,71,25.06Z"/><path class="cls-5" d="M48.83,59.21A2,2,0,0,1,47,58c-2.26-5.14-2.28-13.69,0-17.92,3.22-6.11,9-9.15,14.09-11.84a55.87,55.87,0,0,0,5.71-3.29c2.47-1.72,4.29-3.23,4.3-3.24a.67.67,0,0,1,1.1.6c0,.25-.07.5-.1.74-.58,3.89-1.72,7.42-10.5,14.41a23.6,23.6,0,0,0-9.21,17.29l0,.33c-.26,2.44-1.77,3.93-3.13,4.14A2.55,2.55,0,0,1,48.83,59.21ZM70.6,23.8c-.77.59-1.82,1.38-3,2.22a56.11,56.11,0,0,1-5.84,3.38c-5.16,2.72-10.5,5.54-13.53,11.28-2,3.86-2,12,.08,16.75a.65.65,0,0,0,.75.43c.83-.13,1.81-1.21,2-3l0-.33a24.9,24.9,0,0,1,9.71-18.2C68.4,30.3,70,27,70.6,23.8Z"/><path class="cls-4" d="M72.05,58.88c1.54-5.63,4.23-10.45,7.46-13.32C89.84,36.4,105,39.05,111.65,39c4.07,0,9-.78,9.5.29.57,1.3-1.9,6.88-5.12,9.56-10.78,9-30.25,6-36.51,15.23"/><path class="cls-5" d="M72.05,58.88a22.06,22.06,0,0,1,3.59-9.79c3.19-5.05,8.66-8.32,14.3-9.81,6.82-1.85,13.87-1.32,20.77-1,2.25.08,4.52-.13,6.84-.21,4.08-.16,5.33.32,3.64,4.56a19.55,19.55,0,0,1-3.87,6c-3.41,3.29-8,5.07-12.44,6.4s-9,2.12-13.41,3.25a28.82,28.82,0,0,0-9.26,3.79,26.49,26.49,0,0,0-2.69,2.07,7.52,7.52,0,0,1,2-2.93,18.25,18.25,0,0,1,6.22-3.36c9.52-3.29,20.91-3,28.62-10.16a17.91,17.91,0,0,0,3.57-5.54,6,6,0,0,0,.6-2.5v0h0l0,0s0,0,0,0a.57.57,0,0,0-.19-.07,2.36,2.36,0,0,0-.33-.07,14.15,14.15,0,0,0-2.44-.05c-2.27.09-4.58.32-6.93.26s-4.59-.22-6.89-.28c-6.72-.19-13.72.43-19.68,3.73a22.09,22.09,0,0,0-5.29,4c-3.1,3.35-4.81,7.56-6.77,11.67Z"/><path class="cls-16" d="M117.63,42.51c-.32,1.71-5.21,5.77-9.2,7.47-8.36,3.55-17.41,1.89-27.25,8.66-1.76,1.21-3.06,3-4.13,2.78-.76-.19-.72-2.18-.53-3.2C77.64,52.07,82.79,46,94.33,45.28,112.44,44.23,117.71,42.06,117.63,42.51Z"/><path class="cls-1" d="M117.63,42.51c-.32,1.71-5.21,5.77-9.2,7.47-7.74,3.29-16.06,2.11-25.06,7.28q-1.09.63-2.19,1.38c-1.76,1.21-3.07,3-4.13,2.77-.76-.18-.72-2.17-.53-3.19C77.64,52.07,82.79,46,94.34,45.28,112.44,44.23,117.71,42.06,117.63,42.51Z"/><path class="cls-17" d="M117.63,42.51c-2.38,2-24.84,4.31-30,6.13s-8.3,7.26-8,8.47c.25.93,2.09.63,3.75.15q-1.09.63-2.19,1.38c-1.76,1.21-3.07,3-4.13,2.77-.76-.18-.72-2.17-.53-3.19C77.64,52.07,82.79,46,94.34,45.28,112.44,44.23,117.71,42.06,117.63,42.51Z"/><path class="cls-5" d="M77.23,62.09a1.37,1.37,0,0,1-.34,0c-1.64-.4-1-3.8-1-3.94A14.86,14.86,0,0,1,81.1,49.2c3.26-2.71,7.7-4.25,13.2-4.57A142.55,142.55,0,0,0,116.09,42c1.38-.29,1.67-.35,2,0a.7.7,0,0,1,.19.62h0c-.4,2.16-5.74,6.31-9.59,7.95a45.9,45.9,0,0,1-10.29,2.64c-5.39.94-11,1.92-16.84,6a16.36,16.36,0,0,0-1.63,1.34C79,61.37,78.13,62.11,77.23,62.09Zm0-1.3c.37,0,1.13-.65,1.8-1.25a19.14,19.14,0,0,1,1.76-1.44c6.1-4.19,11.82-5.2,17.36-6.17a44.75,44.75,0,0,0,10-2.55,24.49,24.49,0,0,0,8.33-6.09l-.15,0c-2.46.51-9,1.86-22,2.61-13.64.8-16.58,8.94-17.21,12.41A4.88,4.88,0,0,0,77.25,60.79Zm40.38-18.28Z"/><polygon class="cls-18" points="67.51 95.67 67.44 95.69 67.43 95.67 67.51 95.67"/><polygon class="cls-18" points="67.58 95.66 67.58 95.69 67.51 95.67 67.58 95.66"/><ellipse class="cls-2" cx="69.32" cy="99.79" rx="5.71" ry="5.32" transform="translate(-1.49 1.05) rotate(-0.86)"/><path class="cls-5" d="M69.41,105.58a5.81,5.81,0,1,1,6.13-5.89A6,6,0,0,1,69.41,105.58Zm-.16-10.64a4.86,4.86,0,1,0,5.27,4.77A5,5,0,0,0,69.25,94.94Z"/><ellipse class="cls-19" cx="69.32" cy="99.79" rx="3.37" ry="3.14" transform="translate(-1.49 1.05) rotate(-0.86)"/><path class="cls-5" d="M69.37,103.29a3.51,3.51,0,1,1,3.71-3.56A3.64,3.64,0,0,1,69.37,103.29ZM69.28,97a2.77,2.77,0,1,0,3,2.72A2.88,2.88,0,0,0,69.28,97Z"/><path class="cls-20" d="M71.57,101.55c6.48,6.22,17.69,7.12,24.08.15-.54,9.29-16.67,13-26.66,2a1.5,1.5,0,0,1-.13-1.94l.06-.08A1.84,1.84,0,0,1,71.57,101.55Z"/><g class="cls-6"><path class="cls-7" d="M69.55,101.46a1.46,1.46,0,0,1-.21-.28,1.55,1.55,0,0,0,.23,1.81c9.85,11,25.74,7.29,26.27-2l-.37.39C93,109.21,78.69,111.69,69.55,101.46Z"/></g><path class="cls-5" d="M83.86,110.94a19.54,19.54,0,0,1-5.23-.66,21,21,0,0,1-10-6.22,2,2,0,0,1-.17-2.52l.08-.1a2.31,2.31,0,0,1,1.67-.84,2.24,2.24,0,0,1,1.74.62,18,18,0,0,0,12.76,4.87,14.73,14.73,0,0,0,10.57-4.7.54.54,0,0,1,.58-.13.47.47,0,0,1,.32.47c-.23,3.88-3,7-7.56,8.47A16.78,16.78,0,0,1,83.86,110.94Zm-13.54-9.4h-.07a1.33,1.33,0,0,0-.92.47l0,.07a1.05,1.05,0,0,0,.1,1.36c6.18,6.78,14,7.39,18.9,5.85,3.51-1.1,5.9-3.36,6.63-6.18A16,16,0,0,1,84.72,107a19,19,0,0,1-13.52-5.16h0A1.27,1.27,0,0,0,70.32,101.54Z"/><path class="cls-20" d="M85.07,95.84h-.41a13.13,13.13,0,0,1-8-2.9,12.77,12.77,0,0,0-8.44-2.76L67,90.2a12.78,12.78,0,0,0-8.34,3,13.14,13.14,0,0,1-7.87,3.14A8.63,8.63,0,0,1,44,94c-2.6-2.63-3.36-7.37-2.34-14.48a8,8,0,0,1,7.84-6.9l35.84-.54a8,8,0,0,1,8,6.66c1.24,7.08.62,11.83-1.89,14.55A8.51,8.51,0,0,1,85.07,95.84ZM68.24,87.17h0a16.19,16.19,0,0,1,10.54,3.47,9.84,9.84,0,0,0,5.93,2.2A5.43,5.43,0,0,0,89,91.36c1.82-2,2.21-6,1.15-12.1a4.86,4.86,0,0,0-4.81-4.14l-35.84.54a4.86,4.86,0,0,0-4.69,4.28C43.94,86,44.45,90.09,46.34,92a5.42,5.42,0,0,0,4.33,1.35A9.79,9.79,0,0,0,56.53,91,16.22,16.22,0,0,1,67,87.19Z"/><g class="cls-21"><path class="cls-22" d="M89,91.36a5.43,5.43,0,0,1-4.29,1.48A9.28,9.28,0,0,1,81,92a10,10,0,0,1-1.07-.57,13.18,13.18,0,0,1-1.09-.75l-.33-.26a16.43,16.43,0,0,0-2.92-1.74,17,17,0,0,0-7.29-1.47l-1.29,0A16.22,16.22,0,0,0,56.53,91a9.85,9.85,0,0,1-5.86,2.38A5.41,5.41,0,0,1,46.34,92c-1.89-1.91-2.4-6-1.52-12.06a4.86,4.86,0,0,1,4.69-4.28l35.84-.54a4.51,4.51,0,0,1,1.27.15,4.59,4.59,0,0,1,1.12.47,5,5,0,0,1,2.42,3.52C91.22,85.32,90.83,89.39,89,91.36Z"/></g><g class="cls-23"><path class="cls-7" d="M44.85,81.65a4.85,4.85,0,0,1,4.68-4.28l35.84-.54a4.41,4.41,0,0,1,2.39.62A5,5,0,0,1,90.19,81a40,40,0,0,1,.55,4.63,32.91,32.91,0,0,0-.58-6.34,5,5,0,0,0-2.42-3.52,4.59,4.59,0,0,0-1.12-.47,4.51,4.51,0,0,0-1.27-.15l-35.84.54a4.86,4.86,0,0,0-4.69,4.28,32.88,32.88,0,0,0-.38,6.36A36.07,36.07,0,0,1,44.85,81.65Z"/></g><g class="cls-3"><path class="cls-4" d="M47.3,92.72l7.06-17.14,3.78,0q-3.73,8.89-7.48,17.81a5.11,5.11,0,0,1-2.18-.11A4.56,4.56,0,0,1,47.3,92.72Z"/></g><g class="cls-3"><polygon class="cls-4" points="53.84 93.28 52.7 92.87 60.06 75.28 61.2 75.69 53.84 93.28"/></g><path class="cls-5" d="M85.08,96.41h-.43a13.77,13.77,0,0,1-8.33-3,12.22,12.22,0,0,0-8-2.63l-1.25,0a12.22,12.22,0,0,0-8,2.86,13.76,13.76,0,0,1-8.24,3.29,9.24,9.24,0,0,1-7.33-2.5c-2.73-2.77-3.54-7.66-2.49-15a8.58,8.58,0,0,1,8.43-7.39l35.84-.54A8.62,8.62,0,0,1,94,78.67c1.27,7.26.6,12.17-2,15A9.08,9.08,0,0,1,85.08,96.41Zm-16.81-6.8a13.41,13.41,0,0,1,8.84,2.89,12.46,12.46,0,0,0,7.56,2.77h.39A7.88,7.88,0,0,0,91,93c2.39-2.58,3-7.19,1.76-14.09a7.42,7.42,0,0,0-7.43-6.18l-35.84.54a7.42,7.42,0,0,0-7.24,6.4c-1,6.93-.29,11.52,2.18,14a8.07,8.07,0,0,0,6.38,2.13,12.54,12.54,0,0,0,7.48-3A13.34,13.34,0,0,1,67,89.63Zm16.78,3.8h-.34a10.41,10.41,0,0,1-6.31-2.34,15.64,15.64,0,0,0-10.15-3.33v0l-1.27,0a15.57,15.57,0,0,0-10,3.64,10.48,10.48,0,0,1-6.24,2.52,6,6,0,0,1-4.81-1.54c-2-2-2.58-6.25-1.68-12.51a5.48,5.48,0,0,1,5.29-4.78l35.84-.54a5.45,5.45,0,0,1,5.42,4.61c1.09,6.24.66,10.46-1.29,12.57A5.82,5.82,0,0,1,85.05,93.41ZM68.23,86.6h0a16.88,16.88,0,0,1,10.94,3.6,9.21,9.21,0,0,0,5.54,2.07A4.83,4.83,0,0,0,88.54,91c1.68-1.81,2-5.83,1-11.63a4.29,4.29,0,0,0-4.2-3.66l-35.84.54A4.27,4.27,0,0,0,45.43,80c-.84,5.82-.37,9.83,1.36,11.59a4.79,4.79,0,0,0,3.85,1.17,9.25,9.25,0,0,0,5.48-2.23A16.84,16.84,0,0,1,67,86.62Z"/></svg>