<?xml version="1.0" encoding="UTF-8"?>
<svg id="a" data-name="Layer 1" xmlns="http://www.w3.org/2000/svg" xmlns:xlink="http://www.w3.org/1999/xlink" viewBox="0 0 128 128">
  <defs>
    <linearGradient id="b" x1="67.11" y1="56.24" x2="66.94" y2="86.73" gradientUnits="userSpaceOnUse">
      <stop offset="0" stop-color="#2484c7"/>
      <stop offset="1" stop-color="#c3996c" stop-opacity="0"/>
    </linearGradient>
  </defs>
  <g>
    <g>
      <g>
        <line x1="14.01" y1="16.68" x2="13.93" y2="74.33" fill="none" stroke="#6f3d34" stroke-linejoin="round" stroke-width=".71"/>
        <line x1="17.96" y1="23.99" x2="17.84" y2="103.56" fill="none" stroke="#6f3d34" stroke-linejoin="round" stroke-width=".71"/>
        <line x1="23.34" y1="21.57" x2="23.22" y2="105.2" fill="none" stroke="#6f3d34" stroke-linejoin="round" stroke-width=".71"/>
        <line x1="28.24" y1="24.82" x2="28.14" y2="100.33" fill="none" stroke="#6f3d34" stroke-linejoin="round" stroke-width=".71"/>
      </g>
      <g>
        <line x1="96.63" y1="16.8" x2="96.55" y2="74.45" fill="none" stroke="#6f3d34" stroke-linejoin="round" stroke-width=".71"/>
        <line x1="100.58" y1="24.11" x2="100.46" y2="103.68" fill="none" stroke="#6f3d34" stroke-linejoin="round" stroke-width=".71"/>
        <line x1="105.96" y1="21.68" x2="105.84" y2="105.31" fill="none" stroke="#6f3d34" stroke-linejoin="round" stroke-width=".71"/>
        <line x1="110.86" y1="24.94" x2="110.76" y2="100.45" fill="none" stroke="#6f3d34" stroke-linejoin="round" stroke-width=".71"/>
      </g>
      <g>
        <line x1="33.34" y1="5.88" x2="33.28" y2="47.15" fill="none" stroke="#6f3d34" stroke-linejoin="round" stroke-width=".71"/>
        <line x1="37.28" y1="11.11" x2="37.2" y2="68.08" fill="none" stroke="#6f3d34" stroke-linejoin="round" stroke-width=".71"/>
        <line x1="42.67" y1="9.38" x2="42.58" y2="69.25" fill="none" stroke="#6f3d34" stroke-linejoin="round" stroke-width=".71"/>
        <line x1="47.57" y1="11.71" x2="47.49" y2="65.77" fill="none" stroke="#6f3d34" stroke-linejoin="round" stroke-width=".71"/>
      </g>
      <g>
        <line x1="75.91" y1="5.73" x2="75.85" y2="47" fill="none" stroke="#6f3d34" stroke-linejoin="round" stroke-width=".71"/>
        <line x1="79.86" y1="10.97" x2="79.78" y2="67.94" fill="none" stroke="#6f3d34" stroke-linejoin="round" stroke-width=".71"/>
        <line x1="85.25" y1="9.23" x2="85.16" y2="69.11" fill="none" stroke="#6f3d34" stroke-linejoin="round" stroke-width=".71"/>
        <line x1="90.15" y1="11.57" x2="90.07" y2="65.63" fill="none" stroke="#6f3d34" stroke-linejoin="round" stroke-width=".71"/>
      </g>
      <g>
        <line x1="54.86" y1="9.79" x2="54.8" y2="51.06" fill="none" stroke="#6f3d34" stroke-linejoin="round" stroke-width=".71"/>
        <line x1="58.8" y1="15.03" x2="58.72" y2="71.99" fill="none" stroke="#6f3d34" stroke-linejoin="round" stroke-width=".71"/>
        <line x1="64.19" y1="13.29" x2="64.1" y2="73.17" fill="none" stroke="#6f3d34" stroke-linejoin="round" stroke-width=".71"/>
        <line x1="69.09" y1="15.62" x2="69.01" y2="69.68" fill="none" stroke="#6f3d34" stroke-linejoin="round" stroke-width=".71"/>
      </g>
    </g>
    <path d="m28.9,66.18c4.29,1.82,9.04,2.8,13.76,3.53,21.92,3.37,45.16,1.67,66.08-6.33,4.03-1.54,8.12-3.42,10.82-6.6,2.7-3.18,3.56-7.98.88-11-.29-.32-.62-.63-1.05-.78-.67-.24-1.44-.06-2.15.1-2.45.52-4.97.7-7.44.51-7.87-.59-9.31-10.2-10.66-16.39-1.4-6.43-3.55-12.99-8.24-17.63-5.77-5.71-14.51-7.56-22.72-7.28-8.28.28-16.67,2.56-23.34,7.48-7.3,5.38-11.08,13.07-11.68,21.86-.53,7.81-3.7,11.81-12.21,10.22-2.02-.38-4.28-.54-6.08.49-2.24,1.28-3.01,4.07-2.43,6.38s2.2,4.22,3.86,6c2.6,2.8,5.41,5.48,8.76,7.49,1.23.74,2.51,1.38,3.84,1.94Z" fill="#383938"/>
    <g>
      <g>
        <path d="m106.3,76.79c1.19,3.94,2.57,7.52,4.98,9.57-2.21-.31-4.28-1.47-5.69-3.19-.64,3.62.1,7.33.89,10.92.27,1.23.55,2.47,1.15,3.57.6,1.1,1.57,2.07,2.78,2.38-.92-.23-2.5.48-3.63.28-1.97-.35-1.84-.84-3.54.41-1.82,1.34-3.04,3.66-4.66,5.25-.24-1.21-.49-2.42-.73-3.64-3.18,1.38-5.17,5.09-4.55,8.51-7.03-.85-13.22-5.74-16.48-12.02-3.26-6.28-3.78-13.76-2.35-20.69,1.51-7.25,5.36-14.31,11.68-18.17,1.7-1.03,3.58-1.83,5.57-1.96,10.2-.63,11.93,9.96,14.59,18.77Z" fill="#b57a2b"/>
        <g>
          <g>
            <path d="m22.64,93.79c-.05.08-.09.17-.11.26.04-.09.07-.18.11-.26Z" fill="#b57a2b"/>
            <path d="m105.6,62.7c-.93-3.42-3.37-6.29-6.06-8.73-9.42-8.56-22.52-13.03-35.55-13.26-5.11-.09-10.21.4-15.31.56-3.24.1-6.73.05-9.82,1.14-3.71,1.31-5.91,4.73-7.32,8.21-1.68,4.12-3.22,8.2-5.09,12.28-2.66,5.8-5.38,11.85-5.28,18.23.8-1.15,1.61-2.29,2.41-3.44,1.57,5.26,1.22,11.06-.94,16.1.3-.49,1.04-.68,1.61-.49.67.22,1.16.79,1.61,1.34,2.27,2.74,4.55,5.49,6.82,8.23-.16-1.17.1-2.39.7-3.4,2.05,3.06,2.69,7.02,1.71,10.57,3.82-1.49,7.02-4.29,9.61-7.47,1.52-1.86,2.91-4.01,2.98-6.41.03-.91-.21-1.85-.65-2.67,4.81,1.85,9.98,2.82,15.14,3.42,5.41.62,10.92.84,16.26-.18,2.58-.49,5.1-1.27,7.58-2.1,3.1-1.04,6.21-2.21,8.83-4.11,5.31-3.85,7.9-10.16,9.73-16.27,1.13-3.76,2.06-7.76,1.03-11.55Z" fill="#b57a2b"/>
          </g>
          <g>
            <g>
              <path d="m100.94,82.28c-3.76-6.66-9.56,1.82-9.56,1.82l-1.88,15.62c9.91-2.2,15.2-10.78,11.44-17.44Z" fill="#f3b683"/>
              <path d="m91.89,87.66s2.9-5.29,5.64-3.67c2.73,1.62,2.13,9.99-6.23,11.7l.6-8.03Z" fill="#e28859"/>
            </g>
            <g>
              <path d="m32.77,82.28c3.76-6.66,9.56,1.82,9.56,1.82l1.88,15.62c-9.91-2.2-15.2-10.78-11.44-17.44Z" fill="#f3b683"/>
              <path d="m41.82,87.66s-2.9-5.29-5.64-3.67c-2.73,1.62-2.13,9.99,6.23,11.7l-.6-8.03Z" fill="#e28859"/>
            </g>
            <g>
              <circle cx="66.21" cy="64.56" r="28.08" fill="#f3b683"/>
              <circle cx="66.21" cy="95.59" r="28.08" fill="#f3b683"/>
              <rect x="38.13" y="63.6" width="56.17" height="34.33" fill="#f3b683"/>
            </g>
          </g>
          <path d="m47.32,52.85c.28-.3.59-.61,1-.71.47-.12.96.06,1.4.27,1.21.6,2.22,1.5,3.24,2.36,2.99,2.52,6.22,4.78,9.64,6.73.76.43,1.56.86,2.44.92,1.6.11,2.99-.97,4.21-1.96,3.42-2.76,7.08-5.23,10.94-7.39.75-.42,1.55-.84,2.42-.89,2.15-.12,5.67,2.69,6.93,4.17,5.73,6.69,6.87,16.08,5.38,24.6,3.74-3.97,6.84-8.48,9.16-13.32,1.19-2.48,2.22-5.16,2.31-7.91.1-2.85-1.32-4.69-3.11-6.88-5.1-6.26-10.75-12.12-16.87-17.48-3.86-3.38-8.1-6.67-13.18-7.89-4.19-1.01-8.67-.52-12.78.77-4.11,1.29-7.89,3.36-11.56,5.54-5.84,3.48-11.54,7.36-16.18,12.24-4.42,4.65-3.9,10.75-2.47,16.59,1.57,6.41,3.66,13.18,8.92,17.46-.12-8.97,1.73-20.24,8.15-27.23Z" fill="#b57a2b"/>
        </g>
      </g>
      <g>
        <path d="m55.08,87.26c0,2.63-1.72,4.76-3.85,4.76s-3.85-2.13-3.85-4.76,1.72-4.76,3.85-4.76,3.85,2.13,3.85,4.76Z" fill="#3b3a45"/>
        <path d="m77.02,87.26c0,2.63,1.72,4.76,3.85,4.76s3.85-2.13,3.85-4.76-1.72-4.76-3.85-4.76-3.85,2.13-3.85,4.76Z" fill="#3b3a45"/>
        <path d="m66.58,88.39c.13,1.36.13,2.7.09,4.04-.04,1.34-.13,2.67-.25,4l-.1.99-.1.99-.03.25v.22c-.02.14-.04.29-.02.43.01.14,0,.29.04.43l.03.22s.01.07.02.11l.03.11c.29,1.15,1.08,2.22,2.1,3.11-.33-.09-.65-.24-.95-.41-.16-.08-.3-.18-.44-.28-.14-.11-.28-.21-.42-.33-.54-.46-1-1.06-1.29-1.75-.15-.35-.25-.71-.3-1.09-.04-.19-.04-.38-.05-.57v-.28s0-.25,0-.25c.01-.34.04-.67.05-1.01l.08-1c.12-1.34.3-2.66.54-3.98.24-1.32.53-2.63.95-3.93Z" fill="#d66835"/>
        <path d="m56,82.57c-.19.05-.4.08-.57,0-.18-.09-.29-.28-.39-.45-.75-1.31-1.78-2.47-2.99-3.38-1.51-1.12-3.28-1.84-4.89-2.8-.29-.17-.6-.39-.68-.72-.1-.41.2-.8.52-1.07.85-.72,2-1.02,3.12-1,1.11.02,2.2.33,3.24.74,1.82.71,4.5,2.12,5.08,4.18.5,1.77-.6,4.07-2.42,4.52Z" fill="#b57a2b"/>
        <path d="m75.25,81.97c.17.09.37.17.56.12.2-.04.34-.2.48-.35,1.03-1.11,2.3-2,3.69-2.6,1.73-.75,3.61-1.04,5.4-1.6.32-.1.68-.24.83-.54.19-.37,0-.83-.26-1.16-.67-.89-1.71-1.45-2.8-1.69-1.09-.24-2.22-.18-3.33-.03-1.93.27-4.86,1.03-5.9,2.9-.89,1.61-.35,4.1,1.32,4.96Z" fill="#b57a2b"/>
        <path d="m56.55,115.1c-1.47-1.33-2.31-3.42-1.91-5.36s2.16-3.6,4.15-3.64c2.55-.06,4.67,2.27,7.22,2.29,3.1.02,5.27-3.3,8.31-3.93,2.33-.48,4.86.88,5.91,3.02,1.05,2.14.65,4.86-.83,6.73-2.14,2.71-5.94,3.45-9.4,3.48-2.59.03-5.05-.5-7.61-.68-2.17-.15-4.13-.37-5.84-1.91Z" fill="#fff"/>
      </g>
      <g>
        <circle cx="52.45" cy="88.71" r="9.91" fill="#272727"/>
        <path d="m37.49,99.5l-.53-3.14.27,1.57-.27-1.57c.05,0,5.28-.97,12.75-5.77,6.91-4.44,17.19-13.17,26.97-29.54l2.74,1.64c-10.16,17.02-20.93,26.1-28.18,30.72-7.96,5.08-13.51,6.06-13.74,6.1Z" fill="#272727"/>
      </g>
    </g>
    <ellipse cx="67.03" cy="71.41" rx="27.73" ry="31.46" fill="url(#b)"/>
    <g>
      <path d="m27.96,63.76c4.3,1.83,9.06,2.82,13.79,3.55,21.96,3.4,45.25,1.69,66.2-6.32,4.04-1.54,8.14-3.43,10.84-6.62,2.7-3.19,3.56-8.02.88-11.05-.29-.33-.62-.63-1.05-.78-.67-.24-1.44-.06-2.16.09-2.45.52-4.98.7-7.46.51-7.88-.59-9.33-10.24-10.69-16.47-1.41-6.46-3.56-13.05-8.26-17.71-5.79-5.74-14.54-7.6-22.77-7.32-8.3.28-16.7,2.56-23.38,7.5-7.31,5.4-11.1,13.12-11.69,21.96-.53,7.84-3.7,11.86-12.23,10.26-2.03-.38-4.29-.54-6.09.49-2.24,1.28-3.01,4.09-2.44,6.41.58,2.32,2.21,4.24,3.87,6.03,2.61,2.81,5.42,5.5,8.78,7.53,1.23.74,2.51,1.39,3.84,1.95Z" fill="#272727"/>
      <g>
        <path d="m76.85,27.34c-.46-4.7-4.36-8.74-9.02-9.77-4.66-1.03-9.79.79-13.07,4.28-.68.72-1.29,1.52-1.65,2.43-.75,1.89-.34,4.07.61,5.85.7,1.31,2.93,2.88,3.24,4.21.28,1.21-1.11,2.23-.64,3.66.35,1.06,1.5,1.85,2.62,1.67,1.12-.19,1.98-1.46,1.6-2.51.12,2.25,3.1,3.77,5.05,2.57.19-.63.38-1.25.58-1.88.55,1.52,2.26,2.52,3.89,2.27.34-.05.7-.17.94-.41.82-.82-.1-2.15-.06-3.29.03-.99.83-1.81,1.68-2.35.85-.54,1.82-.9,2.58-1.57,1.43-1.24,1.83-3.3,1.65-5.16Zm-14.37,1.78c-.13.22-.29.44-.52.56-.18.09-.38.12-.58.14-.93.08-1.93-.05-2.68-.59-.75-.54-1.18-1.58-.82-2.44.26-.61.84-1.03,1.42-1.37,1.01-.6,2.83-1.92,3.63-.66.74,1.16.2,3.28-.45,4.36Zm2.61,4.99c-.47.12-.77-.64-1.25-.59-.18.02-.32.15-.48.21-.33.14-.76-.03-.9-.36-.18-.42.08-.9.39-1.25.5-.58,1.11-1.34,1.88-.74.65.51.96,1.41.76,2.21-.06.22-.17.46-.4.52Zm4.95-3.19c-.89.3-1.87.13-2.74-.22-.18-.07-.37-.16-.5-.3-.18-.18-.26-.44-.32-.69-.27-1.22-.1-3.39.97-4.28,1.16-.96,2.47.82,3.24,1.69.44.49.86,1.06.91,1.72.07.92-.67,1.78-1.56,2.08Z" fill="#fff"/>
        <path d="m78.02,40.08c-.04-1,.42-2.04,1.28-2.58.86-.53,2.11-.44,2.77.31.66.75.5,2.1-.39,2.6.56.45,1.09.96,1.33,1.64.23.67.07,1.53-.54,1.91-1.17.74-3-.48-4.22-.59-1.9-.17-3.82.51-5.61,1.08-7.65,2.4-15.65,3.34-23.55,4.69-.79.13-1.61.29-2.23.79-.46.37-.76.91-1.26,1.23-.6.39-1.44.37-2.02-.05-.57-.41-.85-1.2-.65-1.88-1.04.51-2.45-.48-2.29-1.61.13-.97,1.18-1.63,2.17-1.66,1.42-.04,2.42.9,3.79.86,1.49-.04,3.1-.52,4.57-.78,3.04-.54,6.08-1.13,9.11-1.76,1.58-.33,17.78-3.45,17.75-4.19Z" fill="#fff"/>
        <path d="m48.15,35.63c.36-.94.26-2.07-.39-2.83-.65-.76-1.87-1.04-2.73-.51s-1.15,1.86-.46,2.59c-.67.26-1.35.6-1.79,1.17-.44.57-.56,1.43-.1,1.98.88,1.04,3.01.41,4.21.66,1.87.39,3.47,1.6,4.99,2.66,6.51,4.51,13.83,7.74,20.92,11.32.71.36,1.44.74,1.87,1.4.32.49.44,1.09.81,1.54.45.55,1.26.77,1.94.54.68-.23,1.19-.89,1.22-1.6.82.79,2.49.26,2.7-.86.18-.96-.6-1.89-1.53-2.21-1.34-.45-2.59.15-3.88-.28-1.4-.47-2.79-1.4-4.1-2.08-2.72-1.4-5.43-2.84-8.11-4.32-1.4-.77-15.83-8.46-15.56-9.16Z" fill="#fff"/>
      </g>
    </g>
  </g>
  <g>
    <g>
      <g>
        <path d="m102.94,102.47s6.28-24.91,10.72-34c.41-.85,1.67-.67,1.82.26.69,4.05,1.14,13.64-3.87,31.73-.37,1.32-1.57,2.23-2.95,2.25-.68.01-1.28.13-1.34.52l-4.39-.77Z" fill="#b3b3b3"/>
        <path d="m107.4,103.34l-4.56-.8.02-.09c.06-.25,6.33-25.02,10.72-34.01.21-.42.64-.65,1.1-.58.46.07.81.41.89.87.7,4.12,1.13,13.72-3.87,31.77-.38,1.36-1.59,2.29-3.03,2.32-.54,0-1.2.09-1.26.45v.09Zm-4.35-.94l4.22.74c.12-.33.59-.5,1.41-.51,1.36-.02,2.51-.9,2.86-2.19,4.99-18.02,4.56-27.59,3.87-31.69-.07-.39-.36-.67-.74-.73-.39-.06-.75.14-.92.49-4.25,8.7-10.27,32.23-10.69,33.89Z" fill="#3e2670"/>
      </g>
      <g fill="none" opacity=".6">
        <path d="m115.12,68.66c-4.44,9.08-10.72,34-10.72,34l2.94.52s-.01.04-.02.07l-4.39-.77s6.28-24.91,10.72-34c.35-.72,1.3-.7,1.68-.11-.09.08-.16.18-.22.3Z" fill="#fff"/>
      </g>
      <path d="m108.76,102.71c1.34-.06,2.5-.95,2.86-2.25,5.01-18.09,4.56-27.67,3.87-31.73-.13-.79-1.05-1.04-1.58-.58.55,5.17.38,15.67-4.89,33.92-.06.22-.15.43-.26.63Z" fill="#fff"/>
      <path d="m107.83,103.41s.03-.04.04-.08l-1.09-.19c.11-.63.74-.96,1.88-.98,1.15-.02,2.12-.76,2.42-1.85,4.96-17.93,4.55-27.42,3.85-31.49-.05-.28-.28-.33-.35-.34-.07-.01-.31-.02-.43.23-4.36,8.93-10.62,33.64-10.68,33.89l-1.07-.27c.26-1.02,6.34-25.07,10.76-34.1.3-.61.92-.94,1.58-.84.67.1,1.17.59,1.28,1.25.71,4.16,1.14,13.83-3.88,31.97-.43,1.54-1.85,2.63-3.47,2.66-.69.01-.84.14-.85.14Z" fill="#272727"/>
      <path d="m107.71,104.22c-.19.76-.51,2.04-.89,3.53-.63,2.53-1.41,5.68-1.98,8.07-.28,1.16-.32,2.04-.27,2.78.11,1.63.7,2.59.33,4.31-.52,2.43-3.23,3.27-5.39,1.85-2.68-1.77-1.46-6.29-.97-7.98.03-.11.08-.27.14-.47.51-1.73,1.91-6.53,2.95-10.05.41-1.41.76-2.61.98-3.33.12-.41.54-.65.95-.54l3.58.88c.42.1.68.53.58.96Z" fill="#5780c1"/>
      <g fill="none" opacity=".3">
        <path d="m104.89,122.91c-.52,2.43-3.23,3.27-5.39,1.85-1.75-1.16-1.84-3.49-1.55-5.44.2.99.66,1.88,1.55,2.47,2.06,1.36,4.64.64,5.31-1.56.16.83.3,1.6.07,2.67Z" fill="#3e2670"/>
      </g>
      <path d="m101.73,126c-.86,0-1.74-.27-2.52-.78-2.06-1.36-2.46-4.25-1.19-8.6.42-1.46,3.26-11.11,4.06-13.85.2-.69.91-1.1,1.61-.93l3.58.88c.35.09.65.3.83.61.19.31.24.67.15,1.02-.56,2.24-1.97,7.84-2.87,11.59-.46,1.94-.25,3.03-.03,4.08.17.87.36,1.77.09,2.99-.27,1.24-1.07,2.22-2.21,2.69-.48.19-.98.29-1.5.29Zm1.63-23.09c-.1,0-.2.07-.23.17-.8,2.74-3.63,12.4-4.06,13.85-1.12,3.83-.87,6.31.74,7.37.95.62,2.07.77,2.99.39.8-.33,1.35-1,1.54-1.89.21-1,.07-1.72-.1-2.54-.22-1.12-.48-2.39.04-4.56.9-3.75,2.31-9.36,2.87-11.6.02-.08,0-.15-.03-.18-.02-.03-.06-.09-.15-.11l-3.58-.88s-.04,0-.06,0Z" fill="#272727"/>
      <g>
        <circle cx="104.75" cy="105.31" r=".71" fill="#4a2a23"/>
        <path d="m104.76,106.11s-.09,0-.14-.01h0c-.21-.04-.39-.15-.52-.33-.12-.18-.17-.39-.13-.6.04-.21.15-.39.33-.52.18-.12.39-.17.6-.13.21.04.39.15.52.33.12.18.17.39.13.6-.04.21-.15.39-.33.52-.14.1-.3.15-.46.15Zm0-1.43c-.13,0-.25.04-.36.11-.14.1-.23.24-.26.41-.03.17,0,.33.1.47.1.14.24.23.41.26h0c.17.03.33,0,.47-.1.14-.1.23-.24.26-.41.03-.17,0-.33-.1-.47-.1-.14-.24-.23-.41-.26-.04,0-.07,0-.11,0Z" fill="#3e2670"/>
      </g>
    </g>
    <g>
      <polygon points="24.62 100.47 19.69 101.39 16.94 83.3 20.67 82.61 24.62 100.47" fill="#848484"/>
      <path d="m19.61,101.49l-2.77-18.26,3.89-.73.02.08,3.98,17.95-5.11.95Zm-2.58-18.12l2.72,17.92,4.76-.89-3.92-17.69-3.56.66Z" fill="#3e2670"/>
    </g>
    <g>
      <path d="m24.62,100.47l-4.94.92-2.28-15.02c-.07-.49-.42-.9-.89-1.06-6.81-2.25-5.91-15.51-5.65-18.23.01-.14.07-.27.17-.38.09-.1.22-.17.36-.2.35-.07.69.17.76.52l1.7,9.11c.11.61.64,1.03,1.24,1.03.08,0,.16,0,.23-.02.69-.13,1.14-.79,1.01-1.47l-1.62-8.67c-.01-.07-.02-.13-.02-.2,0-.52.37-.98.89-1.08.59-.11,1.17.28,1.28.88l1.62,8.67c.11.61.64,1.03,1.24,1.03.08,0,.16,0,.23-.02.69-.13,1.14-.79,1.01-1.47l-1.7-9.11s-.01-.08-.01-.12c0-.3.22-.58.53-.64.28-.05.57.09.7.35,1.22,2.44,6.84,14.48,1.3,19.04-.38.32-.55.82-.45,1.31l3.29,14.83Z" fill="#b3b3b3"/>
      <path d="m19.61,101.49l-2.29-15.1c-.07-.46-.39-.84-.83-.99-6.88-2.27-5.96-15.66-5.71-18.32.02-.16.08-.31.19-.43.11-.12.25-.2.41-.23.4-.07.78.19.86.59l1.7,9.11c.1.56.59.96,1.16.96.07,0,.14,0,.22-.02.31-.06.58-.23.75-.49.18-.26.24-.57.19-.88l-1.62-8.67c-.01-.07-.02-.14-.02-.22,0-.57.41-1.06.96-1.16.31-.06.62,0,.88.19.26.18.44.45.49.76l1.62,8.67c.1.56.59.96,1.16.96.07,0,.14,0,.22-.02.31-.06.58-.23.75-.49.18-.26.24-.57.19-.88l-1.7-9.11s-.01-.09-.01-.14c0-.35.25-.65.6-.72.32-.06.65.1.79.39,1.2,2.39,6.88,14.54,1.28,19.14-.36.29-.52.76-.42,1.22l3.31,14.92-5.11.95Zm-8.1-34.9s-.07,0-.1,0c-.12.02-.23.08-.31.17-.08.09-.13.2-.14.33-.25,2.64-1.16,15.91,5.59,18.14.5.17.87.6.95,1.13l2.27,14.93,4.76-.89-3.27-14.74c-.12-.52.07-1.06.48-1.39,5.5-4.52-.14-16.56-1.33-18.93-.11-.22-.36-.35-.6-.3-.27.05-.46.28-.46.55,0,.04,0,.07,0,.1l1.7,9.11c.07.35-.01.71-.21,1.01-.2.3-.51.5-.87.56-.09.02-.17.02-.25.02-.65,0-1.21-.46-1.33-1.1l-1.62-8.67c-.05-.26-.2-.49-.42-.65-.22-.15-.49-.21-.76-.16-.48.09-.82.51-.82.99,0,.06,0,.12.02.19l1.62,8.67c.07.35,0,.71-.21,1.01-.2.3-.51.5-.87.56-.09.02-.17.02-.25.02-.65,0-1.21-.46-1.33-1.1l-1.7-9.11c-.05-.27-.29-.46-.55-.46Z" fill="#3e2670"/>
    </g>
    <g fill="none" opacity=".6">
      <path d="m13.85,76.14c.05.25.16.47.33.64-.02,0-.04.01-.07.02-.08.01-.16.02-.23.02-.6,0-1.13-.42-1.24-1.03l-1.68-8.98s.04-.06.07-.09c.09-.1.22-.17.36-.2.35-.07.69.17.76.52l1.7,9.11Z" fill="#fff"/>
    </g>
    <g fill="none" opacity=".6">
      <path d="m18.48,75.28c.05.25.16.47.33.64-.02,0-.04.01-.07.02-.08.01-.16.02-.23.02-.6,0-1.13-.42-1.24-1.03l-1.62-8.67c-.03-.18-.11-.35-.22-.49.05-.02.1-.03.15-.04.59-.11,1.17.28,1.28.88l1.62,8.67Z" fill="#fff"/>
    </g>
    <g fill="none" opacity=".6">
      <path d="m24.62,100.47l-4.94.92-.08-.56,3.81-.71-3.29-14.83c-.11-.49.06-.99.45-1.31,5.38-4.42.24-15.89-1.18-18.8.09-.12.23-.21.39-.24.28-.05.57.09.7.35,1.22,2.44,6.84,14.48,1.3,19.04-.38.32-.55.82-.45,1.31l3.29,14.83Z" fill="#fff"/>
    </g>
    <path d="m19.23,102.04l-2.36-15.56c-.05-.3-.25-.55-.54-.64-3.09-1.03-5.05-4.19-5.83-9.39-.59-3.95-.32-7.9-.17-9.41.03-.26.13-.5.31-.69.19-.21.45-.34.73-.38.63-.08,1.22.36,1.34,1l1.69,9.08c.03.19.14.35.3.46.17.12.37.15.58.1.35-.09.58-.48.51-.86l-1.61-8.62c-.08-.43.01-.87.26-1.24.27-.39.7-.65,1.17-.71.85-.1,1.66.51,1.82,1.38l1.61,8.63c.03.19.14.35.3.46.15.1.34.14.52.11.17-.03.33-.13.43-.29.12-.17.17-.38.13-.58l-1.69-9.06c-.06-.32,0-.63.19-.9.18-.27.46-.44.77-.5.52-.1,1.06.18,1.31.67.68,1.37,2.37,4.97,3.23,8.86,1.13,5.11.43,8.75-2.07,10.82h0c-.23.19-.33.49-.26.79l3.41,15.37-6.06,1.13Zm-7.72-34.98s0,0,0,0c-.03,0-.05.02-.06.03,0,0-.02.03-.02.05-.25,2.57-1.15,15.5,5.25,17.64.68.23,1.17.81,1.28,1.53l2.19,14.43,3.81-.71-3.16-14.25c-.16-.71.09-1.43.64-1.88h0c5.19-4.29-.29-16.02-1.44-18.33-.02-.05-.08-.08-.11-.08-.03,0-.05.02-.06.04,0,.01-.02.04-.01.07l1.69,9.06c.09.49-.02,1-.31,1.41-.28.4-.69.67-1.15.75-.47.09-.95-.02-1.35-.29-.4-.28-.67-.69-.76-1.17l-1.61-8.63c-.06-.3-.32-.51-.6-.48-.21.02-.33.16-.39.23-.08.12-.11.26-.08.4l1.61,8.62c.18.97-.4,1.9-1.33,2.14-.51.13-1.04.03-1.47-.26-.4-.28-.67-.69-.76-1.17l-1.69-9.08c-.01-.06-.06-.11-.1-.11Zm10.28,17.27h0,0Z" fill="#272727"/>
    <g>
      <path d="m26.41,123.72c-2.06.39-4.04-1.02-4.35-3.09l-.36-2.31-1.59-10.13-1.2-7.64c-.2-1.3.66-2.52,1.95-2.76l1.41-.26c1.29-.24,2.53.59,2.81,1.87l1.45,6.72,2.21,10.25.62,2.9c.45,2.05-.88,4.07-2.95,4.46Z" fill="#3db54a"/>
      <path d="m25.71,123.87c-.78,0-1.54-.24-2.19-.7-.85-.6-1.4-1.5-1.56-2.53l-3.16-20.07c-.21-1.35.67-2.6,2.02-2.85l1.41-.26c1.34-.25,2.62.6,2.91,1.93l4.29,19.86c.22,1.01.03,2.05-.54,2.92-.57.87-1.45,1.45-2.47,1.64h0c-.24.04-.47.07-.71.07Zm-3.01-26.3c-.14,0-.29.01-.44.04l-1.41.26c-1.25.23-2.08,1.4-1.88,2.66l3.16,20.07c.15.98.68,1.84,1.49,2.42.81.58,1.79.79,2.77.61h0c.98-.18,1.82-.74,2.36-1.57.55-.83.73-1.82.52-2.79l-4.29-19.86c-.24-1.1-1.19-1.85-2.28-1.85Z" fill="#3e2670"/>
    </g>
    <g fill="none" opacity=".6">
      <path d="m28.42,122.62c.3-.69.39-1.48.22-2.28l-.62-2.9-2.21-10.25-1.45-6.72c-.28-1.28-1.52-2.11-2.81-1.87l-1.41.26c-.44.08-.83.28-1.15.55.26-.82.96-1.47,1.86-1.63l1.41-.26c1.29-.24,2.53.59,2.81,1.87l1.45,6.72,2.21,10.25.62,2.9c.28,1.25-.11,2.5-.93,3.36Z" fill="#fff"/>
    </g>
    <g fill="none" opacity=".3">
      <path d="m26.41,123.72c-2.06.39-4.04-1.02-4.35-3.09l-.27-1.69c.62,1.65,2.35,2.67,4.15,2.34,1.83-.34,3.09-1.97,3.03-3.76l.38,1.76c.45,2.05-.88,4.07-2.95,4.46Z" fill="#3e2670"/>
    </g>
    <path d="m25.71,124.34c-.88,0-1.73-.27-2.46-.79-.95-.68-1.57-1.68-1.75-2.84l-3.16-20.07c-.25-1.6.8-3.09,2.39-3.39l1.41-.26c1.6-.3,3.11.71,3.46,2.3l4.29,19.86c.25,1.14.04,2.3-.61,3.28-.64.97-1.63,1.63-2.78,1.84-.27.05-.53.07-.79.07Zm-3.01-26.3c-.12,0-.23.01-.35.03l-1.41.26c-1,.19-1.66,1.12-1.5,2.13l3.16,20.07c.13.86.59,1.6,1.29,2.1.7.5,1.56.69,2.41.53h0c.85-.16,1.58-.64,2.06-1.36.48-.72.64-1.58.45-2.43l-4.29-19.87c-.19-.88-.95-1.47-1.82-1.47Z" fill="#272727"/>
    <circle cx="22.16" cy="100.93" r=".98" fill="#272727"/>
  </g>
</svg>