<svg id="a" xmlns="http://www.w3.org/2000/svg" viewBox="0 0 128 128"><defs><style>.cls-1,.cls-11,.cls-12{fill:none;}.cls-1,.cls-12{stroke:#231f20;stroke-linecap:round;stroke-linejoin:round;}.cls-1{stroke-width:2.93px;}.cls-2{fill:#fff;}.cls-3{fill:#231f20;}.cls-4,.cls-9{fill:#ffb0cb;}.cls-12,.cls-4{fill-rule:evenodd;}.cls-5{fill:#ff78a7;}.cls-6{opacity:0.2;}.cls-7{fill:#52525b;}.cls-8{fill:#ff8080;}.cls-10{fill:#ff5fa0;}.cls-11{stroke:#000;stroke-width:0.59px;}.cls-12{stroke-width:1.76px;}</style></defs><path class="cls-1" d="M86.19,62.78c1.33,1.42,5.86,7.89,6.84,11,2.08,5.35,4.37,17.81,9.54,17a8.13,8.13,0,0,1-3.64,5.47s1.33,2.06,1.45,6.5c0,0-2.11-1.9-6.7,1.5-11.79,11.4-46.14,11.28-59.46-1.51,0,0-2-1.32-5.15,1.15,0,0-2.11-4.21.63-6.67,0,0-3.82-3.14-4.55-5.63C36.3,95.51,30,76.27,43,62.12c0,0,6.67-6.24,12.87-7.21-4.75.74,12.31-2.15,18.49.19C74.38,55.1,82.91,58.32,86.19,62.78Z"/><path class="cls-2" d="M86.19,62.78c1.33,1.42,5.86,7.89,6.84,11,2.08,5.35,4.37,17.81,9.54,17a8.13,8.13,0,0,1-3.64,5.47s1.33,2.06,1.45,6.5c0,0-2.11-1.9-6.7,1.5-11.79,11.4-46.14,11.28-59.46-1.51,0,0-2-1.32-5.15,1.15,0,0-2.11-4.21.63-6.67,0,0-3.82-3.14-4.55-5.63C36.3,95.51,30,76.27,43,62.12c0,0,6.67-6.24,12.87-7.21-4.75.74,12.31-2.15,18.49.19C74.38,55.1,82.91,58.32,86.19,62.78Z"/><path class="cls-3" d="M71.22,97.44a.92.92,0,0,1-1.09-1.1,12.59,12.59,0,0,0,.27-2.46.9.9,0,0,1,.93-.89.91.91,0,0,1,.89.93C72,96.13,72.17,97.14,71.22,97.44Z"/><path class="cls-4" d="M86.78,92c5.83-.27,6.11,4.65.29,5S81,92.4,86.78,92Z"/><path class="cls-4" d="M50.81,91.92c5.83.32,5.61,5.24-.22,5S45,91.72,50.81,91.92Z"/><path class="cls-5" d="M68.82,91.41c.53-1,4.47-.6,5.33.11S72.9,94.12,71.28,94c-1.35-.06-2.87-1.88-2.46-2.63Z"/><path class="cls-3" d="M72.08,94.63c-1.85.55-4.59-1.72-3.84-3.54h0c1.11-1.58,5.18-.91,6.33-.09C76,92.46,73.75,94.23,72.08,94.63Zm-2.66-2.9a2.63,2.63,0,0,0,1.9,1.64A3,3,0,0,0,73.67,92C72.92,91.49,70,91.31,69.42,91.73Zm0,0Zm0-.06"/><g class="cls-6"><path class="cls-7" d="M102.47,90.35h-.09a38.77,38.77,0,0,1-6,3.55.93.93,0,0,0-.29,1.46c2.25,2.5,2.6,3.58,2.6,3.58-6.55-1.26-12.36,7.54-29.25,8.56S41,102.16,38,99.35s-7.85,0-7.85,0c.24-1.24.82-2.36,2.16-2.45,2.14-.15,1.81-1.12,1.81-1.12-2.45-.33-5.54-2.45-7.85-4.32a8.18,8.18,0,0,1-1.17-.3c.72,2.5,4.55,5.64,4.55,5.64a4.41,4.41,0,0,0-1,5.15c3.14-2.47,5.16-1.16,5.16-1.16,13.34,12.81,47.71,12.9,59.45,1.51,4.6-3.4,6.71-1.49,6.71-1.49a20.21,20.21,0,0,0-.28-2.88c.07.26.14.55.21.86a9.64,9.64,0,0,0-1-3A8.07,8.07,0,0,0,102.47,90.35Z"/></g><path class="cls-2" d="M55.37,61.7C50.74,52,61.84,39.72,65,34.34c5.3-8.89,3.13-15.74,1.08-16.19-2.21-.48-3.22,2.42-9.29,6.91-3.57,2.64-18.16,11.07-16.52,26.8.87,8.36,4.52,13.16,7.27,14.68"/><path class="cls-3" d="M47.67,67.29a.7.7,0,0,1-.46-.09c-3-1.63-6.76-6.61-7.66-15.26A23.66,23.66,0,0,1,45,34.31a46,46,0,0,1,10.2-9c.47-.33.89-.61,1.2-.85a48.28,48.28,0,0,0,5.37-4.63c1.78-1.73,2.86-2.77,4.54-2.4a3.28,3.28,0,0,1,2.07,2.12c1.24,2.87,1.29,8.57-2.67,15.21-.59,1-1.43,2.19-2.4,3.57C59,44.48,52.46,53.81,56.06,61.37a.76.76,0,1,1-1.38.66c-4-8.36,2.84-18.13,7.36-24.59,1-1.37,1.78-2.54,2.34-3.49C68,27.81,68.06,22.67,67,20.14c-.39-.89-.81-1.2-1-1.24-.84-.19-1.46.37-3.14,2a50.65,50.65,0,0,1-5.53,4.77l-1.24.88c-4.92,3.4-16.42,11.37-15,25.23C42,60.4,45.81,64.69,48,65.87a.77.77,0,0,1,.3,1A.76.76,0,0,1,47.67,67.29Z"/><path class="cls-8" d="M64.47,22.56v.73c0,3.8-.6,7.27-8.09,15.26a24.33,24.33,0,0,0-6.75,19.18c.12,3.31-2.54,4.93-3.58,3.26C43.22,56.47,42,48.2,43.49,43.91c3.13-8.84,11.87-12.56,17.16-17.5C62.89,24.32,64.47,22.56,64.47,22.56Z"/><path class="cls-9" d="M64.47,22.55v.74a17.46,17.46,0,0,1-.07,1.77.15.15,0,0,1,0,.07l0,.29v0c-.37,3.12-1.91,6.63-8,13.1a24.33,24.33,0,0,0-6.75,19.18c.12,3.31-2.54,4.93-3.58,3.26A24.49,24.49,0,0,1,43,51.25a.07.07,0,0,0,0,0v0a17.37,17.37,0,0,1,.51-7.25c3.13-8.83,11.87-12.56,17.16-17.5C62.89,24.32,64.47,22.55,64.47,22.55Z"/><path class="cls-10" d="M64.36,25.45c-.37,3.12-1.91,6.63-8,13.1a24.33,24.33,0,0,0-6.75,19.18c.12,3.31-2.54,4.93-3.58,3.26A24.49,24.49,0,0,1,43,51.25c.11.69.76,4.36,2.89,3.36,2.48-1.16,1.19-8,5.66-13.94C55.39,35.56,63.54,32.15,64.36,25.45Z"/><path class="cls-3" d="M47.43,62.31a2,2,0,0,1-2-1c-3-4.75-4.22-13.17-2.62-17.66C45.16,37.2,50.41,33.37,55,30a54.12,54.12,0,0,0,5.15-4.07c2.19-2,3.76-3.79,3.78-3.81a.65.65,0,0,1,.73-.18.67.67,0,0,1,.44.62v.74c0,3.91-.62,7.56-8.27,15.72a23.54,23.54,0,0,0-6.59,18.36l0,.33c.09,2.44-1.19,4.13-2.49,4.53A2.87,2.87,0,0,1,47.43,62.31Zm16.35-38c-.67.7-1.59,1.62-2.68,2.63a57.33,57.33,0,0,1-5.27,4.17c-4.7,3.43-9.55,7-11.71,13.07-1.46,4.1-.24,12.12,2.49,16.5a.65.65,0,0,0,.8.31c.8-.25,1.61-1.45,1.55-3.19l0-.33a24.8,24.8,0,0,1,7-19.34C62.54,31,63.63,27.55,63.78,24.27Z"/><path class="cls-2" d="M72.45,59.15c1.52-5.61,4.2-10.41,7.43-13.27,10.29-9.12,25.33-6.48,32-6.49,4,0,9-.77,9.46.29.57,1.29-1.89,6.85-5.1,9.52-10.73,8.94-30.13,6-36.37,15.18"/><path class="cls-3" d="M72.45,59.15A22,22,0,0,1,76,49.4c3.18-5,8.63-8.28,14.25-9.77,6.79-1.84,13.81-1.32,20.69-1,2.23.07,4.5-.13,6.81-.22,4.06-.15,5.3.33,3.62,4.54a19.13,19.13,0,0,1-3.86,5.94c-3.39,3.28-8,5.06-12.39,6.37s-9,2.12-13.35,3.24a28.64,28.64,0,0,0-9.23,3.78,27.55,27.55,0,0,0-2.68,2.07,7.56,7.56,0,0,1,2-2.93,18.21,18.21,0,0,1,6.2-3.35c9.48-3.27,20.82-3,28.5-10.11a17.91,17.91,0,0,0,3.56-5.52,6,6,0,0,0,.59-2.49v0h0v0s0,0,0,0a.58.58,0,0,0-.18-.07,1.6,1.6,0,0,0-.33-.07,14.15,14.15,0,0,0-2.44-.05c-2.26.09-4.56.32-6.9.26s-4.57-.22-6.86-.28c-6.69-.19-13.66.43-19.61,3.71a22.31,22.31,0,0,0-5.26,4c-3.09,3.35-4.8,7.54-6.74,11.63Z"/><path class="cls-8" d="M117.84,42.85c-.31,1.69-5.19,5.74-9.16,7.43-8.33,3.55-17.34,1.89-27.14,8.63-1.75,1.21-3.05,3-4.12,2.77-.75-.19-.71-2.17-.52-3.18C78,52.37,83.14,46.28,94.64,45.61,112.68,44.56,117.93,42.4,117.84,42.85Z"/><path class="cls-9" d="M117.84,42.84c-.31,1.71-5.19,5.75-9.16,7.44-7.71,3.28-16,2.11-25,7.26-.72.41-1.45.87-2.18,1.37-1.75,1.21-3.05,3-4.12,2.77-.75-.19-.71-2.17-.52-3.18C78,52.37,83.14,46.28,94.64,45.61,112.68,44.56,117.93,42.4,117.84,42.84Z"/><path class="cls-10" d="M117.84,42.84c-2.36,2-24.73,4.3-29.92,6.12S79.65,56.18,80,57.39c.26.93,2.08.63,3.74.15-.72.41-1.45.87-2.18,1.37-1.75,1.21-3.05,3-4.12,2.77-.75-.19-.71-2.17-.52-3.18C78,52.37,83.14,46.28,94.64,45.61,112.68,44.56,117.93,42.4,117.84,42.84Z"/><path class="cls-3" d="M77.61,62.35a1.32,1.32,0,0,1-.34,0c-1.63-.4-1-3.78-1-3.93a14.77,14.77,0,0,1,5.2-8.87c3.25-2.7,7.67-4.23,13.14-4.55a142.22,142.22,0,0,0,21.71-2.58c1.37-.29,1.66-.35,2,0a.66.66,0,0,1,.19.61h0c-.4,2.16-5.72,6.29-9.55,7.92a45,45,0,0,1-10.25,2.63c-5.37.94-10.93,1.92-16.77,5.94a16.27,16.27,0,0,0-1.63,1.33C79.33,61.63,78.5,62.37,77.61,62.35Zm0-1.3c.38,0,1.13-.64,1.8-1.24a17.67,17.67,0,0,1,1.75-1.43C87.25,54.2,93,53.2,98.46,52.23a44.27,44.27,0,0,0,10-2.55,24.38,24.38,0,0,0,8.3-6.06l-.15,0c-2.45.51-9,1.85-21.89,2.61-13.59.79-16.52,8.9-17.14,12.35A4.74,4.74,0,0,0,77.62,61.05Zm40.22-18.2h0Z"/><path class="cls-11" d="M81,87.32a1.93,1.93,0,0,1-2.68-.42A1.91,1.91,0,0,1,78,85.47a1.83,1.83,0,0,1,.77-1.24l1.5-1.08L78.76,82a1.92,1.92,0,0,1-.33-2.69,1.82,1.82,0,0,1,1.28-.72,1.77,1.77,0,0,1,1.4.39l2.33,1.83,3-2.2a1.8,1.8,0,0,1,1.42-.33,1.84,1.84,0,0,1,1.25.77,1.8,1.8,0,0,1,.33,1.42,1.86,1.86,0,0,1-.76,1.25l-2.14,1.54,2.08,1.62a1.85,1.85,0,0,1,.72,1.26A1.9,1.9,0,0,1,89,87.57a1.82,1.82,0,0,1-1.28.72,1.85,1.85,0,0,1-1.41-.4l-3-2.29Z"/><path class="cls-11" d="M55.1,85.6l-3,2.29a1.85,1.85,0,0,1-1.41.4,1.82,1.82,0,0,1-1.28-.72,1.85,1.85,0,0,1-.38-1.42,1.81,1.81,0,0,1,.71-1.26l2.08-1.62-2.14-1.54A1.86,1.86,0,0,1,49,80.48a1.9,1.9,0,0,1,1.58-2.19,1.8,1.8,0,0,1,1.42.33l3,2.2L57.34,79a1.91,1.91,0,0,1,2.68.33,1.89,1.89,0,0,1,.39,1.41A1.82,1.82,0,0,1,59.69,82l-1.46,1.14,1.5,1.08a1.8,1.8,0,0,1,.77,1.24,1.91,1.91,0,0,1-.33,1.43,1.82,1.82,0,0,1-1.25.76,1.8,1.8,0,0,1-1.42-.34Z"/><path class="cls-12" d="M65.71,97.47a30.17,30.17,0,0,1,10,.57"/></svg>