<svg id="a" xmlns="http://www.w3.org/2000/svg" viewBox="0 0 128 128"><defs><style>.cls-1{fill:none;stroke:#231f20;stroke-linecap:round;stroke-linejoin:round;stroke-width:2.95px;}.cls-2,.cls-4{fill:#fff;}.cls-3,.cls-6{fill:#231f20;}.cls-3,.cls-4,.cls-7{fill-rule:evenodd;}.cls-5{opacity:0.35;}.cls-12,.cls-7{fill:#ffb0cb;}.cls-8{fill:#ff78a7;}.cls-9{opacity:0.2;}.cls-10{fill:#52525b;}.cls-11{fill:#ff8080;}.cls-13{fill:#ff5fa0;}</style></defs><path class="cls-1" d="M83.8,59.62c1.35,1.44,5.91,8,6.9,11.07,2.1,5.4,4.41,18,9.62,17.19a8.18,8.18,0,0,1-3.67,5.51S98,95.48,98.12,100c0,0-2.13-1.92-6.76,1.52-11.9,11.5-46.55,11.37-60-1.53,0,0-2-1.33-5.2,1.16,0,0-2.12-4.24.64-6.72,0,0-3.86-3.17-4.59-5.69,11.25,4,4.9-15.46,18-29.74,0,0,6.73-6.28,13-7.27-4.79.76,12.41-2.16,18.65.2C71.88,51.88,80.49,55.13,83.8,59.62Z"/><path class="cls-2" d="M83.8,59.62c1.35,1.44,5.91,8,6.9,11.07,2.1,5.4,4.41,18,9.62,17.19a8.18,8.18,0,0,1-3.67,5.51S98,95.48,98.12,100c0,0-2.13-1.92-6.76,1.52-11.9,11.5-46.55,11.37-60-1.53,0,0-2-1.33-5.2,1.16,0,0-2.12-4.24.64-6.72,0,0-3.86-3.17-4.59-5.69,11.25,4,4.9-15.46,18-29.74,0,0,6.73-6.28,13-7.27-4.79.76,12.41-2.16,18.65.2C71.88,51.88,80.49,55.13,83.8,59.62Z"/><path class="cls-3" d="M79.33,75.09c6.2-.54,7.29,11.67,1.09,12.24S73.14,75.65,79.33,75.09Z"/><path class="cls-4" d="M78.11,77.75c2-.18,2.39,4.39.41,4.56S76.13,77.92,78.11,77.75Z"/><g class="cls-5"><path class="cls-4" d="M82.9,81c1.08.38,0,4.13-1.19,3.68s0-4.14,1.19-3.68Z"/></g><path class="cls-6" d="M48.42,85.81c-.21-3.06,1.24-6.72,4.44-7.62a5.34,5.34,0,0,1,5.43,1.55,7.53,7.53,0,0,1,1.57,5A6.78,6.78,0,0,1,59.75,86,.39.39,0,0,1,59,86c-.55-2.28-1.29-5-3.73-5.59a3.92,3.92,0,0,0-4,1.63,15.19,15.19,0,0,0-2.07,3.9A.4.4,0,0,1,48.42,85.81Z"/><path class="cls-3" d="M59.49,91.57c1.75,4,4.9,5.84,8.93,3.17,3.35,2.47,6.77.88,7.59-2.62a.33.33,0,0,0-.64-.19c-.57,1.32-2.7,3.23-4.74,2.09-1.6-.63-1.74-1.71-2.8-1-1.64,1.27-3.67,1.94-5.77.19A13.88,13.88,0,0,1,60,91.26a.29.29,0,0,0-.5.31Z"/><path class="cls-6" d="M68.69,94.6a.93.93,0,0,1-1.09-1.12A12.82,12.82,0,0,0,67.87,91a.92.92,0,0,1,1.84,0C69.53,93.28,69.65,94.3,68.69,94.6Z"/><path class="cls-3" d="M63.35,94.11c-.48-.31-1,.18-.88.7l-.12,0c1.15,8.74,10.31,7.71,10.91.34A.84.84,0,0,0,73,94.5a.83.83,0,0,0-.71-.18c-.92.39-3.22-1-3.39-1.23-1-.59-1,.48-2.71,1.06a3.64,3.64,0,0,1-2.81.06l0-.1ZM64,95.72a6.34,6.34,0,0,0,4.36-1.15,7,7,0,0,0,3.07,1.36c-1.12,4.75-6.19,4.59-7.43-.21Z"/><path class="cls-3" d="M63.09,94.76c1.94,1.23,5.36-.93,5.32-1.11,0,0,2.21,1.87,4,1.46-.08,5.3-7.88,8.32-9.37-.35Z"/><path class="cls-7" d="M84.4,89.11c5.87-.27,6.16,4.69.29,5.09S78.52,89.51,84.4,89.11Z"/><path class="cls-7" d="M48.11,89c5.87.33,5.65,5.29-.23,5.1S42.23,88.83,48.11,89Z"/><path class="cls-7" d="M65.53,95a6.62,6.62,0,0,0,2.88-1.39,7.45,7.45,0,0,0,2.69,1.41c-.65,3.7-4.91,3.66-5.57,0Z"/><path class="cls-6" d="M69,98.71c-2.08.44-3.92-1.13-4.39-3.5a.89.89,0,0,1,.14-.69,1,1,0,0,1,.6-.39A5.69,5.69,0,0,0,67.8,93c1.19-.8,1.49.76,3.51,1.21A.91.91,0,0,1,72,95.23,4.19,4.19,0,0,1,69,98.71Zm-2.32-3a1.68,1.68,0,0,0,3.26,0,9.37,9.37,0,0,1-1.55-.85A7.69,7.69,0,0,1,66.7,95.67Z"/><path class="cls-8" d="M66.28,88.51c.53-1,4.5-.61,5.37.11s-1.25,2.62-2.89,2.54c-1.37-.06-2.9-1.89-2.48-2.65Z"/><path class="cls-6" d="M69.56,91.76c-1.86.56-4.63-1.73-3.87-3.57h0c1.12-1.59,5.22-.92,6.39-.09C73.48,89.57,71.25,91.35,69.56,91.76Zm-2.68-2.93a2.66,2.66,0,0,0,1.91,1.66,3,3,0,0,0,2.38-1.39C70.41,88.59,67.44,88.41,66.88,88.83Zm0,0Zm0-.06"/><g class="cls-9"><path class="cls-10" d="M100.23,87.44h-.09A40.43,40.43,0,0,1,94.06,91a.94.94,0,0,0-.29,1.48C96,95,96.39,96.12,96.39,96.12c-6.6-1.27-12.47,7.6-29.51,8.63S38.2,99.36,35.14,96.52s-7.92,0-7.92,0c.24-1.25.83-2.38,2.18-2.47,2.15-.15,1.83-1.13,1.83-1.13-2.48-.33-5.6-2.48-7.93-4.36a8.61,8.61,0,0,1-1.18-.3c.73,2.52,4.59,5.69,4.59,5.69a4.44,4.44,0,0,0-1,5.19c3.17-2.49,5.2-1.16,5.2-1.16,13.46,12.92,48.13,13,60,1.52C95.55,96.06,97.68,98,97.68,98a20.52,20.52,0,0,0-.28-2.9c.07.26.15.55.21.87a9.8,9.8,0,0,0-1-3A8.16,8.16,0,0,0,100.23,87.44Z"/></g><path class="cls-2" d="M54.62,56.85c-3.21-10.37,9.66-21,13.64-25.9,6.59-8.11,5.43-15.26,3.45-16-2.14-.81-3.57,1.94-10.28,5.54-4,2.12-19.75,8.4-20.41,24.34-.36,8.48,2.59,13.81,5.11,15.72"/><path class="cls-6" d="M46.12,61.31a.75.75,0,0,1-.45-.16c-2.73-2.07-5.79-7.59-5.42-16.36a23.85,23.85,0,0,1,8-16.8,46.27,46.27,0,0,1,11.49-7.52c.52-.26,1-.48,1.32-.67a49.12,49.12,0,0,0,6-3.84c2-1.47,3.26-2.35,4.88-1.74a3.32,3.32,0,0,1,1.76,2.43c.82,3,0,8.73-4.88,14.79-.74.9-1.75,2-2.92,3.21-5.21,5.54-13.08,13.9-10.58,22a.79.79,0,0,1-.51,1,.78.78,0,0,1-1-.51c-2.76-8.93,5.49-17.69,10.94-23.48C66,32.38,67,31.33,67.66,30.46c4.55-5.6,5.32-10.72,4.6-13.41-.26-.95-.64-1.32-.82-1.39-.81-.3-1.51.16-3.43,1.55a51.91,51.91,0,0,1-6.22,3.95c-.37.2-.83.43-1.36.69-5.41,2.68-18.06,9-18.64,23-.37,8.74,2.85,13.58,4.81,15.06A.78.78,0,0,1,46.75,61,.79.79,0,0,1,46.12,61.31Z"/><path class="cls-11" d="M69.42,19.1c0,.24-.07.49-.11.73C68.75,23.62,67.65,27,59,33.88a24.62,24.62,0,0,0-9.55,18.17c-.35,3.32-3.25,4.55-4.05,2.73-2.16-4.93-2.21-13.36-.06-17.42C49.77,29,59,26.54,65,22.39,67.58,20.63,69.42,19.1,69.42,19.1Z"/><path class="cls-12" d="M69.42,19.1c0,.24-.07.49-.11.73-.09.59-.19,1.17-.33,1.76,0,0,0,.05,0,.07a2.86,2.86,0,0,1-.07.28v0C68.06,25,66,28.31,59,33.88a24.62,24.62,0,0,0-9.55,18.17c-.35,3.32-3.25,4.55-4.05,2.73a24.73,24.73,0,0,1-1.62-10.17v-.09a17.69,17.69,0,0,1,1.56-7.16C49.77,29,59,26.54,65,22.39,67.58,20.63,69.42,19.1,69.42,19.1Z"/><path class="cls-13" d="M68.88,22C68.06,25,66,28.31,59,33.88a24.62,24.62,0,0,0-9.55,18.17c-.35,3.32-3.25,4.55-4.05,2.73a24.73,24.73,0,0,1-1.62-10.17c0,.71.12,4.46,2.39,3.78,2.65-.8,2.35-7.82,7.68-13.09C58.46,30.76,67.09,28.54,68.88,22Z"/><path class="cls-6" d="M46.6,56.3a2,2,0,0,1-1.81-1.25c-2.26-5.17-2.28-13.76,0-18,3.25-6.14,9-9.2,14.17-11.9a58.21,58.21,0,0,0,5.73-3.3C67.14,20.11,69,18.59,69,18.58a.67.67,0,0,1,.76-.07.65.65,0,0,1,.34.68c0,.25-.06.5-.1.74-.58,3.91-1.72,7.45-10.55,14.48a23.76,23.76,0,0,0-9.26,17.38l0,.33c-.27,2.45-1.79,3.94-3.15,4.15ZM68.48,20.71c-.77.6-1.83,1.39-3.06,2.24a58.54,58.54,0,0,1-5.87,3.39C54.36,29.07,49,31.9,46,37.67c-2.05,3.88-2,12.07.08,16.84a.65.65,0,0,0,.75.43c.84-.13,1.82-1.21,2-3l0-.32a25,25,0,0,1,9.75-18.29C66.26,27.24,67.85,24,68.48,20.71Z"/><path class="cls-2" d="M69.93,56c1.55-5.66,4.25-10.5,7.5-13.39C87.81,33.37,103,36,109.73,36c4.09,0,9.07-.77,9.54.29.58,1.31-1.91,6.92-5.14,9.62-10.83,9-30.4,6-36.69,15.3"/><path class="cls-6" d="M69.93,56a22.33,22.33,0,0,1,3.61-9.84c3.21-5.07,8.7-8.35,14.37-9.85,6.85-1.86,13.94-1.33,20.88-1,2.25.07,4.54-.14,6.87-.22,4.1-.15,5.35.33,3.65,4.58a19.44,19.44,0,0,1-3.89,6c-3.42,3.31-8,5.1-12.5,6.43s-9,2.14-13.47,3.27a28.81,28.81,0,0,0-9.31,3.81,26.71,26.71,0,0,0-2.7,2.08,7.51,7.51,0,0,1,2-2.94A18.28,18.28,0,0,1,85.7,54.9c9.57-3.3,21-3,28.76-10.2a18.11,18.11,0,0,0,3.59-5.57,5.93,5.93,0,0,0,.6-2.51v0h0l0,0s0,.05,0,0a.58.58,0,0,0-.18-.07,1.57,1.57,0,0,0-.34-.07,14.38,14.38,0,0,0-2.46-.05c-2.27.09-4.59.32-7,.26s-4.61-.22-6.92-.28c-6.75-.2-13.79.43-19.78,3.75a22.29,22.29,0,0,0-5.32,4c-3.11,3.37-4.83,7.6-6.8,11.73Z"/><path class="cls-11" d="M115.74,39.51c-.32,1.72-5.24,5.8-9.25,7.51-8.4,3.57-17.49,1.9-27.38,8.7C77.34,56.94,76,58.77,75,58.51c-.76-.18-.71-2.18-.53-3.2,1.12-6.19,6.3-12.34,17.91-13C110.52,41.24,115.82,39.06,115.74,39.51Z"/><path class="cls-12" d="M115.74,39.51c-.32,1.72-5.24,5.8-9.25,7.51-7.78,3.31-16.14,2.12-25.19,7.32q-1.08.63-2.19,1.38C77.34,56.94,76,58.77,75,58.51c-.76-.18-.71-2.18-.53-3.21,1.13-6.18,6.3-12.33,17.91-13C110.52,41.24,115.82,39.06,115.74,39.51Z"/><path class="cls-13" d="M115.74,39.51c-2.39,2.05-25,4.33-30.19,6.17s-8.34,7.28-8,8.5c.25.94,2.1.64,3.76.16q-1.08.63-2.19,1.38C77.34,56.94,76,58.77,75,58.51c-.76-.18-.71-2.18-.53-3.21,1.13-6.18,6.3-12.33,17.91-13C110.52,41.24,115.82,39.06,115.74,39.51Z"/><path class="cls-6" d="M75.14,59.19a1.32,1.32,0,0,1-.34,0c-1.65-.4-1-3.82-1-4a15,15,0,0,1,5.25-9c3.28-2.72,7.74-4.26,13.26-4.59,12.95-.75,19.45-2.09,21.9-2.6,1.39-.29,1.67-.35,2,0a.7.7,0,0,1,.19.62h0c-.4,2.18-5.77,6.34-9.63,8A46,46,0,0,1,96.4,50.27c-5.42.95-11,1.94-16.92,6a18.12,18.12,0,0,0-1.64,1.35C76.88,58.46,76,59.21,75.14,59.19Zm0-1.31c.38,0,1.14-.65,1.81-1.25a18,18,0,0,1,1.78-1.45C84.87,51,90.62,50,96.18,49a44.53,44.53,0,0,0,10-2.57,24.47,24.47,0,0,0,8.37-6.12l-.15,0c-2.47.52-9,1.87-22.08,2.63-13.72.8-16.67,9-17.3,12.47A4.83,4.83,0,0,0,75.15,57.88Zm40.59-18.37Z"/></svg>