<svg xmlns="http://www.w3.org/2000/svg" viewBox="0 0 128 128"><defs><style>.cls-1{isolation:isolate;}.cls-2{fill:#fff;}.cls-3{fill:#2c2c2e;stroke:#141313;stroke-miterlimit:10;stroke-width:7.57px;}.cls-4{fill:#e566ff;}.cls-5{fill:#a7a9ac;opacity:0.2;}.cls-5,.cls-6{mix-blend-mode:screen;}.cls-6{fill:#58595b;opacity:0.4;}</style></defs><g class="cls-1"><g id="a"><path class="cls-2" d="M110.52,61.65A25.31,25.31,0,0,0,86,40.7c-13.9-.13-27.81-.05-41.72,0a26.71,26.71,0,0,0-3.79.36c-1,.15-2,.42-3.08.65V40.62c0-5.34,0-10.68,0-16a6,6,0,1,0-12,.11c0,8.1,0,16.2,0,24.3a3.18,3.18,0,0,1-.53,1.6c-5.92,8.67-6.66,17.67-1.77,27,2.29,2.46,2.36,5.44,2.38,8.61a23.22,23.22,0,0,0,16.23,22.29l5.91,2a1.33,1.33,0,0,1,.71.39,7.11,7.11,0,0,0,4.22,2.82H63.7a3,3,0,0,1,.41-.18A6.06,6.06,0,0,0,68.8,108a40.34,40.34,0,0,0,0-6.41A6,6,0,0,0,62.51,96c-3,0-6-.1-8.94,0a5.63,5.63,0,0,0-3.37,1c-1.34,1.23-2.51,1-3.88.44-.52-.22-1.07-.35-1.58-.56a11.35,11.35,0,0,1-6.5-6.42,7.83,7.83,0,0,1-.29-.9l.19-.08.63.15a24.59,24.59,0,0,0,20.84-4.14c3.79-2.75,7.61-2.81,11.42-.05a24.85,24.85,0,0,0,19.2,4.56C103.41,88,112.84,74.78,110.52,61.65ZM51.29,102.06A2.16,2.16,0,0,1,53.57,100c1.51,0,3,0,4.55,0s2.86,0,4.28,0a2.24,2.24,0,0,1,2.45,2.42c0,1.64,0,3.29,0,4.93a2.23,2.23,0,0,1-2.34,2.44c-3,0-5.95,0-8.93,0a2.07,2.07,0,0,1-2.25-2.1C51.24,105.78,51.24,103.92,51.29,102.06ZM29.43,24a2,2,0,0,1,3.93,0,7.23,7.23,0,0,1,0,.93c0,5.84,0,11.67,0,17.51a1.4,1.4,0,0,1-.86,1.43c-1.05.57-2,1.27-3.16,2V25A7.17,7.17,0,0,1,29.43,24Zm15.25,77.1c.85.29,2,.37,2.44,1s.15,1.78.17,2.71c0,.4,0,.8,0,1.28-11.17-2.26-17.74-9.76-17.9-19.92v-1c1.36.85,2.62,1.62,3.84,2.43a1,1,0,0,1,.3.62C34.65,94.77,38.38,99.05,44.68,101.12Zm44.76-15a21.11,21.11,0,0,1-16.18-3.94,12.7,12.7,0,0,0-13.52-1.44,14.71,14.71,0,0,0-2.5,1.6A20.93,20.93,0,1,1,42.43,44.76a25.89,25.89,0,0,1,2.78-.15H65.05c6.92,0,13.85-.06,20.77,0a21.6,21.6,0,0,1,20.23,15.25A20.91,20.91,0,0,1,89.44,86.16Z"/><path class="cls-2" d="M84.93,48.64c-6.61,0-13.22,0-19.83,0h0c-6.92,0-13.85-.11-20.77,0A16.68,16.68,0,0,0,27.92,66a16.11,16.11,0,0,0,9.2,14.59c5.71,3,11.43,2.51,16.91-.87.65-.4,1.26-.9,1.89-1.34a16.84,16.84,0,0,1,19.53.49,17.43,17.43,0,0,0,12.77,3.44,16.86,16.86,0,0,0,13.4-22.92C98.9,52.81,92.46,48.67,84.93,48.64Zm-.35,29.75a15.16,15.16,0,0,1-6.8-2.77c-7.27-5-14.86-5.62-22.72-1.42A23.52,23.52,0,0,0,52.44,76a12.92,12.92,0,1,1-7.89-23.33c6.83-.06,13.66,0,20.49,0s13.6,0,20.39,0a13.59,13.59,0,0,1,13,9.61A12.94,12.94,0,0,1,84.58,78.39Z"/><circle class="cls-3" cx="64.32" cy="64.93" r="55.44"/><circle class="cls-4" cx="64.32" cy="64.93" r="55.44"/><path class="cls-5" d="M59.82,16.29a49.66,49.66,0,0,0-9.89,1A49.91,49.91,0,1,1,74,114.05a49.94,49.94,0,0,0,30.92-69.21,4.22,4.22,0,0,1-1.4,3.24c-2.46,2-7.31,0-10.82-4.33s-4.36-9.52-1.9-11.5c1.36-1.09,3.44-1,5.62,0A49.78,49.78,0,0,0,59.82,16.29Z"/><path class="cls-6" d="M30.36,20.92a55.62,55.62,0,0,1,89.4,44.21,56.53,56.53,0,0,1-.46,7.05A65,65,0,0,1,30.36,20.92Z"/><circle cx="64.06" cy="65.65" r="40.04"/><path class="cls-2" d="M90.87,48.62a18.4,18.4,0,0,0-26,0l-.54.55-.55-.55a18.39,18.39,0,0,0-26,26S59.54,93.39,64.32,93.34,90.87,74.63,90.87,74.63A18.38,18.38,0,0,0,90.87,48.62Z"/></g></g></svg>