<svg xmlns="http://www.w3.org/2000/svg" viewBox="0 0 128 128"><defs><style>.cls-1{isolation:isolate;}.cls-2{fill:#fff;}.cls-3{fill:#2c2c2e;stroke:#141313;stroke-miterlimit:10;stroke-width:7.65px;}.cls-4{fill:#009647;}.cls-5{fill:#a7a9ac;opacity:0.2;}.cls-5,.cls-6{mix-blend-mode:screen;}.cls-6{fill:#58595b;opacity:0.4;}.cls-7{fill:#b7b7b7;opacity:0.3;}</style></defs><g class="cls-1"><g id="a"><path class="cls-2" d="M109.48,68.31a25.32,25.32,0,0,0-24.54-21c-13.91-.13-27.82,0-41.73,0a25.6,25.6,0,0,0-3.79.37c-1,.14-2,.41-3.07.64V47.28c0-5.34,0-10.68,0-16a6,6,0,1,0-12,.11c0,8.1,0,16.2,0,24.3a3,3,0,0,1-.53,1.6c-5.91,8.67-6.65,17.67-1.76,27,2.29,2.46,2.36,5.45,2.37,8.61a23.25,23.25,0,0,0,16.23,22.29c2,.66,3.95,1.29,5.92,2a1.41,1.41,0,0,1,.71.39,7.11,7.11,0,0,0,4.22,2.82H62.66a2.87,2.87,0,0,1,.4-.18,6,6,0,0,0,4.69-5.5,40.35,40.35,0,0,0,0-6.41,6,6,0,0,0-6.29-5.62c-3,0-6-.1-8.93,0a5.68,5.68,0,0,0-3.38,1c-1.33,1.23-2.5,1-3.88.44-.51-.22-1.06-.35-1.58-.56a11.38,11.38,0,0,1-6.5-6.42c-.12-.29-.19-.61-.28-.9.13-.06.16-.08.19-.08l.63.15A24.56,24.56,0,0,0,58.56,92.2c3.8-2.75,7.61-2.81,11.43,0a24.87,24.87,0,0,0,19.19,4.57C102.37,94.62,111.79,81.44,109.48,68.31ZM50.25,108.72a2.16,2.16,0,0,1,2.27-2.11c1.52,0,3,0,4.56,0s2.85,0,4.28,0A2.25,2.25,0,0,1,63.81,109c0,1.64,0,3.29,0,4.93a2.23,2.23,0,0,1-2.34,2.44c-3,0-6,0-8.93,0a2.06,2.06,0,0,1-2.25-2.1C50.2,112.44,50.19,110.58,50.25,108.72Zm-21.86-78a2,2,0,0,1,2-1.71,2,2,0,0,1,1.91,1.7,7.23,7.23,0,0,1,0,.93c0,5.84,0,11.67,0,17.51a1.38,1.38,0,0,1-.85,1.43c-1.05.57-2,1.27-3.16,2V31.61A7.17,7.17,0,0,1,28.39,30.68Zm15.25,77.11c.85.28,2,.36,2.44,1s.15,1.78.17,2.71c0,.4,0,.8,0,1.28C35.09,110.48,28.52,103,28.36,92.83c0-.3,0-.6,0-1,1.36.85,2.61,1.62,3.84,2.43a1,1,0,0,1,.29.62C33.61,101.43,37.34,105.71,43.64,107.79Zm44.76-15a21.09,21.09,0,0,1-16.18-3.94A12.7,12.7,0,0,0,58.7,87.44,14.41,14.41,0,0,0,56.19,89a20.92,20.92,0,1,1-14.8-37.62,25.75,25.75,0,0,1,2.78-.15H64c6.92,0,13.85-.06,20.77,0A21.61,21.61,0,0,1,105,66.54,20.92,20.92,0,0,1,88.4,92.82Z"/><path class="cls-2" d="M83.89,55.31c-6.61,0-13.22,0-19.84,0v0c-6.92,0-13.84-.12-20.76,0A16.68,16.68,0,0,0,26.88,72.61a16.11,16.11,0,0,0,9.2,14.59c5.7,3,11.43,2.51,16.9-.86.66-.41,1.26-.91,1.9-1.35a16.84,16.84,0,0,1,19.53.49,17.41,17.41,0,0,0,12.77,3.44A16.85,16.85,0,0,0,100.57,66C97.86,59.48,91.42,55.33,83.89,55.31Zm-.35,29.74a15.15,15.15,0,0,1-6.81-2.77c-7.27-5-14.85-5.61-22.71-1.42a24,24,0,0,0-2.62,1.76,12.92,12.92,0,1,1-7.89-23.33c6.83-.06,13.66,0,20.49,0s13.59,0,20.39,0a13.55,13.55,0,0,1,13,9.6A12.93,12.93,0,0,1,83.54,85.05Z"/><circle class="cls-3" cx="64.32" cy="64.32" r="56.05"/><circle class="cls-4" cx="64.32" cy="64.32" r="56.05"/><path class="cls-5" d="M59.78,15.14a50.72,50.72,0,0,0-10,1A50.46,50.46,0,1,1,74.13,114a50.46,50.46,0,0,0,31.25-70A4.23,4.23,0,0,1,104,47.28c-2.49,2-7.39,0-10.94-4.38s-4.41-9.62-1.91-11.63c1.37-1.1,3.47-1,5.67.05A50.3,50.3,0,0,0,59.78,15.14Z"/><path class="cls-6" d="M30,19.82A56.18,56.18,0,0,1,119.9,71.64,65.33,65.33,0,0,1,95.1,76.5,65.75,65.75,0,0,1,30,19.82Z"/><circle cx="64.32" cy="64.32" r="38.92"/><path class="cls-2" d="M37.61,47.8c.17,11.6,2.93,22.43,9.53,32.12a51.23,51.23,0,0,0,16.6,15.32,1.17,1.17,0,0,0,1.16,0c13-7.7,21-18.95,24.52-33.58A63.31,63.31,0,0,0,91,45.54a2.87,2.87,0,0,0-2.76-2.74A40.56,40.56,0,0,1,68.1,36.09a24.72,24.72,0,0,1-3.34-2.6c-.34-.32-.52-.32-.88,0-5.92,5.2-13,7.93-20.65,9.07-1.56.23-3.14.3-4.72.39-.53,0-.68.17-.75.71C37.6,45,37.65,46.41,37.61,47.8Z"/><path class="cls-7" d="M37.76,43.65c.07-.54.22-.68.75-.71,1.58-.09,3.16-.16,4.72-.39,7.84-1.16,15-4,21-9.35l.12,0V95.44c-.74,0-1.48-1.06-4.62-3.33-4.57-3.31-8.94-7-12.18-11.63-6.87-9.83-9.74-20.86-9.91-32.68C37.65,46.41,37.6,45,37.76,43.65Z"/></g></g></svg>