<?xml version="1.0" encoding="UTF-8"?>
<svg id="a" data-name="Layer 1" xmlns="http://www.w3.org/2000/svg" viewBox="0 0 128 128">
  <g>
    <path d="m114.39,46.98c-.91-1.63-2.35-2.63-4.17-2.99-1.74-.34-3.41-.05-4.85,1-1.92,1.4-3.77,2.89-5.66,4.34-1.42,1.09-2.85,2.15-4.26,3.24-1.89,1.46-3.78,2.94-5.66,4.42-.32.25-.46.21-.61-.19-.77-2.07-1.57-4.12-2.35-6.18-.95-2.51-1.89-5.02-2.84-7.52-.3-.8-.53-1.65-.95-2.39-1.01-1.78-2.66-2.94-4.26-4.13-3.02-2.26-6.29-4.1-9.58-5.92-1.99-1.1-4.05-2.1-6.09-3.11-.85-.42-1.71-.97-2.63-1.12-2.11-.35-4.24-.53-6.37-.71-2.54-.21-5.09-.33-7.63-.49-4.6-.28-9.21-.56-13.81-.84-.12,0-.23,0-.35-.02-.99-.11-1.94-.03-2.9.28-2.79.9-4.44,3.73-4.24,6.42.03.38.15.76.2,1.14.25,2.09.47,4.18.73,6.26.31,2.47.64,4.93.96,7.4.29,2.28.59,4.55.86,6.83.31,2.59.61,5.17.89,7.76.3,2.85,1.62,4.94,4.42,5.88,2.39.8,4.78.12,6.47-1.72,1.48-1.6,1.77-3.57,1.48-5.67-.29-2.12-.57-4.24-.83-6.36-.17-1.34-.3-2.69-.47-4.02-.18-1.41-.41-2.82-.59-4.23-.19-1.51-.36-3.03-.54-4.54-.09-.81-.19-1.63-.28-2.48,4.25.34,8.43.68,12.62,1.02-.01.16,0,.24-.03.31-.5,1.22-1.02,2.43-1.51,3.66-1.14,2.84-2.3,5.68-3.4,8.55-.64,1.67-1.21,3.36-1.7,5.08-.53,1.83-.58,3.74-.45,5.63.17,2.6,1.2,4.82,3.16,6.57.94.84,1.89,1.68,2.82,2.53,2,1.82,3.98,3.66,5.98,5.47,2.46,2.23,4.95,4.43,7.42,6.65.97.87,1.92,1.74,2.97,2.68-.67.34-1.24.64-1.81.92-2.75,1.32-5.5,2.63-8.25,3.95-1.71.82-3.42,1.64-5.14,2.45-2.89,1.37-5.77,2.77-8.68,4.1-2.37,1.08-3.87,2.91-4.45,5.37-.59,2.49.05,4.79,1.69,6.78,2.05,2.48,5.54,3.31,8.43,2.24,1.61-.59,3.13-1.43,4.69-2.17,2.63-1.25,5.26-2.5,7.89-3.75,2.66-1.27,5.32-2.55,7.98-3.82,2.32-1.1,4.64-2.18,6.96-3.29,2.38-1.14,4.77-2.26,7.13-3.45.79-.4,1.61-.87,2.23-1.49,2.11-2.14,2.91-4.76,2.43-7.72-.21-1.33-.81-2.57-1.76-3.5-1.9-1.86-3.91-3.61-5.89-5.4-1.65-1.49-3.32-2.97-4.97-4.46-1.58-1.42-3.14-2.87-4.73-4.28-.27-.24-.33-.42-.15-.73.49-.85.96-1.7,1.44-2.55,1.25-2.24,2.49-4.49,3.74-6.73.09-.17.24-.31.41-.52.87,1.93,1.71,3.75,2.53,5.58.89,1.99,1.76,3.99,2.62,6,.63,1.46,1.64,2.56,3.06,3.22,2.28,1.06,4.45.77,6.47-.69,1.2-.86,2.38-1.75,3.56-2.62,2.74-2.03,5.48-4.07,8.22-6.09,2.02-1.49,4.06-2.96,6.09-4.45,1.48-1.09,2.91-2.25,4.43-3.28,2.7-1.84,3.29-5.5,1.83-8.1Z" fill="none" stroke="#231f20" stroke-width="5"/>
    <path d="m35.25,104.15c-.02-1.27.26-2.47.66-3.66.65-1.91,1.77-3.51,3.39-4.67,1.17-.84,2.5-1.47,3.8-2.12,1.91-.95,3.85-1.82,5.77-2.74.25-.12.49-.32.64-.54.97-1.4,1.92-2.82,2.88-4.23,1.3-1.94,2.59-3.89,3.91-5.82.19-.28.13-.46-.07-.64-1.33-1.19-2.67-2.37-4-3.56-1-.89-2-1.79-2.99-2.69-1.35-1.22-2.7-2.44-4.07-3.65-.09-.08-.34-.04-.48.03-.14.08-.24.24-.34.39-1.27,1.9-2.54,3.8-3.8,5.7-1.28,1.91-2.56,3.81-3.83,5.72-1.76,2.62-3.52,5.24-5.29,7.87-1.23,1.83-2.47,3.66-3.7,5.5-1.74,2.59-3.47,5.19-5.21,7.78-1.9,2.85-3.82,5.69-5.69,8.55-.7,1.07-1.45,2.15-1.91,3.33-.72,1.84-.57,3.73.25,5.56,1.37,3.07,3.85,4.44,7.25,4.74.41-.08.98-.18,1.54-.29,1.64-.32,3.05-1.13,4.1-2.39,1-1.2,1.82-2.56,2.7-3.86.72-1.06,1.41-2.15,2.12-3.21,1.22-1.83,2.44-3.66,3.68-5.48.2-.3.18-.51.01-.83-.78-1.5-1.28-3.08-1.31-4.79Z" fill="none" stroke="#231f20" stroke-width="5"/>
    <path d="m79,30.61c7.47.01,13.37-5.85,13.42-13.2.05-7.32-5.71-13.35-13.23-13.42-7.46-.06-13.35,5.91-13.38,13.27-.08,7.24,5.85,13.33,13.19,13.34Z" fill="none" stroke="#231f20" stroke-width="5"/>
  </g>
  <g>
    <path d="m114.39,46.98c-.91-1.63-2.35-2.63-4.17-2.99-1.74-.34-3.41-.05-4.85,1-1.92,1.4-3.77,2.89-5.66,4.34-1.42,1.09-2.85,2.15-4.26,3.24-1.89,1.46-3.78,2.94-5.66,4.42-.32.25-.46.21-.61-.19-.77-2.07-1.57-4.12-2.35-6.18-.95-2.51-1.89-5.02-2.84-7.52-.3-.8-.53-1.65-.95-2.39-1.01-1.78-2.66-2.94-4.26-4.13-3.02-2.26-6.29-4.1-9.58-5.92-1.99-1.1-4.05-2.1-6.09-3.11-.85-.42-1.71-.97-2.63-1.12-2.11-.35-4.24-.53-6.37-.71-2.54-.21-5.09-.33-7.63-.49-4.6-.28-9.21-.56-13.81-.84-.12,0-.23,0-.35-.02-.99-.11-1.94-.03-2.9.28-2.79.9-4.44,3.73-4.24,6.42.03.38.15.76.2,1.14.25,2.09.47,4.18.73,6.26.31,2.47.64,4.93.96,7.4.29,2.28.59,4.55.86,6.83.31,2.59.61,5.17.89,7.76.3,2.85,1.62,4.94,4.42,5.88,2.39.8,4.78.12,6.47-1.72,1.48-1.6,1.77-3.57,1.48-5.67-.29-2.12-.57-4.24-.83-6.36-.17-1.34-.3-2.69-.47-4.02-.18-1.41-.41-2.82-.59-4.23-.19-1.51-.36-3.03-.54-4.54-.09-.81-.19-1.63-.28-2.48,4.25.34,8.43.68,12.62,1.02-.01.16,0,.24-.03.31-.5,1.22-1.02,2.43-1.51,3.66-1.14,2.84-2.3,5.68-3.4,8.55-.64,1.67-1.21,3.36-1.7,5.08-.53,1.83-.58,3.74-.45,5.63.17,2.6,1.2,4.82,3.16,6.57.94.84,1.89,1.68,2.82,2.53,2,1.82,3.98,3.66,5.98,5.47,2.46,2.23,4.95,4.43,7.42,6.65.97.87,1.92,1.74,2.97,2.68-.67.34-1.24.64-1.81.92-2.75,1.32-5.5,2.63-8.25,3.95-1.71.82-3.42,1.64-5.14,2.45-2.89,1.37-5.77,2.77-8.68,4.1-2.37,1.08-3.87,2.91-4.45,5.37-.59,2.49.05,4.79,1.69,6.78,2.05,2.48,5.54,3.31,8.43,2.24,1.61-.59,3.13-1.43,4.69-2.17,2.63-1.25,5.26-2.5,7.89-3.75,2.66-1.27,5.32-2.55,7.98-3.82,2.32-1.1,4.64-2.18,6.96-3.29,2.38-1.14,4.77-2.26,7.13-3.45.79-.4,1.61-.87,2.23-1.49,2.11-2.14,2.91-4.76,2.43-7.72-.21-1.33-.81-2.57-1.76-3.5-1.9-1.86-3.91-3.61-5.89-5.4-1.65-1.49-3.32-2.97-4.97-4.46-1.58-1.42-3.14-2.87-4.73-4.28-.27-.24-.33-.42-.15-.73.49-.85.96-1.7,1.44-2.55,1.25-2.24,2.49-4.49,3.74-6.73.09-.17.24-.31.41-.52.87,1.93,1.71,3.75,2.53,5.58.89,1.99,1.76,3.99,2.62,6,.63,1.46,1.64,2.56,3.06,3.22,2.28,1.06,4.45.77,6.47-.69,1.2-.86,2.38-1.75,3.56-2.62,2.74-2.03,5.48-4.07,8.22-6.09,2.02-1.49,4.06-2.96,6.09-4.45,1.48-1.09,2.91-2.25,4.43-3.28,2.7-1.84,3.29-5.5,1.83-8.1Z" fill="#fbf49b"/>
    <path d="m35.25,104.15c-.02-1.27.26-2.47.66-3.66.65-1.91,1.77-3.51,3.39-4.67,1.17-.84,2.5-1.47,3.8-2.12,1.91-.95,3.85-1.82,5.77-2.74.25-.12.49-.32.64-.54.97-1.4,1.92-2.82,2.88-4.23,1.3-1.94,2.59-3.89,3.91-5.82.19-.28.13-.46-.07-.64-1.33-1.19-2.67-2.37-4-3.56-1-.89-2-1.79-2.99-2.69-1.35-1.22-2.7-2.44-4.07-3.65-.09-.08-.34-.04-.48.03-.14.08-.24.24-.34.39-1.27,1.9-2.54,3.8-3.8,5.7-1.28,1.91-2.56,3.81-3.83,5.72-1.76,2.62-3.52,5.24-5.29,7.87-1.23,1.83-2.47,3.66-3.7,5.5-1.74,2.59-3.47,5.19-5.21,7.78-1.9,2.85-3.82,5.69-5.69,8.55-.7,1.07-1.45,2.15-1.91,3.33-.72,1.84-.57,3.73.25,5.56,1.37,3.07,3.85,4.44,7.25,4.74.41-.08.98-.18,1.54-.29,1.64-.32,3.05-1.13,4.1-2.39,1-1.2,1.82-2.56,2.7-3.86.72-1.06,1.41-2.15,2.12-3.21,1.22-1.83,2.44-3.66,3.68-5.48.2-.3.18-.51.01-.83-.78-1.5-1.28-3.08-1.31-4.79Z" fill="#fbf49b"/>
    <path d="m79,30.61c7.47.01,13.37-5.85,13.42-13.2.05-7.32-5.71-13.35-13.23-13.42-7.46-.06-13.35,5.91-13.38,13.27-.08,7.24,5.85,13.33,13.19,13.34Z" fill="#fbf49b"/>
  </g>
</svg>