<?xml version="1.0" encoding="UTF-8"?>
<svg id="a" data-name="Layer 1" xmlns="http://www.w3.org/2000/svg" viewBox="0 0 128 128">
  <polygon points="60.63 18.8 74.63 12.81 86.39 16.59 94.28 29.62 60.63 18.8" fill="#f9f4ac"/>
  <polygon points="58.63 22.79 59.7 20.68 94.06 31.76 92.95 34.27 58.63 22.79" fill="#f9f4ac"/>
  <path d="m96.93,4.49h-6.65c-7.33,0-13.3,5.97-13.3,13.3v.66h5.31v-.66c0-4.41,3.58-7.98,7.98-7.98h6.65c4.41,0,7.98,3.58,7.98,7.98v73.82h5.32V17.8c0-7.33-5.97-13.3-13.31-13.3Z" fill="#f9f4ac"/>
  <g>
    <g>
      <path d="m66.17,34.73c-.56,0-1.02-.45-1.03-1.02l-.06-3.1c0-.58.45-1.05,1.01-1.06.49-.02,1.05.45,1.06,1.01l.06,3.11c0,.57-.44,1.05-1.02,1.06h-.02Z" fill="#f9f4ac"/>
      <path d="m66.68,60.99c-.56,0-1.02-.45-1.03-1.02l-.13-6.56c-.01-.57.44-1.05,1.01-1.06.61-.08,1.05.45,1.06,1.02l.13,6.57c.01.57-.45,1.05-1.02,1.06h-.02Zm-.25-13.13c-.57,0-1.03-.45-1.04-1.01l-.13-6.57c0-.57.45-1.04,1.02-1.06.49-.03,1.04.44,1.06,1.02l.13,6.57c0,.57-.45,1.04-1.02,1.06h-.02Z" fill="#f9f4ac"/>
      <path d="m66.87,70.67c-.56,0-1.02-.45-1.03-1.02l-.05-3.11c-.01-.57.44-1.05,1.01-1.06.54.06,1.05.45,1.06,1.02l.06,3.11c.01.58-.44,1.05-1.02,1.06h-.02Z" fill="#f9f4ac"/>
    </g>
    <g>
      <path d="m75.5,38.88c-.56,0-1.03-.45-1.04-1.02l-.06-3.1c-.01-.57.44-1.05,1.01-1.05.64,0,1.05.44,1.06,1.01l.05,3.11c.01.57-.44,1.04-1.01,1.05h-.02Z" fill="#f9f4ac"/>
      <path d="m76,65.14c-.56,0-1.02-.45-1.03-1.02l-.13-6.57c0-.57.45-1.04,1.02-1.05.57-.06,1.04.44,1.06,1.01l.13,6.57c.01.57-.44,1.04-1.01,1.06h-.03Zm-.25-13.14c-.56,0-1.02-.45-1.03-1.01l-.13-6.57c-.01-.57.44-1.04,1.01-1.06.64,0,1.05.45,1.06,1.02l.13,6.56c0,.57-.45,1.05-1.02,1.06h-.02Z" fill="#f9f4ac"/>
      <path d="m76.2,74.81c-.56,0-1.03-.45-1.03-1.01l-.06-3.11c0-.57.45-1.05,1.02-1.06h.01c.57,0,1.03.45,1.04,1.02l.06,3.11c0,.57-.45,1.05-1.02,1.06h-.02Z" fill="#f9f4ac"/>
    </g>
    <g>
      <path d="m83.79,45.1c-.57,0-1.03-.45-1.04-1.01l-.05-3.12c-.01-.57.44-1.04,1.01-1.05.5.03,1.05.44,1.05,1.01l.06,3.11c.01.58-.44,1.05-1.01,1.06h-.02Z" fill="#f9f4ac"/>
      <path d="m84.3,71.36c-.56,0-1.03-.45-1.04-1.01l-.13-6.57c0-.57.45-1.04,1.02-1.05.63-.01,1.05.45,1.05,1.02l.13,6.56c0,.57-.45,1.04-1.02,1.06h-.02Zm-.26-13.13c-.56,0-1.02-.45-1.03-1.02l-.13-6.56c-.01-.58.44-1.05,1.01-1.06.5.03,1.05.45,1.06,1.01l.13,6.56c0,.58-.44,1.06-1.02,1.06h-.02Z" fill="#f9f4ac"/>
      <path d="m84.49,81.04c-.57,0-1.02-.45-1.03-1.02l-.06-3.11c0-.57.45-1.04,1.02-1.05.55-.07,1.04.44,1.06,1.01l.06,3.11c.01.57-.44,1.05-1.01,1.06h-.02Z" fill="#f9f4ac"/>
    </g>
  </g>
  <g>
    <polygon points="106.94 123 26.3 123 8.88 95.61 116.22 95.61 106.94 123" fill="#f9f4ac"/>
    <path d="m116.89,90.29c0,1.84-1.58,3.32-3.51,3.32H6.41c-1.94,0-3.51-1.49-3.51-3.32h0c0-1.84,1.56-3.32,3.51-3.32h106.97c1.93,0,3.51,1.49,3.51,3.32h0Z" fill="#f9f4ac"/>
  </g>
</svg>