<?xml version="1.0" encoding="UTF-8"?>
<svg id="a" data-name="Layer 1" xmlns="http://www.w3.org/2000/svg" viewBox="0 0 128 128">
  <path d="m11.71,88.03h27.18v-7.08H11.52v-34.22h-6.63v76.23h6.29c.26-2.28.5-4.34.73-6.33h103.79c.23,2.33.43,4.29.63,6.23h6.38v-28.04H11.71v-6.79Z" fill="#f9f4ac"/>
  <path d="m122.85,69.44c-.51-8.39-6.93-15.48-15.37-15.73-15.24-.46-30.51-.43-45.75-.02-7.93.21-14.44,6.46-15.22,14.3-.64,6.51-.13,13.13-.13,19.88h76.56c0-1.98,0-3.51,0-5.03-.01-4.47.18-8.95-.09-13.4Z" fill="#f9f4ac"/>
  <path d="m33.33,46.42c12.06-.51,19.98-10.58,19.2-25.12-5.77,3.79-11.8,6.99-17.53.99-5.53-5.79-1.54-11.39,1.77-17.17-16.13.29-25.48,8.34-25.17,20.97.29,11.77,9.98,20.84,21.73,20.34Z" fill="#f9f4ac"/>
  <path d="m18.48,63.64c-.09,5.78,4.76,10.62,10.54,10.53,5.62-.09,10.15-4.76,10.12-10.43-.03-5.75-4.5-10.21-10.25-10.23-5.67-.02-10.33,4.52-10.42,10.14Z" fill="#f9f4ac"/>
  <path d="m115.8,25.32v-6.3c-1.42-.23-2.68-.43-4.26-.69,2.19-4.59,4.2-8.81,6.35-13.32h-15.46v6.2c1.48.49,2.66.88,4.04,1.33-2.13,4.38-4.08,8.39-6.22,12.77h15.54Z" fill="#f9f4ac"/>
  <path d="m87.61,46.23v-6.28c-1.27-.27-2.55-.55-4.26-.92,2.15-4.44,4.17-8.6,6.3-13h-15.53v6.33c1.46.16,2.74.3,4.39.48-2.24,4.6-4.29,8.82-6.52,13.39h15.61Z" fill="#f9f4ac"/>
</svg>