<svg id="a" xmlns="http://www.w3.org/2000/svg" viewBox="0 0 128 128"><defs><style>.cls-1{fill:#ffb3b3;}.cls-2{opacity:0.5;}.cls-3{fill:#fff;}.cls-4{fill:#ff9292;}.cls-5{fill:#7f2222;}.cls-6{fill:#ffa9e5;}.cls-7{fill:#992269;}</style></defs><path class="cls-1" d="M30.42,56.46S25,56.7,24,65.27c-.65,6.08,2.67,8.31,2.67,8.31a10.44,10.44,0,0,0,1.13,10.78,7.22,7.22,0,0,0,10.39,1.83,8.6,8.6,0,0,0,6.86,4.67,8.8,8.8,0,0,0,6.66-1.76,5.14,5.14,0,0,0,5,2.27c3.09-.33,4-2.25,4-2.25s3,5.57,11.39,5c7.19-.47,8.73-4.15,8.73-4.15S85.63,93.64,92,90c5.21-3,4.81-7.75,4.81-7.75s5.4.28,7.5-4.07a9.4,9.4,0,0,0-1.56-10.5s3.22-4.32.74-11.81c-1.89-5.71-5.93-5.43-5.93-5.43s0-4.38-3.13-6.93a7,7,0,0,0-6.28-1.32A10,10,0,0,0,81,35.73a12.39,12.39,0,0,0-10.55,2.15s-1.62-1.64-5.29-1.32a11,11,0,0,0-6,2.82s-1.38-5.52-9.93-3.89c-8.39,1.61-8.95,6.43-8.95,6.43a10.59,10.59,0,0,0-8.77,4.93A9.75,9.75,0,0,0,30.42,56.46Z"/><path class="cls-1" d="M102.7,67.68a9.4,9.4,0,0,1,1.56,10.5c-2.1,4.35-7.5,4.07-7.5,4.07S97.16,87,92,90c-6.32,3.64-11.09,0-11.09,0s-1.54,3.68-8.73,4.15c-8.43.55-11.39-5-11.39-5s-.88,1.92-4,2.25a5.14,5.14,0,0,1-5-2.27,8.8,8.8,0,0,1-6.66,1.76,8.6,8.6,0,0,1-6.86-4.67,7.22,7.22,0,0,1-10.39-1.83,10.12,10.12,0,0,1-2.12-6.87,10.44,10.44,0,0,1,1-3.91S23.38,71.35,24,65.27c.92-8.57,6.39-8.81,6.39-8.81a9.75,9.75,0,0,1,1.09-9.61,10.59,10.59,0,0,1,8.77-4.93s.56-4.82,8.95-6.43c8.55-1.63,9.93,3.89,9.93,3.89a11,11,0,0,1,6-2.82c3.67-.32,5.29,1.32,5.29,1.32A12.39,12.39,0,0,1,81,35.73a10,10,0,0,1,7.14,6.46,7,7,0,0,1,6.28,1.32c3.09,2.55,3.13,6.93,3.13,6.93s4-.28,5.93,5.43a17.15,17.15,0,0,1,.93,6A11,11,0,0,1,102.7,67.68Z"/><path class="cls-1" d="M102.7,67.68a9.4,9.4,0,0,1,1.56,10.5c-2.1,4.35-7.5,4.07-7.5,4.07S97.16,87,92,90c-6.32,3.64-11.09,0-11.09,0s-1.54,3.68-8.73,4.15c-8.43.55-11.39-5-11.39-5s-.88,1.92-4,2.25a5.14,5.14,0,0,1-5-2.27,8.8,8.8,0,0,1-6.66,1.76,8.6,8.6,0,0,1-6.86-4.67,7.22,7.22,0,0,1-10.39-1.83,10.12,10.12,0,0,1-2.12-6.87,11.3,11.3,0,0,1,.67-3.18c.18-.46.32-.73.32-.73S23.38,71.35,24,65.27a14.52,14.52,0,0,1,1.22-4.66h0c1.91-4,5.17-4.15,5.17-4.15a9.75,9.75,0,0,1,1.09-9.61,10.59,10.59,0,0,1,8.77-4.93s.56-4.82,8.95-6.43c8.55-1.63,9.93,3.89,9.93,3.89a11,11,0,0,1,6-2.82c3.67-.32,5.29,1.32,5.29,1.32A12.39,12.39,0,0,1,81,35.73a10,10,0,0,1,7.14,6.46,7,7,0,0,1,6.28,1.32c3.09,2.55,3.13,6.93,3.13,6.93s4-.28,5.93,5.43a17.15,17.15,0,0,1,.93,6A11,11,0,0,1,102.7,67.68Z"/><path class="cls-1" d="M102.7,67.68a9.4,9.4,0,0,1,1.56,10.5c-2.1,4.35-7.5,4.07-7.5,4.07S97.16,87,92,90c-6.32,3.64-11.09,0-11.09,0s-1.54,3.68-8.73,4.15c-8.43.55-11.39-5-11.39-5s-.88,1.92-4,2.25a5.14,5.14,0,0,1-5-2.27,8.8,8.8,0,0,1-6.66,1.76,8.6,8.6,0,0,1-6.86-4.67,7.22,7.22,0,0,1-10.39-1.83,10.12,10.12,0,0,1-2.12-6.87,11.3,11.3,0,0,1,.67-3.18c.18-.46.32-.73.32-.73S23.38,71.35,24,65.27a14.52,14.52,0,0,1,1.22-4.66h0c1.91-4,5.17-4.15,5.17-4.15a9.75,9.75,0,0,1,1.09-9.61,10.59,10.59,0,0,1,8.77-4.93s.56-4.82,8.95-6.43c8.55-1.63,9.93,3.89,9.93,3.89a11,11,0,0,1,6-2.82c3.67-.32,5.29,1.32,5.29,1.32A12.39,12.39,0,0,1,81,35.73a9.78,9.78,0,0,1,6.14,4.38,9.24,9.24,0,0,1,1,2.08,7,7,0,0,1,3.62,0,6.88,6.88,0,0,1,2.66,1.36c3.09,2.55,3.13,6.93,3.13,6.93s4-.28,5.93,5.43a17.15,17.15,0,0,1,.93,6A11,11,0,0,1,102.7,67.68Z"/><path class="cls-1" d="M102.7,67.68a9.4,9.4,0,0,1,1.56,10.5c-2.1,4.35-7.5,4.07-7.5,4.07S97.16,87,92,90c-6.32,3.64-11.09,0-11.09,0s-1.54,3.68-8.73,4.15c-8.43.55-11.39-5-11.39-5s-.88,1.92-4,2.25a5.14,5.14,0,0,1-5-2.27,8.8,8.8,0,0,1-6.66,1.76,8.6,8.6,0,0,1-6.86-4.67,7.22,7.22,0,0,1-10.39-1.83,10.12,10.12,0,0,1-2.12-6.87,11.3,11.3,0,0,1,.67-3.18c.18-.46.32-.73.32-.73S23.38,71.35,24,65.27a14.52,14.52,0,0,1,1.22-4.66h0c1.91-4,5.17-4.15,5.17-4.15a9.75,9.75,0,0,1,1.09-9.61,10.59,10.59,0,0,1,8.77-4.93s.56-4.82,8.95-6.43c8.55-1.63,9.93,3.89,9.93,3.89a11,11,0,0,1,6-2.82,9.4,9.4,0,0,1,2.36.07,5.51,5.51,0,0,1,2.93,1.25,8.62,8.62,0,0,1,1.06-.74A12.67,12.67,0,0,1,81,35.73a9.78,9.78,0,0,1,6.14,4.38,9.24,9.24,0,0,1,1,2.08,7,7,0,0,1,3.62,0,6.88,6.88,0,0,1,2.66,1.36c3.09,2.55,3.13,6.93,3.13,6.93s4-.28,5.93,5.43a17.15,17.15,0,0,1,.93,6A11,11,0,0,1,102.7,67.68Z"/><g class="cls-2"><path class="cls-3" d="M58.37,45.14a8,8,0,0,1,2-4.87c2.37-2.69,6.84-2.42,6.84-2.42A15.52,15.52,0,0,0,58.37,45.14Z"/></g><g class="cls-2"><path class="cls-3" d="M54.68,54.84A5.87,5.87,0,0,1,56,52.54c1.75-2,5-1.79,5-1.79A17.75,17.75,0,0,0,54.68,54.84Z"/></g><path class="cls-4" d="M72.69,41c-3.2,1.39-4.11,2.25-5.65,4.79-.25-2.63,1.43-3.74,2.4-5.17s-.62-3-2-4a5.51,5.51,0,0,1,2.93,1.25,8.62,8.62,0,0,1,1.06-.74C73,38.48,74.34,40.31,72.69,41Z"/><g class="cls-2"><path class="cls-3" d="M101.07,55.86A29.45,29.45,0,0,0,99,52c1,.47,2.43,1.59,3.33,4.29a16,16,0,0,1,.86,5.54S101.79,57.5,101.07,55.86Z"/></g><path class="cls-4" d="M43.64,79.43c-.13,1.28-10.4-.34-10.86-.94s.42-1.17-.45-3.09S42,69.72,42,69.72s2.22,2.09.2,5.51C41.55,76.31,43.82,77.63,43.64,79.43Z"/><path class="cls-4" d="M34.24,70.6a10.94,10.94,0,0,0-7.86,3.71c.18-.46.32-.73.32-.73S23.38,71.35,24,65.27a14.52,14.52,0,0,1,1.22-4.66c0,.17-1.26,9.18,2.75,8.73C33.6,68.7,35.64,70.7,34.24,70.6Z"/><path class="cls-4" d="M96,59.63a8.69,8.69,0,0,0-5-2.56s-2.46-.94-2.19-2.35c.35-1.93,2.91.09,5-4.49,1.13,1.16,0,3.89.68,4.49,1.27,1.05,2.71-2,3-4.28.81.51,2.29,2.7-2,6C94,57.54,96.32,59.91,96,59.63Z"/><path class="cls-4" d="M91.72,42.15c-3.11.66-3.18,5-3.55,4.75a18.12,18.12,0,0,0-1.07-6.79,9.24,9.24,0,0,1,1,2.08A7,7,0,0,1,91.72,42.15Z"/><path class="cls-4" d="M102.7,67.68a9.4,9.4,0,0,1,1.56,10.5c-2.1,4.35-7.5,4.07-7.5,4.07S97.16,87,92,90c-6.32,3.64-11.09,0-11.09,0s-1.54,3.68-8.73,4.15c-8.43.55-11.39-5-11.39-5s-.88,1.92-4,2.25a5.14,5.14,0,0,1-5-2.27,8.8,8.8,0,0,1-6.66,1.76,8.6,8.6,0,0,1-6.86-4.67,7.22,7.22,0,0,1-10.39-1.83,10.12,10.12,0,0,1-2.12-6.87s.64,6.66,6.65,7.52c5.28.77,8.16-3.66,8.16-3.66S42,88.21,45.73,88c5.44-.31,4.13-7.85,5.59-8.5s2.47,7.86,5.24,7S60,81.76,60,81.76s9-1.44,14.43,1.56a9.81,9.81,0,0,0,3.63,1s1.68-1.94,8.37-4,7.8-2.72,7.21-5c1.89,1.88,7.06,3.61,5.84-3.6,4.79,2.07,1.18-4-2-4.13-2-1.41-.41-3.71-.41-3.71l7.33-2.06A11,11,0,0,1,102.7,67.68Z"/><path class="cls-5" d="M88.42,92a10.49,10.49,0,0,1-7.35-1.16c-.82,1.16-3.17,3.52-8.9,3.89-6.84.45-10.24-2.94-11.45-4.55A5.92,5.92,0,0,1,56.84,92a5.78,5.78,0,0,1-5.23-2,9.72,9.72,0,0,1-6.6,1.5,9.33,9.33,0,0,1-7-4.4c-1.7,1-6.59,3-10.65-2.35a11,11,0,0,1-1.41-11c-.94-.87-3.06-3.44-2.52-8.56.76-7,4.44-8.79,6.14-9.22A10.48,10.48,0,0,1,31,46.49a11.38,11.38,0,0,1,8.79-5.2c.42-1.41,2.19-5,9.34-6.42,6.85-1.31,9.44,1.85,10.29,3.47a11.07,11.07,0,0,1,5.66-2.41,8.07,8.07,0,0,1,5.35,1.15,13.06,13.06,0,0,1,10.68-2,10.52,10.52,0,0,1,7.4,6.32A7.56,7.56,0,0,1,94.79,43a10.27,10.27,0,0,1,3.32,6.81c1.32.16,4.35,1.05,5.93,5.84,2.13,6.45.21,10.64-.55,12a10,10,0,0,1,1.34,10.83C103,82.24,99,82.8,97.39,82.88a9.47,9.47,0,0,1-5.12,7.67A12.78,12.78,0,0,1,88.42,92Zm-7.68-2.67a.67.67,0,0,1,.51.12c.18.13,4.53,3.34,10.39,0,4.8-2.77,4.49-7.12,4.49-7.16a.6.6,0,0,1,.18-.49.61.61,0,0,1,.48-.19s5,.2,6.9-3.72a8.69,8.69,0,0,0-1.44-9.78.63.63,0,0,1-.06-.82s3-4.18.65-11.23c-1.7-5.14-5.14-5-5.29-5a.64.64,0,0,1-.47-.17.65.65,0,0,1-.2-.46S96.79,46.32,94,44a6.26,6.26,0,0,0-5.68-1.21.6.6,0,0,1-.49,0,.63.63,0,0,1-.32-.38,9.22,9.22,0,0,0-6.68-6,11.81,11.81,0,0,0-10,2,.65.65,0,0,1-.87,0c0-.06-1.5-1.43-4.78-1.14a10.58,10.58,0,0,0-5.58,2.64A.6.6,0,0,1,59,40a.61.61,0,0,1-.44-.45c0-.2-1.39-4.91-9.2-3.41l-.26.05c-7.53,1.53-8.16,5.65-8.18,5.83a.64.64,0,0,1-.67.55A9.91,9.91,0,0,0,32,47.21a9.1,9.1,0,0,0-1.05,9,.64.64,0,0,1-.53.92c-.2,0-4.95.36-5.79,8.24-.59,5.58,2.27,7.64,2.39,7.72a.63.63,0,0,1,.21.82A9.71,9.71,0,0,0,28.34,84c4.23,5.59,9.29,1.87,9.5,1.71a.62.62,0,0,1,1,.26,7.91,7.91,0,0,0,6.36,4.28,8.24,8.24,0,0,0,6.15-1.6.64.64,0,0,1,.53-.15.63.63,0,0,1,.45.31,4.49,4.49,0,0,0,4.42,1.95c2.65-.28,3.43-1.83,3.46-1.89a.63.63,0,0,1,.56-.36.61.61,0,0,1,.57.33c.12.21,2.9,5.21,10.79,4.69,6.65-.43,8.13-3.63,8.19-3.77a.65.65,0,0,1,.43-.36Z"/><path class="cls-1" d="M26.7,73.58c.58-1,3.27-4.66,7.86-2.87"/><path class="cls-5" d="M26.16,73.25C28,70.72,31,69.27,34,70.5l.53.21-.83-.21a6,6,0,0,0-6.49,3.42l-1.08-.67Z"/><path class="cls-1" d="M32.27,74.79s3.9,2.79,7.81.79c4.33-2.22,1.89-8,0-9.44Z"/><path class="cls-4" d="M38.16,75a6.87,6.87,0,0,1-4-.53s6.2.55,7.1-3.45a4.23,4.23,0,0,1,0,.94,3,3,0,0,1-1.75,2.56,5.44,5.44,0,0,1-1.37.48Z"/><path class="cls-5" d="M32,74.84a9.21,9.21,0,0,0,6.7.6,4.13,4.13,0,0,0,2.84-2.82,7.4,7.4,0,0,0-.49-4.39,6.9,6.9,0,0,0-1.19-2,4,4,0,0,1,1,.78c2,2.16,2.92,6,.58,8.31-2.59,2.44-6.94,1.91-9.4-.44Z"/><path class="cls-1" d="M32.58,78.9a5.35,5.35,0,0,1,5.52-3,7.18,7.18,0,0,1,6,4.64Z"/><g class="cls-2"><path class="cls-3" d="M34.74,78a4.61,4.61,0,0,1,1.82-.84A5.34,5.34,0,0,1,38,77.07,5.79,5.79,0,0,1,41.83,79,8.46,8.46,0,0,0,34.74,78Z"/></g><g class="cls-2"><path class="cls-3" d="M27.05,79.38a9.41,9.41,0,0,1,.25-4.3,6.06,6.06,0,0,1,3.16-3.77C29.24,72.34,28.17,73.69,27.05,79.38Z"/></g><path class="cls-5" d="M32.58,78.9a5,5,0,0,1,4.28-3.57,6.56,6.56,0,0,1,5.52,1.81,5.69,5.69,0,0,1,1.76,3.38,9.57,9.57,0,0,0-2.44-2.58c-2.74-2.08-7.07-2.14-9.12,1Z"/><path class="cls-5" d="M37.83,85.7a6.68,6.68,0,0,0,2.3-3,9.44,9.44,0,0,0,.39-1.31,8.12,8.12,0,0,1-.09,1.39,7.41,7.41,0,0,1-1.81,4l-.79-1Z"/><path class="cls-5" d="M60.22,89.47a7.33,7.33,0,0,1-1-2.71l1.25-.21a6.26,6.26,0,0,0,.78,2.21Z"/><path class="cls-5" d="M51.25,88.7A7.38,7.38,0,0,0,53,86.52a8.59,8.59,0,0,1-.57,2.59c-.06.13-.1.24-.18.39l-1-.8Z"/><path class="cls-1" d="M91.1,84.27c-3-.25-10.44-7.1-5.44-14.35,4-5.8,14.55-3.65,14,4.23Z"/><path class="cls-1" d="M99.62,74.15,97.25,77l-6.15,7.3c-2.17-.18-6.6-3.75-7.09-8.43a8.68,8.68,0,0,1,1.64-5.92C89.64,64.12,100.21,66.27,99.62,74.15Z"/><path class="cls-4" d="M97.25,77l-6.15,7.3c-2.17-.18-6.6-3.75-7.09-8.43A7.47,7.47,0,0,1,86.67,78c.41.55,1.84,4.78,6,2.83s-1.51-7.23-.88-7.41C93.05,73.1,94.47,77,97.25,77Z"/><g class="cls-2"><path class="cls-3" d="M87.8,71.49C85,74.42,85.16,76.24,85.17,75a7.67,7.67,0,0,1,1.47-4.37A6.49,6.49,0,0,1,90.7,68a7.05,7.05,0,0,1,6,1.44C97.88,70.48,92.13,66.89,87.8,71.49Z"/></g><path class="cls-5" d="M91.1,84.27c-2.24-.16-4.5-2.17-5.79-3.93a9,9,0,0,1-1-9.38,8.61,8.61,0,0,1,3.29-3.73,8.72,8.72,0,0,1,9.47.44,6.57,6.57,0,0,1,2.52,6.48,8,8,0,0,0-.36-2.29,6.61,6.61,0,0,0-4.67-4.34,7.69,7.69,0,0,0-9.16,4C83.57,75,84.75,79,87.32,81.74a8,8,0,0,0,3.78,2.53Z"/><path class="cls-5" d="M59.62,39.82c-2.51,2.54-2.41,6.58-1.11,9.7a.6.6,0,0,1-.41.81,5.44,5.44,0,0,0-1.07.43,5.63,5.63,0,0,0-3,3.6,8,8,0,0,0,0,3.76,8.93,8.93,0,0,1-.55-2.53,6.38,6.38,0,0,1,2.94-5.78,7.32,7.32,0,0,1,1.26-.69l-.39.87a11.39,11.39,0,0,1-.27-8.58,8.42,8.42,0,0,1,1.65-2.47l.91.88Z"/><path class="cls-1" d="M54.72,39.41c-.66.14-2.9,2.29-1.81,6.16"/><path class="cls-5" d="M54.72,39.41a2.65,2.65,0,0,0-1.12,1.24,5.71,5.71,0,0,0-.08,4.75l-1.22.34a6.52,6.52,0,0,1,1-5.27,2.9,2.9,0,0,1,1.39-1.06Z"/><path class="cls-1" d="M67.12,45.79a6.94,6.94,0,0,1,4.07-4.34,6.49,6.49,0,0,1,7.07,1.34Z"/><g class="cls-2"><path class="cls-3" d="M69.65,43.87a6.32,6.32,0,0,1,2-1.32,5.46,5.46,0,0,1,3.6-.19,11.57,11.57,0,0,0-3,.45A22.6,22.6,0,0,0,69.65,43.87Z"/></g><path class="cls-5" d="M67.12,45.79A5.82,5.82,0,0,1,70,41.34a6.48,6.48,0,0,1,7,.15,3.68,3.68,0,0,1,1.21,1.3,6.63,6.63,0,0,0-3.07-1.19,8.16,8.16,0,0,0-8.07,4.19Z"/><path class="cls-6" d="M70.41,37.88a4.64,4.64,0,0,1,1.53,3.33"/><path class="cls-5" d="M72.57,41.26l-1.26-.09A4.09,4.09,0,0,0,70,38.35l.84-.94A5.26,5.26,0,0,1,72.57,41.26Z"/><path class="cls-1" d="M73.8,47.75c.07,1.64,3.69,4.15,7.18,2.88,5.11-1.87,2.93-7.26,2.5-7.61Z"/><path class="cls-4" d="M79.92,49.69a5.25,5.25,0,0,1-4.07-1c-.19-.15-.22-.45.09-.36,5.9,1.73,7.17-2.84,7.18-2.31a4.22,4.22,0,0,1-.18,1.26,3.55,3.55,0,0,1-2.37,2.19,4.81,4.81,0,0,1-.65.18Z"/><path class="cls-5" d="M73.81,47.75c.37,1.36,2,2.14,3.26,2.5a5.72,5.72,0,0,0,5.61-1.41,5.87,5.87,0,0,0,1-4.74A4.66,4.66,0,0,0,83.48,43a1.49,1.49,0,0,1,.41.42,5,5,0,0,1-.29,6.26,6.2,6.2,0,0,1-4.45,1.8,6.52,6.52,0,0,1-4.31-1.74,2.85,2.85,0,0,1-1-2Z"/><path class="cls-7" d="M41.23,45.32c0-.07,0,0,0,0a5,5,0,0,0,2.8.12,1.85,1.85,0,0,0,1.05-.83,5.41,5.41,0,0,0,.68-1.64,2.69,2.69,0,0,1-1.27,3.75c-1.24.55-3.44.52-4.32-.65l1-.71Z"/><path class="cls-6" d="M88.1,42.19a12.4,12.4,0,0,1,.07,4.71"/><path class="cls-5" d="M88.71,42a12.48,12.48,0,0,1-.54,4.86,12.12,12.12,0,0,0-.68-4.56l1.22-.3Z"/><path class="cls-5" d="M98.15,50.44a7.91,7.91,0,0,1-2.38,4.47,7.33,7.33,0,0,0,1.13-4.22,1.84,1.84,0,0,0,0-.26Z"/><path class="cls-1" d="M89.79,57.1a6.85,6.85,0,0,1,6.47,3"/><path class="cls-5" d="M89.69,56.48a7.07,7.07,0,0,1,6.57,3.59A6.23,6.23,0,0,0,93.33,58a6.64,6.64,0,0,0-3.45-.23l-.19-1.25Z"/><path class="cls-1" d="M93.67,49.83c1.23,2.36-1.36,10.46-11,6.69,0,0,.39-4.66,4.38-6.47A8.14,8.14,0,0,1,93.67,49.83Z"/><path class="cls-4" d="M88.65,56.18a9.06,9.06,0,0,1-4.58-.44c8.09.41,8.59-4.44,8.65-5a4.71,4.71,0,0,1-.47,2.62A5,5,0,0,1,88.65,56.18Z"/><path class="cls-5" d="M93.67,49.83a4.29,4.29,0,0,1,.38,3.09,6.54,6.54,0,0,1-3.12,4.38c-2.58,1.49-5.88,1-8.45-.2l.46-1.17a17.68,17.68,0,0,0,3.78.83,7.19,7.19,0,0,0,3.61-.6c2.13-1,4-4,3.34-6.33Z"/><path class="cls-1" d="M75.1,88.55s-3.15-6.4.44-10.88c4.38-5.46,13.81-.45,10.3,8Z"/><path class="cls-1" d="M85.84,85.68,75.1,88.55s-2.6-5.28-.38-9.61a8,8,0,0,1,.83-1.28,6,6,0,0,1,9-.45C86.45,79,87.36,82,85.84,85.68Z"/><g class="cls-2"><path class="cls-3" d="M76.48,78.41a4.64,4.64,0,0,1,2.75-1.73,5.27,5.27,0,0,1,5.43,2.53A9.66,9.66,0,0,0,80,77.52,7.51,7.51,0,0,0,76.48,78.41Z"/></g><path class="cls-4" d="M85.84,85.68,75.1,88.55s-2.6-5.28-.38-9.61A6.44,6.44,0,0,1,76,82.24c0,2.06,1,2,1.7.58.3,0,1.77,2.14,4.75,1.67,3.43-.55,4.6-3.89,2.14-7.28C86.45,79,87.36,82,85.84,85.68Z"/><path class="cls-5" d="M75.1,88.55A11.82,11.82,0,0,1,73.5,81c.67-4.47,5-7.52,9.3-5.61,4.11,1.83,5.13,6.58,3,10.34a8,8,0,0,0-.75-7.11,6,6,0,0,0-6.15-2.4,6.43,6.43,0,0,0-4.44,5,14.31,14.31,0,0,0,.6,7.41Z"/><path class="cls-1" d="M74.52,81.86c.08,2.74-1.64,5.55-5.51,6.3l-3.39-4.89-3.56-5.13s4.39-4.4,9.53-1.36A6.08,6.08,0,0,1,74.52,81.86Z"/><g class="cls-2"><path class="cls-3" d="M64.51,77.83A7.63,7.63,0,0,1,66.64,77,6,6,0,0,1,71,77.8a4.83,4.83,0,0,1,2.1,2.64,5.37,5.37,0,0,1,.25,1.45C71.59,76.78,66.28,77.11,64.51,77.83Z"/></g><path class="cls-4" d="M74.52,81.86c.08,2.74-1.64,5.55-5.51,6.3l-3.39-4.89,1.49-1.17s1.41,3,4.49,2.4A3.76,3.76,0,0,0,74.52,81.86Z"/><path class="cls-5" d="M62.06,78.14a7.68,7.68,0,0,1,10.62-1.35A6.35,6.35,0,0,1,69,88.16a6.9,6.9,0,0,0,4.51-3.84,5.85,5.85,0,0,0-1.62-6.57c-3-2.43-6.86-1.8-9.84.39Z"/><path class="cls-5" d="M93.31,75.06a11.77,11.77,0,0,1,3.81,6.07c.1.34.18.69.27,1l-1.26.18a14.38,14.38,0,0,0-.48-2.91,10.16,10.16,0,0,0-2.34-4.37Z"/><path class="cls-5" d="M78,84.28a9.51,9.51,0,0,0,1.66,3.61,9,9,0,0,0,1.62,1.64l-.87.92A9.83,9.83,0,0,1,78,84.28Z"/><path class="cls-1" d="M51.83,76.45c-1.06,1.76-1.06,9,5.46,10.21a9.16,9.16,0,0,0,9.82-4.56Z"/><path class="cls-4" d="M65.27,82.69a8.56,8.56,0,0,1-4.59,2.45c-4.1.84-7.86-1.52-8.16-5.58C55.93,87.08,65.27,82.69,65.27,82.69Z"/><path class="cls-5" d="M51.83,76.45a6.27,6.27,0,0,0-.23,3,7.65,7.65,0,0,0,2.58,5.08,9.25,9.25,0,0,0,8.19,1.16,10.26,10.26,0,0,0,4.74-3.6,8.91,8.91,0,0,1-4.34,4.55c-4.12,2-9.65.62-11.23-4-.66-1.87-.8-4.51.29-6.23Z"/><path class="cls-6" d="M57.91,49.73a8.31,8.31,0,0,1,4,.5"/><path class="cls-5" d="M57.82,49.1a8.42,8.42,0,0,1,4.08,1.13,7.69,7.69,0,0,0-3.9.12l-.18-1.25Z"/><path class="cls-1" d="M34.27,48.47c.07,3,6.63,8.08,15,3.48,7.38-4,2.59-10.73,0-11.43"/><path class="cls-5" d="M34.27,48.47c.48,2.5,3.58,4.08,5.87,4.55a12.54,12.54,0,0,0,7.53-1c2.27-1,4.64-2.5,5-5.09a6.73,6.73,0,0,0-3.43-6.44,4.22,4.22,0,0,1,1.82.93c3,2.5,3.64,6.69.66,9.49a13.24,13.24,0,0,1-11.85,3c-2.41-.64-5.64-2.76-5.64-5.5Z"/><path class="cls-1" d="M40.28,41.92s3.68.35,4.61,3.74"/><path class="cls-5" d="M40.34,41.29a5.65,5.65,0,0,1,4.55,4.37A4.59,4.59,0,0,0,43,43.35a5.56,5.56,0,0,0-2.75-.8l.12-1.26Z"/></svg>