<svg id="a" xmlns="http://www.w3.org/2000/svg" viewBox="0 0 128 128"><defs><style>.cls-1{fill:#00cfff;}.cls-2{fill:#0bf;}.cls-3{fill:#5fe6ff;}.cls-4{fill:#99f2ff;}</style></defs><path class="cls-1" d="M97.74,78a43.88,43.88,0,0,1-3.3,12c-4.24,9.9-12,19-22.45,21.68-9,2.3-18.85-.65-25.92-6.66S34.64,90.25,32.9,81.12a49.1,49.1,0,0,1-.74-5.92,38.88,38.88,0,0,1,3-18.32c2.5-5.6,6.27-10.43,9.63-15.5A65.82,65.82,0,0,0,50,31.6c.3-.68.59-1.38.89-2.06a42.32,42.32,0,0,1,4.65-9c5-6.66,15-7.39,19.56.18,3.07,5.1,3.83,11.58,6,17.32a25,25,0,0,0,1.36,3.09c4.18,8,10.57,15,13.81,23.54A28.15,28.15,0,0,1,97.74,78Z"/><path class="cls-2" d="M97.74,78A49.65,49.65,0,0,0,68.9,64.83C56,63.59,42.21,67,32.16,75.2a38.88,38.88,0,0,1,3-18.32c2.5-5.6,6.27-10.43,9.63-15.5A65.82,65.82,0,0,0,50,31.6c.3-.68.59-1.38.89-2.06a29.05,29.05,0,0,0,3.71,8.51c3.71,5.54,10.63,9.43,17.06,7.63,4-1.12,7-4.15,9.45-7.63a25,25,0,0,0,1.36,3.09c4.18,8,10.57,15,13.81,23.54A28.15,28.15,0,0,1,97.74,78Z"/><path class="cls-3" d="M46,86.17a16.5,16.5,0,0,0,1.87,6.26c3.14,6.08,9.72,10.42,16.56,10.26S77.93,97.48,79.3,90.78A19.38,19.38,0,0,0,79,82.55c-1.6-7-6.12-12.84-13.35-14.67C60,66.44,53,71.25,49.55,75.47A15.48,15.48,0,0,0,46,86.17Z"/><path class="cls-4" d="M57.2,83.21A6.94,6.94,0,0,0,69.83,78c-.84-3.83-4.6-8.19-8.8-6C57.16,74,54.72,79.29,57.2,83.21Z"/></svg>